<?xml version="1.0" standalone="no"?>
<!DOCTYPE svg PUBLIC "-//W3C//DTD SVG 20010904//EN"
 "http://www.w3.org/TR/2001/REC-SVG-20010904/DTD/svg10.dtd">
<svg version="1.0" xmlns="http://www.w3.org/2000/svg"
 width="837.000000pt" height="528.000000pt" viewBox="0 0 837.000000 528.000000"
 preserveAspectRatio="xMidYMid meet">

<g transform="translate(0.000000,528.000000) scale(0.100000,-0.100000)"
fill="#000000" stroke="none">
<path d="M5290 4915 l0 -145 364 0 c200 0 373 -3 383 -6 15 -5 15 -4 3 5 -10
7 -134 11 -377 11 l-363 0 0 135 0 135 413 3 412 2 -417 3 -418 2 0 -145z"/>
<path d="M6163 5043 c9 -2 25 -2 35 0 9 3 1 5 -18 5 -19 0 -27 -2 -17 -5z"/>
<path d="M6228 5033 c6 -2 18 -2 25 0 6 3 1 5 -13 5 -14 0 -19 -2 -12 -5z"/>
<path d="M6278 5023 c6 -2 18 -2 25 0 6 3 1 5 -13 5 -14 0 -19 -2 -12 -5z"/>
<path d="M6328 5013 c7 -3 16 -2 19 1 4 3 -2 6 -13 5 -11 0 -14 -3 -6 -6z"/>
<path d="M6375 5000 c11 -5 27 -9 35 -9 9 0 8 4 -5 9 -11 5 -27 9 -35 9 -9 0
-8 -4 5 -9z"/>
<path d="M6495 4963 c22 -9 160 -77 308 -150 147 -73 271 -133 275 -133 4 0
20 24 34 53 l27 52 0 -147 1 -148 -112 -84 c-62 -47 -114 -83 -116 -81 -2 2 6
21 17 44 12 22 21 45 21 51 0 5 -114 67 -252 136 -239 120 -363 175 -391 174
-6 -1 22 -14 63 -29 61 -23 554 -263 569 -277 3 -3 -7 -30 -23 -60 -15 -31
-25 -58 -23 -61 3 -2 61 38 131 89 l126 93 0 162 c0 90 -2 163 -5 163 -3 0
-18 -27 -35 -60 -17 -33 -32 -60 -35 -60 -2 0 -131 63 -287 139 -156 77 -294
142 -308 145 -14 3 -7 -2 15 -11z"/>
<path d="M6088 4763 c12 -2 32 -2 45 0 12 2 2 4 -23 4 -25 0 -35 -2 -22 -4z"/>
<path d="M6173 4753 c9 -2 23 -2 30 0 6 3 -1 5 -18 5 -16 0 -22 -2 -12 -5z"/>
<path d="M6228 4743 c7 -3 16 -2 19 1 4 3 -2 6 -13 5 -11 0 -14 -3 -6 -6z"/>
<path d="M6268 4733 c7 -3 16 -2 19 1 4 3 -2 6 -13 5 -11 0 -14 -3 -6 -6z"/>
<path d="M3940 4280 l0 -310 750 0 750 0 0 310 0 310 -750 0 -750 0 0 -310z
m1490 0 l0 -300 -740 0 -740 0 0 300 0 300 740 0 740 0 0 -300z"/>
<path d="M5110 4285 c0 -37 4 -65 10 -65 6 0 10 28 10 65 0 37 -4 65 -10 65
-6 0 -10 -28 -10 -65z"/>
<path d="M4095 4309 c15 -28 15 -33 0 -56 -22 -32 -11 -43 13 -13 l19 24 12
-22 c6 -12 16 -22 22 -22 6 0 2 14 -8 30 -17 29 -17 33 -1 60 9 17 13 30 8 30
-5 0 -15 -10 -21 -22 l-12 -22 -15 22 c-22 33 -35 26 -17 -9z"/>
<path d="M4190 4280 c0 -33 4 -60 10 -60 6 0 10 27 10 60 0 33 -4 60 -10 60
-6 0 -10 -27 -10 -60z"/>
<path d="M4242 4283 l-2 -63 33 1 c29 1 30 2 7 8 -22 6 -26 14 -31 61 l-6 55
-1 -62z"/>
<path d="M4323 4280 c0 -36 2 -50 4 -32 2 17 2 47 0 65 -2 17 -4 3 -4 -33z"/>
<path d="M4372 4278 l1 -63 6 50 6 50 25 -44 c37 -66 50 -64 50 8 0 34 -4 61
-10 61 -5 0 -10 -19 -10 -42 l0 -43 -26 43 c-14 23 -29 42 -35 42 -5 0 -8 -28
-7 -62z"/>
<path d="M4495 4309 c15 -28 15 -33 0 -56 -22 -32 -11 -43 13 -13 l19 24 12
-22 c6 -12 16 -22 22 -22 6 0 2 14 -8 30 -17 29 -17 33 -1 60 9 17 13 30 8 30
-5 0 -15 -10 -21 -22 l-12 -22 -15 22 c-22 33 -35 26 -17 -9z"/>
<path d="M4634 4296 c-3 -8 -4 -27 -2 -43 2 -22 9 -29 31 -31 15 -2 27 1 27 6
0 6 -9 8 -19 5 -13 -3 -21 2 -26 17 -8 24 12 53 32 46 7 -3 13 -1 13 4 0 16
-50 12 -56 -4z"/>
<path d="M4722 4301 c-8 -5 -12 -22 -10 -42 2 -27 8 -35 26 -37 29 -4 52 14
52 42 0 39 -36 58 -68 37z m43 -37 c0 -19 -6 -30 -17 -32 -21 -4 -34 34 -17
54 18 22 34 11 34 -22z"/>
<path d="M4822 4261 c1 -41 2 -42 5 -11 8 60 43 64 43 4 0 -45 18 -44 22 1 2
20 8 35 13 35 6 0 11 -15 13 -35 2 -19 8 -35 13 -35 6 0 9 19 7 43 l-3 42 -57
1 -58 0 2 -45z"/>
<path d="M4971 4245 c1 -33 3 -52 6 -42 3 10 14 17 29 17 32 0 51 38 35 69 -9
15 -20 21 -41 19 -30 -2 -30 -3 -29 -63z m54 19 c0 -32 -21 -39 -38 -12 -8 12
-7 21 3 32 19 24 35 14 35 -20z"/>
<path d="M5073 4265 c0 -27 2 -38 4 -22 2 15 2 37 0 50 -2 12 -4 0 -4 -28z"/>
<path d="M5158 4284 c-16 -34 0 -58 38 -61 27 -2 27 -1 5 5 -37 11 -38 32 -2
32 32 0 41 16 19 38 -20 20 -48 14 -60 -14z m50 -2 c2 -7 -6 -12 -17 -12 -21
0 -27 11 -14 24 9 9 26 2 31 -12z"/>
<path d="M5250 4265 c0 -54 18 -60 22 -7 2 23 8 36 16 35 6 -2 12 2 12 7 0 6
-11 10 -25 10 -23 0 -25 -4 -25 -45z"/>
<path d="M2689 4398 l-4 -48 135 0 135 0 -4 48 c-3 38 -6 42 -11 22 -4 -14
-12 -24 -18 -22 -7 1 -12 -7 -12 -18 0 -40 -20 -19 -21 23 l-1 42 -13 -45 c-8
-28 -13 -36 -14 -22 -1 12 -5 22 -11 22 -5 0 -11 -10 -11 -22 -1 -13 -5 -5 -9
17 l-6 40 -8 -37 c-9 -42 -25 -51 -27 -15 -1 21 -1 21 -8 -3 -7 -23 -8 -22
-16 15 l-9 40 -6 -40 c-6 -39 -7 -39 -17 -15 -6 14 -14 24 -19 22 -5 -2 -12 7
-15 20 -4 17 -7 10 -10 -24z"/>
<path d="M2590 4330 c0 -5 18 -10 40 -10 22 0 40 5 40 10 0 6 -18 10 -40 10
-22 0 -40 -4 -40 -10z"/>
<path d="M2748 4333 c39 -2 105 -2 145 0 39 1 7 3 -73 3 -80 0 -112 -2 -72 -3z"/>
<path d="M2970 4330 c0 -5 18 -10 41 -10 24 0 38 4 34 10 -3 6 -22 10 -41 10
-19 0 -34 -4 -34 -10z"/>
<path d="M854 4298 c9 -12 16 -30 16 -40 0 -11 10 -18 28 -21 15 -2 -2 -5 -38
-7 -36 -1 -55 -5 -42 -7 20 -4 22 -10 22 -59 0 -40 4 -54 14 -54 12 0 13 11 9
55 -4 38 -2 55 6 55 7 0 11 -20 11 -54 0 -49 2 -55 23 -59 12 -2 -3 -5 -33 -6
-30 -2 -49 -5 -42 -8 7 -2 12 -22 12 -44 l0 -39 200 0 c110 0 200 2 200 4 0 2
-7 17 -15 32 -8 16 -14 47 -14 69 l1 40 8 -38 c10 -53 20 -58 20 -9 0 35 3 42
19 42 11 0 22 4 25 9 3 4 -6 6 -19 3 -32 -6 -77 6 -70 18 8 12 -4 92 -15 111
-13 21 -29 0 -38 -50 -7 -40 -8 -41 -27 -26 -12 9 -14 14 -6 13 9 -2 17 9 22
30 9 45 24 60 47 46 18 -12 28 -37 37 -96 10 -64 25 -42 25 37 l0 75 -201 0
-200 0 15 -22z m160 6 c9 -3 16 -12 16 -20 0 -7 10 -20 22 -28 12 -9 17 -16
11 -16 -6 0 -25 14 -42 32 -17 17 -31 26 -31 19 0 -7 -5 -9 -10 -6 -11 7 -4
25 10 25 4 0 15 -3 24 -6z m-17 -28 c12 4 14 3 6 -3 -15 -11 116 -78 151 -78
14 0 21 -6 21 -18 0 -14 -30 -34 -108 -74 -59 -31 -111 -53 -115 -49 -4 4 -9
59 -11 123 -3 113 -3 115 17 104 11 -6 29 -8 39 -5z m127 -193 c-4 -16 -15
-37 -26 -48 -19 -20 -19 -20 -34 -1 -8 11 -14 27 -13 35 0 11 4 8 11 -7 15
-30 31 -23 43 16 11 39 28 43 19 5z m-234 -12 c0 -10 7 -21 15 -25 8 -3 15
-10 15 -15 0 -6 -6 -8 -14 -5 -17 7 -40 64 -25 64 5 0 9 -9 9 -19z"/>
<path d="M998 4179 c-17 -18 -17 -20 2 -39 24 -24 30 -25 30 -5 0 8 7 15 15
15 8 0 15 5 15 10 0 6 -7 10 -15 10 -8 0 -15 7 -15 15 0 20 -11 18 -32 -6z"/>
<path d="M2605 4300 c-16 -4 -23 -8 -14 -9 9 0 31 -4 48 -7 24 -5 31 -3 31 10
0 17 -16 19 -65 6z"/>
<path d="M2973 4298 c2 -7 9 -13 15 -12 7 1 24 2 40 3 l27 3 -25 8 c-39 12
-62 11 -57 -2z"/>
<path d="M841 4268 c-1 -16 4 -28 9 -28 12 0 12 8 0 35 -8 18 -9 17 -9 -7z"/>
<path d="M2746 4283 c-3 -3 28 -22 69 -41 41 -19 75 -38 75 -42 0 -3 -31 -21
-70 -40 -38 -19 -70 -37 -70 -41 0 -4 38 12 84 35 47 22 84 43 84 46 0 9 -166
89 -172 83z"/>
<path d="M2603 4263 c15 -2 37 -2 50 0 12 2 0 4 -28 4 -27 0 -38 -2 -22 -4z"/>
<path d="M2988 4263 c12 -2 32 -2 45 0 12 2 2 4 -23 4 -25 0 -35 -2 -22 -4z"/>
<path d="M2715 4240 c-3 -5 3 -10 14 -10 12 0 21 5 21 10 0 6 -6 10 -14 10 -8
0 -18 -4 -21 -10z"/>
<path d="M2605 4230 c44 -11 65 -11 65 0 0 6 -21 9 -47 9 -43 -1 -45 -2 -18
-9z"/>
<path d="M2970 4230 c0 -7 14 -8 38 -4 51 9 53 14 4 14 -23 0 -42 -5 -42 -10z"/>
<path d="M2787 4215 c-15 -10 -15 -14 -3 -24 7 -6 21 -9 30 -5 19 7 20 12 3
28 -11 11 -17 11 -30 1z"/>
<path d="M2605 4200 c44 -11 65 -11 65 0 0 6 -21 9 -47 9 -43 -1 -45 -2 -18
-9z"/>
<path d="M2970 4200 c0 -12 27 -12 55 0 16 7 13 9 -17 9 -21 1 -38 -3 -38 -9z"/>
<path d="M2605 4170 c44 -11 65 -11 65 0 0 6 -21 9 -47 9 -43 -1 -45 -2 -18
-9z"/>
<path d="M2976 4171 c5 -6 24 -6 44 -1 l35 8 -44 1 c-28 1 -41 -3 -35 -8z"/>
<path d="M6078 4173 c12 -2 32 -2 45 0 12 2 2 4 -23 4 -25 0 -35 -2 -22 -4z"/>
<path d="M2710 4166 c0 -2 9 -6 20 -9 11 -3 20 -1 20 4 0 5 -9 9 -20 9 -11 0
-20 -2 -20 -4z"/>
<path d="M6004 4151 c-33 -20 -74 -67 -74 -85 0 -6 11 6 25 27 14 20 42 46 63
56 20 11 33 20 27 21 -5 0 -24 -9 -41 -19z"/>
<path d="M6175 4153 c46 -24 66 -45 86 -88 10 -22 19 -33 19 -24 0 37 -89 130
-124 129 -6 -1 3 -8 19 -17z"/>
<path d="M2610 4140 c36 -12 60 -12 60 0 0 6 -19 10 -42 9 -37 -1 -39 -2 -18
-9z"/>
<path d="M2970 4140 c0 -12 27 -12 55 0 16 7 13 9 -17 9 -21 1 -38 -3 -38 -9z"/>
<path d="M2605 4110 c28 -12 65 -12 65 0 0 6 -19 10 -42 9 -33 0 -38 -2 -23
-9z"/>
<path d="M2970 4110 c0 -13 40 -13 60 0 11 7 5 10 -22 10 -21 0 -38 -4 -38
-10z"/>
<path d="M6063 4041 c-46 -82 -44 -101 7 -101 33 0 40 -3 40 -20 0 -13 7 -20
20 -20 13 0 20 7 20 20 0 11 5 20 10 20 6 0 10 7 10 15 0 8 -4 15 -10 15 -6 0
-10 28 -10 65 0 64 0 65 -27 65 -24 0 -33 -10 -60 -59z m47 -26 c0 -42 -2 -45
-26 -45 -14 0 -24 3 -22 8 19 38 42 82 45 82 2 0 3 -20 3 -45z"/>
<path d="M2600 4080 c-20 -7 -16 -8 23 -9 26 -1 47 4 47 9 0 12 -34 12 -70 0z"/>
<path d="M2970 4080 c0 -5 17 -10 38 -9 30 0 33 2 17 9 -28 12 -55 12 -55 0z"/>
<path d="M2748 4063 c39 -2 105 -2 145 0 39 1 7 3 -73 3 -80 0 -112 -2 -72 -3z"/>
<path d="M2691 4008 l1 -43 13 40 c7 22 13 32 14 22 1 -21 21 -13 21 9 0 8
-10 14 -25 14 -23 0 -25 -4 -24 -42z"/>
<path d="M2751 4008 c0 -33 2 -38 9 -23 12 28 12 65 0 65 -5 0 -10 -19 -9 -42z"/>
<path d="M2780 4030 c0 -11 5 -20 10 -20 6 0 10 9 10 20 0 11 -4 20 -10 20 -5
0 -10 -9 -10 -20z"/>
<path d="M2810 4010 c0 -22 5 -40 10 -40 6 0 10 18 10 40 0 22 -4 40 -10 40
-5 0 -10 -18 -10 -40z"/>
<path d="M2840 4030 c0 -13 7 -20 19 -20 12 0 21 -8 24 -22 2 -13 5 -4 6 20 1
39 -1 42 -24 42 -18 0 -25 -5 -25 -20z"/>
<path d="M2900 4030 c0 -14 6 -20 17 -18 11 2 19 -6 24 -22 6 -20 7 -17 8 18
1 38 -1 42 -24 42 -19 0 -25 -5 -25 -20z"/>
<path d="M5921 4034 c0 -11 3 -14 6 -6 3 7 2 16 -1 19 -3 4 -6 -2 -5 -13z"/>
<path d="M6282 3995 c0 -16 2 -22 5 -12 2 9 2 23 0 30 -3 6 -5 -1 -5 -18z"/>
<path d="M5920 3957 c-1 -40 79 -137 113 -137 7 0 -1 8 -18 19 -42 25 -65 53
-81 98 -7 21 -13 30 -14 20z"/>
<path d="M6271 3944 c0 -11 3 -14 6 -6 3 7 2 16 -1 19 -3 4 -6 -2 -5 -13z"/>
<path d="M6241 3889 c-12 -16 -37 -39 -54 -50 -18 -10 -27 -19 -20 -19 15 0
80 56 94 81 15 28 6 23 -20 -12z"/>
<path d="M4953 3873 c9 -2 23 -2 30 0 6 3 -1 5 -18 5 -16 0 -22 -2 -12 -5z"/>
<path d="M4875 3851 c-40 -24 -71 -60 -84 -94 -13 -35 -14 -107 -2 -126 6 -10
8 -1 4 26 -12 90 24 159 102 194 22 10 33 19 25 19 -8 0 -28 -8 -45 -19z"/>
<path d="M5036 3851 c22 -10 53 -34 68 -52 15 -19 23 -25 18 -14 -19 37 -83
85 -114 85 -7 0 5 -9 28 -19z"/>
<path d="M2641 3840 c-114 -49 -157 -179 -92 -282 81 -127 268 -112 332 27 25
54 24 102 -3 155 -35 68 -86 103 -156 107 -31 1 -68 -2 -81 -7z m168 -38 c51
-41 73 -84 73 -141 0 -56 -19 -99 -62 -135 -88 -74 -219 -46 -269 56 -62 128
34 268 173 254 35 -4 61 -14 85 -34z"/>
<path d="M2678 3746 c-25 -18 -23 -39 2 -31 19 6 20 2 20 -59 0 -59 -2 -66
-20 -66 -11 0 -20 -7 -20 -15 0 -12 13 -15 60 -15 47 0 60 3 60 15 0 8 -9 15
-20 15 -18 0 -20 7 -20 85 0 82 -1 85 -22 85 -13 0 -31 -7 -40 -14z"/>
<path d="M6073 3813 c15 -2 39 -2 55 0 15 2 2 4 -28 4 -30 0 -43 -2 -27 -4z"/>
<path d="M4907 3784 c-19 -19 -6 -33 27 -27 37 6 55 -9 36 -32 -6 -8 -21 -15
-32 -17 -30 -4 -35 -28 -6 -28 33 0 51 -14 46 -36 -3 -15 -12 -19 -41 -19 -28
0 -37 -4 -35 -15 5 -25 83 -25 107 -1 26 26 26 46 2 70 -17 17 -17 20 -3 35
12 12 14 22 6 43 -8 24 -15 28 -55 31 -24 2 -48 0 -52 -4z"/>
<path d="M6655 3746 c-15 -15 -25 -36 -25 -54 0 -21 -6 -31 -20 -35 -11 -3
-20 -10 -20 -17 0 -7 9 -14 20 -17 18 -5 20 -14 20 -104 0 -92 1 -99 20 -99
19 0 20 7 20 99 l0 100 28 3 c16 2 27 9 27 18 0 9 -11 16 -27 18 -23 3 -28 8
-28 31 0 35 22 55 50 46 18 -6 21 -3 18 12 -5 29 -53 29 -83 -1z"/>
<path d="M6907 3764 c-4 -4 -7 -83 -7 -176 0 -162 1 -168 20 -168 20 0 20 5
18 172 -3 161 -9 194 -31 172z"/>
<path d="M6332 3728 c2 -13 10 -23 18 -23 8 0 16 10 18 23 3 17 -2 22 -18 22
-16 0 -21 -5 -18 -22z"/>
<path d="M6782 3728 c2 -13 10 -23 18 -23 8 0 16 10 18 23 3 17 -2 22 -18 22
-16 0 -21 -5 -18 -22z"/>
<path d="M6070 3580 l0 -160 60 0 c83 0 125 19 139 63 14 41 2 80 -29 97 -19
10 -20 14 -7 28 23 27 27 49 16 82 -15 41 -36 50 -113 50 l-66 0 0 -160z m121
120 c13 -7 19 -21 19 -45 0 -40 -24 -58 -73 -53 -31 3 -32 4 -35 56 l-3 52 36
0 c20 0 45 -5 56 -10z m21 -147 c22 -20 24 -66 2 -84 -9 -7 -37 -13 -62 -13
l-47 -1 -3 58 -3 57 47 0 c30 0 54 -6 66 -17z"/>
<path d="M5143 3690 c0 -25 2 -35 4 -22 2 12 2 32 0 45 -2 12 -4 2 -4 -23z"/>
<path d="M6460 3691 c0 -24 -4 -31 -20 -31 -12 0 -20 -7 -20 -16 0 -9 9 -18
20 -21 18 -5 20 -14 20 -88 0 -93 13 -115 68 -115 40 0 44 27 5 32 -28 3 -28
4 -31 86 l-3 82 31 0 c23 0 30 4 30 20 0 15 -7 20 -29 20 -25 0 -30 4 -33 27
-2 17 -10 29 -20 31 -14 3 -18 -3 -18 -27z"/>
<path d="M6330 3541 c0 -115 1 -121 20 -121 20 0 21 5 18 117 -3 103 -5 118
-20 121 -16 3 -18 -8 -18 -117z"/>
<path d="M6780 3541 c0 -115 1 -121 20 -121 20 0 21 5 18 117 -3 103 -5 118
-20 121 -16 3 -18 -8 -18 -117z"/>
<path d="M7039 3631 c-25 -25 -29 -37 -29 -85 0 -66 14 -100 47 -115 45 -20
143 -11 143 14 0 10 -13 12 -55 8 -63 -7 -95 12 -95 53 0 22 4 23 78 26 l77 3
-1 39 c-3 83 -104 117 -165 57z m113 -18 c10 -9 18 -24 18 -35 0 -15 -8 -18
-60 -18 -49 0 -60 3 -60 17 0 46 66 69 102 36z"/>
<path d="M4809 3594 c12 -26 68 -74 84 -74 7 0 -2 9 -19 19 -17 10 -41 32 -53
47 -14 18 -18 21 -12 8z"/>
<path d="M5110 3590 c-6 -11 -27 -31 -48 -45 -20 -14 -31 -25 -25 -25 15 0 71
47 84 71 5 10 7 19 5 19 -3 0 -10 -9 -16 -20z"/>
<path d="M4918 3513 c7 -3 16 -2 19 1 4 3 -2 6 -13 5 -11 0 -14 -3 -6 -6z"/>
<path d="M4998 3513 c7 -3 16 -2 19 1 4 3 -2 6 -13 5 -11 0 -14 -3 -6 -6z"/>
<path d="M3820 3427 c0 -2 25 -73 55 -158 30 -85 55 -155 55 -157 0 -2 12 -2
26 0 24 3 30 14 74 138 68 193 65 180 42 180 -17 0 -27 -21 -63 -127 -23 -71
-44 -132 -47 -137 -3 -5 -26 51 -52 125 -39 112 -51 135 -68 137 -12 2 -22 2
-22 -1z"/>
<path d="M4150 3269 c0 -147 1 -160 18 -157 14 3 18 16 20 76 l3 72 74 0 75 0
0 -76 c0 -66 2 -75 18 -72 15 3 17 20 20 161 2 152 2 157 -18 157 -18 0 -20
-6 -20 -65 l0 -65 -75 0 -75 0 0 65 c0 58 -2 65 -20 65 -19 0 -20 -7 -20 -161z"/>
<path d="M4470 3269 l0 -162 76 5 c114 8 164 57 164 163 0 104 -56 155 -172
155 l-68 0 0 -161z m141 115 c53 -27 74 -110 45 -179 -18 -42 -42 -55 -100
-55 l-46 0 0 125 0 125 35 0 c20 0 50 -7 66 -16z"/>
<path d="M4790 3270 l0 -160 81 0 c71 0 80 2 77 18 -2 13 -15 18 -61 20 l-57
3 0 139 c0 133 -1 140 -20 140 -19 0 -20 -7 -20 -160z"/>
<path d="M1463 3403 c-20 -7 -18 -259 2 -266 8 -4 17 -2 20 3 3 5 18 4 35 -2
95 -32 142 144 50 182 -21 9 -34 9 -48 1 -31 -16 -32 -15 -32 33 0 46 -6 57
-27 49z m111 -145 c13 -37 -3 -82 -30 -86 -47 -7 -72 62 -37 100 23 26 56 19
67 -14z"/>
<path d="M1120 3266 l0 -126 65 0 c51 0 65 3 65 15 0 11 -12 15 -45 15 l-44 0
-3 107 c-3 93 -5 108 -20 111 -16 3 -18 -8 -18 -122z"/>
<path d="M1638 3385 c-10 -10 76 -244 91 -250 24 -9 38 14 80 133 31 89 36
114 26 119 -23 8 -30 -2 -60 -96 -16 -50 -31 -91 -35 -91 -3 0 -19 42 -36 92
-28 85 -47 112 -66 93z"/>
<path d="M1880 3266 c0 -123 4 -142 28 -127 9 5 12 40 10 127 -3 104 -5 119
-20 122 -16 3 -18 -8 -18 -122z"/>
<path d="M1987 3384 c-4 -4 -7 -61 -7 -126 l0 -118 70 0 c56 0 70 3 70 15 0
11 -12 15 -50 15 l-50 0 0 39 c0 40 0 40 42 43 59 4 63 28 4 28 -46 0 -46 0
-46 35 l0 35 51 0 c43 0 50 3 47 18 -3 13 -15 18 -64 20 -33 2 -63 0 -67 -4z"/>
<path d="M2150 3383 c-1 -26 67 -244 77 -248 28 -10 41 9 58 85 10 44 21 80
25 80 4 0 15 -34 26 -76 18 -73 37 -101 61 -86 12 8 73 204 73 234 0 13 -6 18
-17 16 -12 -2 -24 -31 -42 -102 l-26 -100 -13 50 c-41 147 -43 154 -62 154
-14 0 -22 -18 -40 -90 -12 -49 -25 -90 -29 -90 -4 0 -18 41 -30 90 -19 73 -27
90 -42 90 -11 0 -19 -3 -19 -7z"/>
<path d="M2578 3385 c-10 -10 76 -244 91 -250 24 -9 38 14 80 133 31 89 36
114 26 119 -23 8 -30 -2 -60 -96 -16 -50 -31 -91 -35 -91 -3 0 -19 42 -36 92
-28 85 -47 112 -66 93z"/>
<path d="M2810 3266 c0 -123 4 -142 28 -127 9 5 12 40 10 127 -3 104 -5 119
-20 122 -16 3 -18 -8 -18 -122z"/>
<path d="M1301 3318 c-43 -23 -36 -36 16 -35 36 2 48 -2 51 -14 2 -12 -7 -18
-37 -23 -51 -8 -76 -41 -62 -78 11 -30 49 -42 85 -28 16 6 27 6 31 -1 4 -5 11
-7 16 -4 14 9 11 148 -3 168 -17 23 -68 30 -97 15z m69 -118 c0 -29 -38 -46
-58 -26 -13 12 -13 18 -2 30 19 24 60 21 60 -4z"/>
<path d="M1590 2645 l0 -305 750 0 750 0 0 305 0 305 -750 0 -750 0 0 -305z
m1490 0 l0 -295 -740 0 -740 0 0 295 0 295 740 0 740 0 0 -295z"/>
<path d="M1951 2660 l-1 -66 30 -2 c21 -2 32 4 41 19 16 31 -3 69 -35 69 -18
0 -26 6 -29 23 -2 12 -5 -7 -6 -43z m54 -26 c0 -32 -21 -39 -38 -12 -8 12 -7
21 3 32 19 24 35 14 35 -20z"/>
<path d="M1782 2653 l-2 -63 33 1 c29 1 30 2 7 8 -22 6 -26 14 -31 61 l-6 55
-1 -62z"/>
<path d="M2040 2703 c0 -19 39 -108 48 -111 5 -1 17 16 25 40 8 24 18 51 22
61 4 9 3 17 -3 17 -6 0 -16 -17 -22 -37 -18 -57 -26 -59 -40 -9 -7 26 -17 46
-21 46 -5 0 -9 -3 -9 -7z"/>
<path d="M2160 2650 c0 -33 4 -60 10 -60 6 0 10 27 10 60 0 33 -4 60 -10 60
-6 0 -10 -27 -10 -60z"/>
<path d="M2210 2650 l0 -60 38 1 c30 2 32 3 10 6 -36 6 -40 49 -5 56 l22 4
-22 2 c-35 2 -31 39 5 44 22 3 20 4 -10 6 l-38 1 0 -60z"/>
<path d="M2308 2650 c18 -66 37 -77 47 -27 12 52 19 55 30 13 6 -22 16 -41 22
-43 6 -2 18 20 27 50 19 64 19 67 7 67 -5 0 -12 -17 -16 -37 -11 -58 -18 -62
-30 -14 -14 60 -30 61 -45 4 l-13 -48 -14 48 c-21 69 -34 58 -15 -13z"/>
<path d="M2521 2648 c1 -35 4 -51 6 -35 3 21 10 27 29 27 13 0 24 5 24 10 0 6
-12 10 -26 10 -34 0 -29 31 6 41 23 6 22 7 -7 8 l-33 1 1 -62z"/>
<path d="M2611 2648 c1 -41 3 -55 8 -38 4 15 16 27 31 30 20 5 25 12 25 35 0
26 -4 30 -32 33 l-33 3 1 -63z m47 24 c3 -17 -2 -22 -17 -22 -16 0 -21 6 -21
26 0 33 33 30 38 -4z"/>
<path d="M2712 2698 c-16 -16 -16 -80 0 -96 7 -7 27 -12 45 -12 31 0 33 2 33
35 0 28 -4 35 -20 35 -11 0 -20 -4 -20 -10 0 -5 7 -10 15 -10 20 0 19 -29 0
-37 -19 -7 -55 24 -55 48 0 27 30 51 57 46 12 -2 23 0 23 4 0 13 -64 11 -78
-3z"/>
<path d="M2833 2650 c-12 -33 -17 -60 -12 -60 5 0 12 7 15 15 4 8 17 15 30 15
14 0 27 -7 30 -15 4 -8 10 -15 14 -15 5 0 0 27 -12 60 -11 33 -25 60 -31 60
-7 0 -22 -27 -34 -60z m47 4 c0 -8 -7 -14 -15 -14 -17 0 -18 2 -9 24 7 18 24
12 24 -10z"/>
<path d="M1855 2671 c-4 -7 2 -10 16 -8 29 3 36 -21 7 -25 -15 -2 -23 -10 -23
-23 0 -15 8 -21 33 -23 l33 -3 -3 43 c-3 38 -6 43 -30 46 -14 2 -29 -2 -33 -7z
m43 -53 c-6 -18 -28 -21 -28 -4 0 9 7 16 16 16 9 0 14 -5 12 -12z"/>
<path d="M6500 2881 c0 -22 -3 -48 -7 -58 -4 -10 8 -1 27 20 43 50 78 67 135
67 82 0 158 -55 172 -122 3 -15 9 -31 14 -33 9 -6 -3 38 -21 75 -6 14 -31 40
-55 58 -39 28 -52 32 -107 32 -56 0 -68 -4 -98 -30 -44 -37 -53 -37 -48 0 3
17 1 30 -4 30 -4 0 -8 -18 -8 -39z"/>
<path d="M6610 2785 l0 -55 34 0 c38 0 51 -19 32 -45 -9 -13 -22 -16 -45 -13
-25 4 -31 1 -29 -11 2 -12 15 -16 47 -16 36 0 47 5 65 28 19 26 19 30 5 55
-10 19 -24 28 -47 30 -26 3 -32 8 -32 28 0 21 5 24 35 24 24 0 35 5 35 15 0
11 -12 15 -50 15 l-50 0 0 -55z"/>
<path d="M6472 2740 c0 -19 2 -27 5 -17 2 9 2 25 0 35 -3 9 -5 1 -5 -18z"/>
<path d="M6833 2705 c-3 -9 -3 -18 -1 -21 3 -3 8 4 11 16 6 23 -1 27 -10 5z"/>
<path d="M6486 2680 c4 -14 9 -58 11 -97 l5 -73 -311 0 -311 0 0 -305 0 -305
310 0 310 0 0 -80 0 -80 -77 -1 -78 0 158 -80 157 -79 153 77 c111 57 145 78
127 80 -73 7 -130 7 -130 1 0 -5 28 -8 63 -9 l62 0 -137 -70 -138 -69 -137 69
-138 70 63 0 62 1 0 85 0 85 430 0 430 0 0 305 0 305 -430 0 -430 0 0 57 0 56
23 -20 c12 -11 29 -23 37 -28 8 -4 0 5 -19 21 -18 15 -42 46 -53 68 -11 23
-16 30 -12 16z m874 -475 l0 -295 -735 0 -735 0 0 295 0 295 735 0 735 0 0
-295z"/>
<path d="M6140 2210 c0 -47 3 -60 15 -60 9 0 15 9 15 25 0 18 5 25 20 25 11 0
20 5 20 10 0 6 -9 10 -20 10 -11 0 -20 7 -20 15 0 8 9 15 20 15 11 0 20 5 20
10 0 6 -16 10 -35 10 l-35 0 0 -60z"/>
<path d="M6237 2263 c-4 -3 -7 -30 -7 -60 0 -40 4 -53 15 -53 8 0 15 9 15 19
0 12 9 21 24 25 49 12 39 76 -13 76 -15 0 -31 -3 -34 -7z m51 -30 c-5 -25 -28
-28 -28 -4 0 12 6 21 16 21 9 0 14 -7 12 -17z"/>
<path d="M6346 2255 c-9 -9 -16 -29 -16 -45 0 -39 25 -62 64 -58 27 3 31 7 34
36 3 29 1 32 -22 32 -14 0 -26 -4 -26 -10 0 -5 7 -10 15 -10 8 0 15 -7 15 -16
0 -21 -39 -15 -54 9 -17 26 5 52 43 52 39 0 35 19 -6 23 -18 2 -37 -3 -47 -13z"/>
<path d="M6475 2237 c-21 -51 -28 -87 -17 -87 5 0 12 7 16 15 3 8 15 15 26 15
11 0 23 -7 26 -15 4 -8 12 -15 19 -15 11 0 9 14 -7 60 -23 68 -42 77 -63 27z
m33 -36 c-15 -5 -21 7 -13 26 7 17 8 17 15 -2 4 -11 3 -22 -2 -24z"/>
<path d="M6610 2260 c0 -5 7 -10 15 -10 11 0 15 -12 15 -50 0 -27 5 -50 10
-50 6 0 10 23 10 50 0 43 3 50 20 50 11 0 20 5 20 10 0 6 -20 10 -45 10 -25 0
-45 -4 -45 -10z"/>
<path d="M7060 2243 c-10 -12 -11 -18 -2 -21 7 -2 12 -19 12 -38 0 -27 4 -34
20 -34 11 0 20 5 20 10 0 6 -4 10 -10 10 -14 0 -12 48 2 52 9 3 8 9 -4 21 -20
20 -19 20 -38 0z"/>
<path d="M6715 2231 c-4 -7 4 -11 19 -11 32 0 34 -17 4 -22 -15 -2 -23 -10
-23 -23 0 -15 8 -21 33 -23 l33 -3 -3 43 c-3 38 -6 43 -30 46 -14 2 -29 -2
-33 -7z m43 -52 c-2 -6 -8 -10 -13 -10 -5 0 -11 4 -13 10 -2 6 4 11 13 11 9 0
15 -5 13 -11z"/>
<path d="M6810 2195 c0 -25 5 -45 10 -45 6 0 10 14 10 30 0 18 6 33 15 36 24
9 17 24 -10 24 -23 0 -25 -4 -25 -45z"/>
<path d="M6876 2232 c-2 -4 -6 -30 -7 -57 l-3 -50 33 -3 c37 -4 57 14 39 35
-6 7 -20 13 -32 14 l-21 0 22 9 c19 8 43 38 43 54 0 9 -68 7 -74 -2z m44 -23
c0 -5 -7 -9 -15 -9 -15 0 -20 12 -9 23 8 8 24 -1 24 -14z m0 -69 c0 -5 -7 -10
-15 -10 -8 0 -15 5 -15 10 0 6 7 10 15 10 8 0 15 -4 15 -10z"/>
<path d="M6972 2228 c-15 -15 -16 -50 0 -66 15 -15 68 -16 68 -1 0 5 -10 9
-22 7 -11 -2 -23 3 -25 10 -3 7 5 12 22 12 22 0 26 4 23 23 -3 25 -45 36 -66
15z m48 -19 c0 -5 -7 -9 -15 -9 -15 0 -20 12 -9 23 8 8 24 -1 24 -14z"/>
<path d="M6802 2635 c-12 -19 -39 -43 -59 -54 -21 -11 -33 -20 -27 -21 28 -1
127 90 113 104 -2 3 -14 -11 -27 -29z"/>
<path d="M3850 2634 c0 -4 18 -28 40 -54 22 -26 40 -52 40 -58 0 -6 -100 -90
-222 -188 -159 -127 -246 -189 -303 -216 -44 -22 -69 -36 -55 -32 66 17 174
89 375 250 121 97 222 177 224 179 2 2 -13 24 -33 48 -20 24 -36 49 -36 54 0
6 -7 13 -15 17 -8 3 -15 3 -15 0z"/>
<path d="M3989 2570 c57 -28 106 -49 108 -47 3 4 -169 86 -197 93 -8 3 32 -18
89 -46z"/>
<path d="M6638 2553 c12 -2 32 -2 45 0 12 2 2 4 -23 4 -25 0 -35 -2 -22 -4z"/>
<path d="M4130 2505 c14 -7 28 -24 31 -37 7 -22 7 -22 8 -1 1 21 -32 53 -54
53 -5 -1 1 -7 15 -15z"/>
<path d="M4172 2420 c0 -14 2 -19 5 -12 2 6 2 18 0 25 -3 6 -5 1 -5 -13z"/>
<path d="M4181 2374 c0 -11 3 -14 6 -6 3 7 2 16 -1 19 -3 4 -6 -2 -5 -13z"/>
<path d="M4192 2330 c0 -14 2 -19 5 -12 2 6 2 18 0 25 -3 6 -5 1 -5 -13z"/>
<path d="M4202 2280 c0 -14 2 -19 5 -12 2 6 2 18 0 25 -3 6 -5 1 -5 -13z"/>
<path d="M3925 2119 c-230 -184 -256 -204 -357 -260 -40 -22 -64 -38 -53 -34
60 19 192 110 393 269 l225 180 21 -25 c12 -13 33 -40 48 -59 l28 -35 0 30 c0
20 -3 26 -9 17 -6 -9 -17 -1 -42 32 -19 25 -38 45 -44 45 -5 0 -100 -72 -210
-160z"/>
<path d="M4211 2234 c0 -11 3 -14 6 -6 3 7 2 16 -1 19 -3 4 -6 -2 -5 -13z"/>
<path d="M2928 2068 c5 -5 16 -8 23 -6 8 3 3 7 -10 11 -17 4 -21 3 -13 -5z"/>
<path d="M2819 2057 c-43 -20 -99 -96 -99 -134 1 -10 7 0 15 21 8 22 27 52 43
68 16 16 46 35 68 43 21 8 30 14 19 14 -11 0 -32 -6 -46 -12z"/>
<path d="M3268 2063 c7 -3 16 -2 19 1 4 3 -2 6 -13 5 -11 0 -14 -3 -6 -6z"/>
<path d="M3001 2036 c20 -14 46 -44 58 -68 11 -24 21 -36 21 -27 0 21 -54 95
-79 108 -36 20 -36 11 0 -13z"/>
<path d="M3218 2053 c6 -2 18 -2 25 0 6 3 1 5 -13 5 -14 0 -19 -2 -12 -5z"/>
<path d="M3138 2043 c12 -2 32 -2 45 0 12 2 2 4 -23 4 -25 0 -35 -2 -22 -4z"/>
<path d="M2330 1890 c0 -112 3 -152 13 -155 6 -3 118 -6 248 -7 l237 -3 -28
20 c-31 22 -57 61 -70 103 -7 22 -8 23 -9 6 -1 -11 12 -41 29 -67 l30 -47
-221 0 -220 0 3 150 c2 83 0 150 -4 150 -5 0 -8 -68 -8 -150z"/>
<path d="M2853 1983 c-27 -10 -13 -31 20 -29 47 2 48 -32 3 -88 -54 -65 -49
-76 29 -76 51 0 65 3 65 15 0 11 -11 15 -40 15 -22 0 -40 3 -40 6 0 4 16 24
35 45 36 41 46 84 23 107 -12 12 -71 15 -95 5z"/>
<path d="M3082 1890 c0 -19 2 -27 5 -17 2 9 2 25 0 35 -3 9 -5 1 -5 -18z"/>
<path d="M3061 1815 c-12 -35 -55 -74 -101 -95 l-25 -11 25 7 c14 4 59 10 100
14 l75 7 -58 1 -59 2 25 30 c25 29 43 68 35 76 -2 2 -10 -12 -17 -31z"/>
<path d="M3460 1810 c-8 -5 -10 -10 -5 -10 6 0 17 5 25 10 8 5 11 10 5 10 -5
0 -17 -5 -25 -10z"/>
<path d="M3365 1780 c-13 -5 -14 -9 -5 -9 8 0 24 4 35 9 13 5 14 9 5 9 -8 0
-24 -4 -35 -9z"/>
<path d="M3318 1763 c7 -3 16 -2 19 1 4 3 -2 6 -13 5 -11 0 -14 -3 -6 -6z"/>
<path d="M3263 1753 c9 -2 23 -2 30 0 6 3 -1 5 -18 5 -16 0 -22 -2 -12 -5z"/>
<path d="M3166 1742 c-2 -4 13 -6 35 -4 21 2 39 6 39 8 0 7 -69 4 -74 -4z"/>
<path d="M2848 1713 c7 -3 16 -2 19 1 4 3 -2 6 -13 5 -11 0 -14 -3 -6 -6z"/>
<path d="M2888 1703 c6 -2 18 -2 25 0 6 3 1 5 -13 5 -14 0 -19 -2 -12 -5z"/>
<path d="M335 1448 c-3 -7 -4 -276 -3 -598 l3 -585 1200 0 1200 0 0 595 0 595
-1198 3 c-953 2 -1199 0 -1202 -10z m2365 -588 l0 -550 -1165 0 -1165 0 0 550
0 550 1165 0 1165 0 0 -550z"/>
<path d="M564 1302 c-27 -18 -34 -56 -34 -190 0 -126 2 -142 21 -166 l20 -26
159 0 159 0 20 26 c19 24 21 40 21 166 0 134 -7 172 -34 190 -6 4 -81 8 -166
8 -85 0 -160 -4 -166 -8z"/>
<path d="M2400 1177 c0 -18 -5 -23 -21 -23 -28 1 -44 -24 -35 -57 5 -23 11
-26 41 -25 l35 1 0 64 c0 35 -4 63 -10 63 -5 0 -10 -10 -10 -23z m-5 -63 c0
-10 -8 -20 -17 -22 -18 -3 -26 27 -11 42 12 11 28 0 28 -20z"/>
<path d="M1182 1139 c3 -59 20 -76 61 -65 25 6 27 10 27 61 0 30 -4 55 -10 55
-5 0 -10 -23 -10 -51 0 -47 -2 -50 -22 -47 -20 3 -23 10 -26 51 -2 26 -8 47
-13 47 -6 0 -9 -22 -7 -51z"/>
<path d="M1606 1168 c-33 -46 -6 -98 50 -98 32 0 34 2 34 35 0 28 -4 35 -20
35 -11 0 -20 -4 -20 -10 0 -5 5 -10 10 -10 6 0 10 -7 10 -15 0 -22 -38 -18
-50 5 -16 30 4 60 40 60 17 0 30 5 30 10 0 6 -15 10 -34 10 -25 0 -39 -7 -50
-22z"/>
<path d="M2177 1166 c-3 -7 -1 -32 5 -55 8 -30 16 -41 29 -41 11 0 19 5 19 10
0 6 -4 10 -10 10 -14 0 -12 48 2 52 9 3 8 9 -4 21 -20 21 -34 22 -41 3z"/>
<path d="M1303 1144 c-4 -11 2 -23 17 -34 15 -11 19 -19 11 -24 -6 -4 -15 -4
-21 -1 -5 3 -10 1 -10 -4 0 -16 36 -13 50 3 9 12 7 18 -9 33 -24 20 -28 38 -6
29 8 -3 15 -1 15 4 0 17 -40 11 -47 -6z"/>
<path d="M1378 1135 c-8 -19 -9 -31 -1 -43 13 -21 51 -28 67 -12 8 9 6 11 -10
6 -13 -4 -26 -1 -34 9 -11 13 -8 15 19 15 28 0 32 3 29 23 -5 35 -54 36 -70 2z
m52 -6 c0 -5 -7 -9 -15 -9 -15 0 -20 12 -9 23 8 8 24 -1 24 -14z"/>
<path d="M1470 1114 c0 -24 5 -44 10 -44 6 0 10 14 10 30 0 18 6 33 15 36 23
9 18 22 -10 22 -23 0 -25 -4 -25 -44z"/>
<path d="M1724 1147 c-3 -9 -4 -28 -2 -44 2 -24 8 -28 36 -31 18 -2 32 1 32 8
0 6 -6 10 -12 9 -24 -3 -38 1 -38 11 0 6 12 10 26 10 21 0 25 4 22 23 -4 27
-54 38 -64 14z m46 -18 c0 -5 -7 -9 -15 -9 -15 0 -20 12 -9 23 8 8 24 -1 24
-14z"/>
<path d="M1820 1113 c0 -24 5 -43 10 -43 6 0 10 16 10 35 0 24 5 35 15 35 10
0 15 -11 15 -35 0 -19 5 -35 11 -35 6 0 9 17 7 43 -3 40 -4 42 -35 42 -32 1
-33 0 -33 -42z"/>
<path d="M1924 1147 c-3 -9 -4 -28 -2 -44 2 -24 8 -28 36 -31 18 -2 32 1 32 8
0 6 -6 10 -12 9 -24 -3 -38 1 -38 11 0 6 12 10 26 10 21 0 25 4 22 23 -4 27
-54 38 -64 14z m46 -18 c0 -5 -7 -9 -15 -9 -15 0 -20 12 -9 23 8 8 24 -1 24
-14z"/>
<path d="M2020 1113 c0 -24 5 -43 10 -43 6 0 10 14 10 30 0 18 6 33 15 36 24
10 17 24 -10 22 -22 -2 -25 -7 -25 -45z"/>
<path d="M2085 1151 c-4 -7 4 -11 19 -11 32 0 34 -17 4 -22 -15 -2 -23 -10
-23 -23 0 -15 8 -21 33 -23 l33 -3 -3 43 c-3 38 -6 43 -30 46 -14 2 -29 -2
-33 -7z m43 -52 c-2 -6 -8 -10 -13 -10 -5 0 -11 4 -13 10 -2 6 4 11 13 11 9 0
15 -5 13 -11z"/>
<path d="M2248 1135 c-8 -19 -9 -31 -1 -43 13 -21 51 -28 67 -12 8 9 6 11 -10
6 -13 -4 -26 -1 -34 9 -11 13 -8 15 19 15 28 0 32 3 29 23 -5 35 -54 36 -70 2z
m52 -6 c0 -5 -7 -9 -15 -9 -15 0 -20 12 -9 23 8 8 24 -1 24 -14z"/>
<path d="M550 775 c-7 -9 -11 -17 -9 -20 3 -2 10 5 17 15 14 24 10 26 -8 5z"/>
<path d="M890 786 c0 -2 8 -10 18 -17 15 -13 16 -12 3 4 -13 16 -21 21 -21 13z"/>
<path d="M2460 667 c0 -18 -5 -23 -27 -22 -26 0 -28 -3 -28 -40 0 -39 1 -40
38 -42 l37 -1 0 64 c0 36 -4 64 -10 64 -5 0 -10 -10 -10 -23z m-5 -62 c0 -11
-8 -21 -17 -23 -14 -3 -18 3 -18 23 0 20 4 26 18 23 9 -2 17 -12 17 -23z"/>
<path d="M1232 623 c-22 -58 -20 -82 2 -50 17 22 45 22 62 0 23 -32 25 -6 4
51 -12 31 -27 56 -34 56 -7 0 -23 -26 -34 -57z m48 -5 c0 -5 -7 -8 -15 -8 -15
0 -20 21 -8 33 7 7 23 -11 23 -25z"/>
<path d="M1667 662 c-39 -43 -10 -106 47 -100 27 3 31 7 34 36 3 29 1 32 -22
32 -14 0 -26 -4 -26 -10 0 -5 7 -10 15 -10 8 0 15 -7 15 -16 0 -21 -39 -15
-54 9 -17 26 5 52 43 52 39 0 35 19 -5 23 -20 2 -36 -4 -47 -16z"/>
<path d="M1437 656 c-3 -7 -1 -32 5 -55 8 -30 16 -41 29 -41 11 0 19 5 19 10
0 6 -4 10 -10 10 -14 0 -12 48 2 52 9 3 8 9 -4 21 -20 21 -34 22 -41 3z"/>
<path d="M2237 657 c-10 -26 8 -92 26 -95 9 -2 17 1 17 7 0 6 -4 11 -10 11
-14 0 -12 48 2 52 9 3 8 9 -4 21 -20 20 -24 21 -31 4z"/>
<path d="M1342 608 c3 -41 4 -43 36 -43 31 -1 32 0 32 42 0 24 -4 43 -10 43
-5 0 -10 -16 -10 -35 0 -24 -5 -35 -15 -35 -10 0 -15 11 -15 35 0 19 -5 35
-11 35 -6 0 -9 -17 -7 -42z"/>
<path d="M1508 624 c-14 -31 -1 -57 31 -62 28 -4 51 14 51 42 0 50 -62 65 -82
20z m60 -17 c4 -20 -25 -34 -40 -19 -15 15 -1 44 19 40 10 -2 19 -11 21 -21z"/>
<path d="M1778 625 c-8 -19 -9 -31 -1 -43 13 -21 51 -28 67 -12 8 9 6 11 -10
6 -13 -4 -26 -1 -34 9 -11 13 -8 15 19 15 28 0 32 3 29 23 -5 35 -54 36 -70 2z
m52 -6 c0 -5 -7 -9 -15 -9 -15 0 -20 12 -9 23 8 8 24 -1 24 -14z"/>
<path d="M1870 604 c0 -51 17 -60 22 -12 2 22 9 34 21 36 14 3 17 -4 17 -32 0
-20 5 -36 11 -36 6 0 9 17 7 43 -3 41 -4 42 -40 44 l-38 1 0 -44z"/>
<path d="M1978 625 c-8 -19 -9 -31 -1 -43 13 -21 51 -28 67 -12 8 9 6 11 -10
6 -13 -4 -26 -1 -34 9 -11 13 -8 15 19 15 28 0 32 3 29 23 -5 35 -54 36 -70 2z
m52 -6 c0 -5 -7 -9 -15 -9 -15 0 -20 12 -9 23 8 8 24 -1 24 -14z"/>
<path d="M2070 604 c0 -24 5 -44 10 -44 6 0 10 14 10 30 0 18 6 33 15 36 23 9
18 22 -10 22 -23 0 -25 -4 -25 -44z"/>
<path d="M2145 641 c-4 -7 4 -11 19 -11 32 0 34 -17 4 -22 -15 -2 -24 -11 -26
-25 -3 -20 1 -22 33 -21 36 1 36 2 33 42 -3 36 -6 41 -30 44 -14 2 -29 -2 -33
-7z m43 -53 c-6 -18 -28 -21 -28 -4 0 9 7 16 16 16 9 0 14 -5 12 -12z"/>
<path d="M2312 638 c-29 -29 -7 -78 35 -78 13 0 23 5 23 10 0 6 -6 10 -12 9
-24 -3 -38 1 -38 11 0 6 14 10 30 10 18 0 30 5 30 13 0 18 -21 37 -40 37 -9 0
-21 -5 -28 -12z m46 -16 c2 -7 -6 -12 -17 -12 -21 0 -27 11 -14 24 9 9 26 2
31 -12z"/>
<path d="M540 446 c0 -2 8 -10 18 -17 15 -13 16 -12 3 4 -13 16 -21 21 -21 13z"/>
<path d="M899 433 c-13 -16 -12 -17 4 -4 16 13 21 21 13 21 -2 0 -10 -8 -17
-17z"/>
<path d="M4850 1350 c0 -11 7 -20 15 -20 8 0 15 9 15 20 0 11 -7 20 -15 20 -8
0 -15 -9 -15 -20z"/>
<path d="M4927 1356 c-6 -15 1 -26 15 -26 11 0 10 27 -1 34 -5 3 -11 0 -14 -8z"/>
<path d="M4953 1303 c9 -2 23 -2 30 0 6 3 -1 5 -18 5 -16 0 -22 -2 -12 -5z"/>
<path d="M5685 1300 c-533 -34 -585 -39 -585 -54 0 -10 14 -12 50 -8 28 2 50
1 50 -4 0 -24 -22 -84 -30 -84 -6 0 -10 -113 -10 -290 0 -160 4 -290 9 -290 5
0 14 -14 21 -30 9 -23 10 -33 1 -44 -9 -11 -7 -15 11 -19 12 -4 27 -2 33 3 13
10 185 39 300 49 44 4 90 13 102 20 13 6 57 13 98 14 l75 2 0 65 c0 36 3 131
7 211 5 114 3 148 -7 154 -9 6 -11 4 -5 -6 8 -12 6 -12 -8 -1 -9 8 -21 11 -27
7 -5 -3 -10 -2 -10 4 0 5 14 12 30 16 24 5 30 11 28 28 -2 12 -7 25 -13 29 -6
5 -5 8 3 8 10 0 12 27 11 115 0 63 -4 114 -8 114 -3 -1 -60 -5 -126 -9z m102
-102 c-2 -18 -4 -4 -4 32 0 36 2 50 4 33 2 -18 2 -48 0 -65z m-139 55 c-2 -13
-15 -19 -46 -21 -37 -3 -42 -1 -42 17 0 18 6 21 46 21 38 0 45 -3 42 -17z m44
-11 c-7 -2 -12 -9 -12 -16 0 -7 -6 -13 -14 -13 -10 0 -9 8 7 29 13 18 23 24
26 17 2 -7 -1 -15 -7 -17z m-122 -47 c0 -2 -7 -5 -15 -9 -9 -3 -15 0 -15 9 0
9 6 12 15 9 8 -4 15 -7 15 -9z m-63 -11 c-3 -3 -12 -4 -19 -1 -8 3 -5 6 6 6
11 1 17 -2 13 -5z m-103 -17 c3 3 6 1 6 -5 0 -6 -4 -14 -10 -17 -5 -3 -10 -1
-10 5 0 7 -6 10 -13 7 -8 -3 -14 1 -14 8 0 10 5 11 17 5 10 -5 20 -6 24 -3z
m-105 -29 c-2 -32 -2 -32 -6 -5 -3 18 -9 27 -17 24 -7 -3 -19 -1 -27 4 -10 6
-4 9 19 9 30 0 32 -2 31 -32z m128 10 c-3 -8 -6 -5 -6 6 -1 11 2 17 5 13 3 -3
4 -12 1 -19z m140 -48 c-1 -22 -5 -40 -9 -40 -4 0 -8 18 -8 40 0 22 4 40 9 40
5 0 8 -18 8 -40z m-82 0 c-3 -5 -12 -10 -18 -10 -7 0 -6 4 3 10 19 12 23 12
15 0z m30 -10 c-3 -5 -1 -10 4 -10 6 0 11 -5 11 -10 0 -6 -8 -5 -19 2 -19 12
-19 28 0 28 6 0 7 -4 4 -10z m-318 -32 c-3 -7 -5 -2 -5 12 0 14 2 19 5 13 2
-7 2 -19 0 -25z m263 -22 c0 -6 -5 -3 -11 8 -9 15 -13 16 -20 5 -6 -10 -9 -5
-9 15 l0 29 20 -23 c11 -13 20 -28 20 -34z m317 34 c-3 -10 0 -21 7 -24 6 -2
1 -5 -10 -5 -16 -1 -21 4 -19 22 3 28 3 27 16 27 6 0 9 -9 6 -20z m-262 -30
c3 -5 2 -10 -4 -10 -5 0 -13 5 -16 10 -3 6 -2 10 4 10 5 0 13 -4 16 -10z m141
-35 c-11 -17 -13 -25 -5 -25 7 0 10 -2 7 -5 -8 -8 -38 6 -38 17 0 5 5 6 10 3
6 -3 10 3 10 14 0 13 7 21 16 21 15 0 15 -2 0 -25z m64 -40 c0 -51 -3 -65 -15
-65 -11 0 -15 11 -15 43 0 23 -3 52 -6 65 -5 18 -2 22 15 22 19 0 21 -5 21
-65z m-190 45 c0 -5 -4 -10 -10 -10 -5 0 -10 5 -10 10 0 6 5 10 10 10 6 0 10
-4 10 -10z m57 -32 c-3 -7 -5 -2 -5 12 0 14 2 19 5 13 2 -7 2 -19 0 -25z
m-187 -4 c0 -2 -9 -4 -21 -4 -11 0 -18 4 -14 10 5 8 35 3 35 -6z m1 -41 c0
-16 1 -68 0 -116 l0 -89 21 19 c21 18 21 18 7 -4 -8 -14 -24 -23 -39 -23 -20
0 -22 2 -10 10 12 8 9 10 -12 10 -20 0 -28 -5 -29 -17 0 -11 -3 -13 -6 -5 -6
15 -37 16 -64 1 -19 -10 -20 -7 -17 108 l3 118 45 6 c94 13 100 12 101 -18z
m374 17 c3 -5 1 -10 -4 -10 -6 0 -11 5 -11 10 0 6 2 10 4 10 3 0 8 -4 11 -10z
m-115 -16 c0 -1 -13 -9 -30 -18 -24 -12 -30 -12 -30 -1 0 7 8 15 18 17 21 5
42 6 42 2z m-10 -44 c0 -5 -4 -10 -10 -10 -5 0 -10 5 -10 10 0 6 5 10 10 10 6
0 10 -4 10 -10z m35 -53 c6 -5 3 -7 -7 -3 -11 3 -18 0 -18 -7 0 -8 -4 -7 -10
3 -9 15 9 36 20 22 3 -4 10 -11 15 -15z m-98 7 c-3 -3 -12 -4 -19 -1 -8 3 -5
6 6 6 11 1 17 -2 13 -5z m-37 -54 c-8 -5 -22 -10 -30 -10 -13 0 -13 1 0 10 8
5 22 10 30 10 13 0 13 -1 0 -10z m-359 -24 c5 3 9 0 9 -5 0 -6 -7 -11 -15 -11
-8 0 -15 8 -14 18 0 10 3 12 6 4 2 -6 9 -10 14 -6z m326 -36 c-3 -11 -1 -20 4
-20 15 0 10 -27 -6 -34 -10 -4 -15 1 -15 14 0 11 -7 20 -15 20 -8 0 -15 5 -15
11 0 5 -4 7 -10 4 -5 -3 -10 -2 -10 4 0 12 18 19 49 20 19 1 22 -3 18 -19z
m-60 -41 c-1 -19 -2 -19 -14 -3 -17 23 -16 35 1 28 8 -3 14 -15 13 -25z m223
-9 c0 -5 -7 -10 -15 -10 -8 0 -15 5 -15 10 0 6 7 10 15 10 8 0 15 -4 15 -10z
m35 0 c3 -5 1 -10 -4 -10 -6 0 -11 5 -11 10 0 6 2 10 4 10 3 0 8 -4 11 -10z
m-300 -33 c-4 -8 -14 -18 -22 -21 -12 -5 -13 -4 -5 7 7 8 9 17 6 20 -3 3 -3
11 1 17 10 17 27 -3 20 -23z m285 4 c0 -5 -7 -12 -16 -15 -14 -5 -15 -4 -4 9
14 17 20 19 20 6z m-13 -73 c-3 -8 -6 -5 -6 6 -1 11 2 17 5 13 3 -3 4 -12 1
-19z m-403 -31 c2 -27 -1 -34 -13 -32 -20 2 -27 55 -10 66 18 11 21 6 23 -34z
m206 9 c0 -3 -4 -8 -10 -11 -5 -3 -10 -1 -10 4 0 6 5 11 10 11 6 0 10 -2 10
-4z"/>
<path d="M5345 890 c-3 -5 1 -10 9 -10 9 0 16 5 16 10 0 6 -4 10 -9 10 -6 0
-13 -4 -16 -10z"/>
<path d="M5830 1269 c0 -15 5 -19 15 -15 8 3 15 0 15 -7 0 -9 3 -8 9 1 4 8 12
13 17 12 5 0 10 6 12 14 3 12 -5 16 -32 16 -30 0 -36 -4 -36 -21z"/>
<path d="M4940 839 c0 -205 2 -370 4 -368 9 10 14 729 6 734 -6 4 -10 -132
-10 -366z"/>
<path d="M6985 1139 c-11 -17 1 -21 15 -4 8 9 8 15 2 15 -6 0 -14 -5 -17 -11z"/>
<path d="M7160 1131 c0 -14 18 -23 31 -15 8 4 7 9 -2 15 -18 11 -29 11 -29 0z"/>
<path d="M6947 1119 c7 -7 15 -10 18 -7 3 3 -2 9 -12 12 -14 6 -15 5 -6 -5z"/>
<path d="M6897 1113 c-4 -3 -8 -29 -9 -57 l-1 -51 -7 55 c-4 30 -8 46 -9 35
-1 -17 -3 -18 -11 -5 -6 9 -10 10 -10 3 0 -6 5 -15 10 -18 14 -9 8 -65 -7 -66
-7 -1 -19 -2 -25 -3 -16 -1 -24 -36 -9 -36 6 0 11 -8 11 -17 0 -16 -2 -16 -11
-3 -8 12 -10 12 -7 1 2 -8 12 -15 23 -17 10 -1 22 -9 26 -16 5 -7 9 -82 9
-165 0 -142 -1 -154 -20 -165 -12 -8 -21 -25 -21 -43 -2 -30 -2 -30 -9 5 l-7
35 -2 -33 c-1 -26 4 -35 19 -39 11 -3 17 -9 14 -14 -3 -5 3 -6 12 -2 12 4 15
3 10 -5 -4 -7 -3 -12 3 -12 5 0 12 6 14 13 3 6 6 -5 6 -25 1 -20 4 -43 7 -52
3 -9 1 -16 -5 -16 -6 0 -11 7 -11 15 0 8 -4 15 -10 15 -5 0 -7 -7 -4 -15 8
-19 -5 -19 -121 0 -49 8 -101 14 -115 14 -29 -2 5 -9 165 -34 61 -9 118 -21
127 -26 9 -5 59 -13 110 -19 51 -7 136 -18 188 -25 52 -8 129 -17 170 -21 41
-3 106 -12 143 -20 96 -20 144 -18 174 6 16 12 41 20 64 20 26 0 52 10 83 31
26 17 46 33 46 36 0 3 -12 -2 -26 -12 -14 -9 -29 -14 -32 -10 -4 4 -9 167 -12
363 l-5 357 -25 1 c-14 0 -35 4 -47 8 -19 6 -22 4 -16 -10 4 -12 3 -15 -6 -10
-6 4 -33 2 -59 -5 -32 -8 -72 -9 -117 -4 -67 7 -68 8 -45 22 14 8 16 11 5 7
-31 -13 -205 -17 -205 -6 0 6 3 12 8 15 4 2 0 1 -8 -1 -26 -9 -159 -14 -185
-8 -16 4 -23 11 -19 18 5 8 2 9 -12 3 -24 -11 -168 -6 -172 6 -4 11 -16 12
-25 2z m150 -39 c28 -8 34 -34 26 -120 -5 -64 -8 -70 -27 -69 -14 1 -24 12
-30 33 -8 27 -13 32 -40 31 -26 0 -28 -2 -11 -9 17 -7 15 -9 -12 -9 -25 -1
-33 -6 -36 -23 -3 -17 -5 -14 -6 10 0 17 -5 32 -9 32 -4 0 -9 11 -10 26 -1 14
2 23 8 19 6 -4 10 12 10 39 l0 46 58 0 c31 0 67 -3 79 -6z m161 -11 c45 -5 55
-10 63 -30 5 -15 6 -107 2 -226 l-8 -202 -5 135 c-5 133 -5 135 -27 132 -19
-3 -23 2 -23 22 0 33 -10 38 -59 30 -32 -5 -41 -11 -42 -28 -2 -26 -16 85 -18
137 -1 35 0 37 32 37 17 0 56 -3 85 -7z m261 -28 c2 -2 4 -162 6 -355 l2 -351
-56 6 c-90 10 -111 16 -111 30 0 8 -8 19 -17 24 -16 9 -16 12 -3 20 17 11 21
9 24 -14 3 -24 21 -32 58 -27 27 3 36 11 51 41 21 46 21 61 2 87 -8 10 -15 27
-15 37 0 10 -8 17 -19 17 -11 0 -25 2 -33 3 -7 2 -10 2 -7 0 3 -2 4 -15 1 -28
-2 -14 -8 -22 -13 -20 -4 3 -6 12 -2 20 3 9 -1 15 -9 15 -12 0 -16 38 -21 223
-4 122 -9 237 -13 256 l-7 34 89 -7 c49 -4 90 -9 93 -11z m191 -9 c8 0 25 4
37 8 21 7 22 4 25 -91 2 -54 5 -214 6 -355 l3 -257 -25 -16 c-20 -13 -39 -15
-98 -9 -95 9 -120 18 -116 44 3 22 23 28 23 8 0 -8 16 -14 37 -16 29 -2 46 3
73 25 l35 28 0 216 c0 119 -3 219 -6 222 -4 3 -15 2 -25 -4 -16 -8 -19 -6 -19
13 0 42 -14 53 -57 42 -28 -7 -39 -15 -41 -31 -2 -13 -8 -23 -13 -23 -5 0 -9
47 -9 105 l0 106 78 -7 c42 -4 84 -8 92 -8z m-769 -272 c-1 -87 -3 -160 -6
-162 -3 -3 -5 70 -5 163 0 93 3 166 6 163 3 -3 5 -77 5 -164z m84 97 c3 -5 1
-12 -5 -16 -5 -3 -10 1 -10 9 0 18 6 21 15 7z m5 -52 c0 -5 -4 -9 -10 -9 -5 0
-10 7 -10 16 0 8 5 12 10 9 6 -3 10 -10 10 -16z m190 -8 c0 -6 -4 -13 -10 -16
-5 -3 -10 1 -10 9 0 9 5 16 10 16 6 0 10 -4 10 -9z m397 -13 c-3 -8 -6 -5 -6
6 -1 11 2 17 5 13 3 -3 4 -12 1 -19z m-592 -17 c3 -5 1 -12 -5 -16 -5 -3 -10
1 -10 9 0 18 6 21 15 7z m600 -10 c3 -5 1 -12 -5 -16 -5 -3 -10 1 -10 9 0 18
6 21 15 7z m-595 -42 c0 -5 -4 -9 -10 -9 -5 0 -10 7 -10 16 0 8 5 12 10 9 6
-3 10 -10 10 -16z m190 -9 c0 -5 -4 -10 -10 -10 -5 0 -10 5 -10 10 0 6 5 10
10 10 6 0 10 -4 10 -10z m460 -15 c0 -8 -4 -15 -8 -15 -5 0 -9 7 -9 15 0 8 4
15 9 15 4 0 8 -7 8 -15z m-650 -16 c0 -5 -4 -9 -10 -9 -5 0 -10 7 -10 16 0 8
5 12 10 9 6 -3 10 -10 10 -16z m190 -15 c0 -8 -5 -12 -10 -9 -6 4 -8 11 -5 16
9 14 15 11 15 -7z m410 -4 c0 -5 -4 -10 -10 -10 -5 0 -10 5 -10 10 0 6 5 10
10 10 6 0 10 -4 10 -10z m55 -105 c-2 -22 -4 -48 -4 -58 -1 -16 -3 -17 -16 -3
-16 16 -20 31 -7 22 5 -3 4 20 -1 51 -7 42 -7 58 2 61 6 2 11 11 12 20 1 10 5
1 9 -18 5 -19 7 -52 5 -75z m-658 69 c-9 -9 -28 6 -21 18 4 6 10 6 17 -1 6 -6
8 -13 4 -17z m193 -10 c0 -8 -4 -14 -10 -14 -5 0 -10 9 -10 21 0 11 5 17 10
14 6 -3 10 -13 10 -21z m410 -5 c0 -5 -4 -9 -10 -9 -5 0 -10 7 -10 16 0 8 5
12 10 9 6 -3 10 -10 10 -16z m-606 -24 c-4 -8 -8 -15 -10 -15 -2 0 -4 7 -4 15
0 8 4 15 10 15 5 0 7 -7 4 -15z m-74 -10 c0 -8 0 -18 1 -22 0 -4 -4 -9 -10
-11 -6 -2 -8 3 -5 12 3 9 1 16 -6 16 -6 0 -8 5 -5 10 9 15 25 12 25 -5z m267
-7 c-3 -8 -6 -5 -6 6 -1 11 2 17 5 13 3 -3 4 -12 1 -19z m408 -8 c-6 -9 -9 -9
-16 1 -10 17 0 34 13 21 6 -6 7 -16 3 -22z m-595 -16 c0 -8 -4 -12 -10 -9 -5
3 -10 10 -10 16 0 5 5 9 10 9 6 0 10 -7 10 -16z m190 -22 c0 -15 -2 -15 -10
-2 -13 20 -13 33 0 25 6 -3 10 -14 10 -23z m-190 -22 c0 -11 -4 -20 -10 -20
-5 0 -10 9 -10 20 0 11 5 20 10 20 6 0 10 -9 10 -20z m97 -107 c-3 -2 -38 0
-78 4 -73 8 -74 8 -76 38 -1 17 1 22 3 13 8 -28 82 -24 117 7 15 13 28 32 29
42 1 10 3 -8 5 -41 2 -32 2 -60 0 -63z m93 91 c0 -8 -4 -12 -10 -9 -5 3 -10
10 -10 16 0 5 5 9 10 9 6 0 10 -7 10 -16z m180 6 c0 -5 -2 -10 -4 -10 -3 0 -8
5 -11 10 -3 6 -1 10 4 10 6 0 11 -4 11 -10z m230 -21 c0 -5 -4 -9 -10 -9 -5 0
-10 7 -10 16 0 8 5 12 10 9 6 -3 10 -10 10 -16z m-600 -15 c0 -8 -4 -12 -10
-9 -5 3 -10 10 -10 16 0 5 5 9 10 9 6 0 10 -7 10 -16z m338 -2 c3 -9 -2 -13
-14 -10 -9 1 -19 9 -22 16 -3 9 2 13 14 10 9 -1 19 -9 22 -16z m-148 -13 c0
-6 -4 -7 -10 -4 -5 3 -10 11 -10 16 0 6 5 7 10 4 6 -3 10 -11 10 -16z m102
-71 c-5 -5 -35 -3 -68 2 -105 19 -104 18 -103 48 0 26 1 26 9 4 8 -19 16 -22
55 -20 25 2 45 8 45 14 0 6 10 15 22 21 20 9 24 6 35 -26 7 -20 9 -39 5 -43z
m303 52 c-6 -9 -9 -9 -16 1 -10 17 0 34 13 21 6 -6 7 -16 3 -22z"/>
<path d="M7360 930 c0 -5 5 -10 10 -10 6 0 10 5 10 10 0 6 -4 10 -10 10 -5 0
-10 -4 -10 -10z"/>
<path d="M7390 930 c0 -5 5 -10 10 -10 6 0 10 5 10 10 0 6 -4 10 -10 10 -5 0
-10 -4 -10 -10z"/>
<path d="M7380 880 l-45 -5 -3 -88 c-2 -57 1 -94 9 -103 15 -18 63 -19 53 -1
-5 8 -3 8 9 -2 24 -19 28 -2 25 110 l-3 94 -45 -5z"/>
<path d="M7382 640 c13 -20 28 -27 28 -12 0 10 -22 32 -32 32 -5 0 -3 -9 4
-20z"/>
<path d="M7360 630 c0 -5 5 -10 10 -10 6 0 10 5 10 10 0 6 -4 10 -10 10 -5 0
-10 -4 -10 -10z"/>
<path d="M7540 975 c0 -8 2 -15 4 -15 2 0 6 7 10 15 3 8 1 15 -4 15 -6 0 -10
-7 -10 -15z"/>
<path d="M7570 971 c0 -6 10 -8 21 -6 33 6 36 15 6 15 -15 0 -27 -4 -27 -9z"/>
<path d="M7540 929 c0 -6 6 -9 14 -6 7 3 18 1 24 -5 6 -6 19 -7 29 -3 17 7 17
8 -2 15 -29 12 -65 12 -65 -1z"/>
<path d="M7528 893 c7 -3 16 -2 19 1 4 3 -2 6 -13 5 -11 0 -14 -3 -6 -6z"/>
<path d="M7353 1113 c4 -3 1 -13 -6 -21 -11 -13 -9 -14 10 -2 22 14 22 30 1
30 -6 0 -8 -3 -5 -7z"/>
<path d="M7550 1095 c7 -8 17 -12 22 -9 6 4 5 10 -3 15 -22 14 -33 10 -19 -6z"/>
<path d="M6585 1090 c3 -5 8 -10 11 -10 2 0 4 5 4 10 0 6 -5 10 -11 10 -5 0
-7 -4 -4 -10z"/>
<path d="M6710 890 c0 -71 4 -130 9 -130 5 0 8 8 7 18 0 9 6 17 14 17 8 0 14
-8 14 -17 -1 -10 2 -18 7 -18 5 0 9 56 9 125 0 116 -7 145 -26 113 -5 -7 -2
-8 7 -3 11 6 11 5 2 -5 -14 -15 -34 -4 -26 15 3 8 0 15 -6 15 -7 0 -11 -42
-11 -130z"/>
<path d="M7933 953 c-17 -6 -16 -34 1 -58 12 -17 13 -17 18 7 6 31 -3 56 -19
51z"/>
<path d="M6616 935 c4 -8 10 -15 15 -15 5 0 9 7 9 15 0 8 -7 15 -15 15 -9 0
-12 -6 -9 -15z"/>
<path d="M6588 882 c-15 -3 -18 -14 -18 -62 0 -51 2 -58 22 -64 31 -7 35 0 40
66 5 59 -3 69 -44 60z"/>
<path d="M7872 730 c0 -14 2 -19 5 -12 2 6 2 18 0 25 -3 6 -5 1 -5 -13z"/>
<path d="M6601 721 c-9 -6 -5 -8 13 -8 14 0 26 3 26 8 0 11 -21 11 -39 0z"/>
<path d="M6720 640 c0 -29 2 -51 5 -48 8 7 9 87 2 95 -4 3 -7 -18 -7 -47z"/>
<path d="M6610 596 c0 -35 4 -45 20 -49 11 -3 20 -1 20 3 0 5 9 11 20 15 24 8
22 22 -7 52 -36 37 -53 30 -53 -21z"/>
<path d="M4940 405 c0 -8 5 -15 10 -15 6 0 10 7 10 15 0 8 -4 15 -10 15 -5 0
-10 -7 -10 -15z"/>
<path d="M4970 397 c0 -10 8 -17 18 -17 9 0 13 4 7 8 -5 4 -13 11 -17 16 -5 5
-8 2 -8 -7z"/>
<path d="M4957 323 c-3 -5 -2 -15 2 -22 5 -7 11 -9 14 -4 3 5 2 15 -2 22 -5 7
-11 9 -14 4z"/>
</g>
</svg>
