<?xml version="1.0" standalone="no"?>
<!DOCTYPE svg PUBLIC "-//W3C//DTD SVG 20010904//EN"
 "http://www.w3.org/TR/2001/REC-SVG-20010904/DTD/svg10.dtd">
<svg version="1.0" xmlns="http://www.w3.org/2000/svg"
 width="610.000000pt" height="633.000000pt" viewBox="0 0 610.000000 633.000000"
 preserveAspectRatio="xMidYMid meet">

<g transform="translate(0.000000,633.000000) scale(0.100000,-0.100000)"
fill="#000000" stroke="none">
<path d="M1840 5536 l0 -474 -47 -16 c-57 -20 -53 -20 -53 2 0 35 -21 42 -131
42 l-108 0 -4 28 -4 27 -2 -27 -1 -28 -185 0 -185 0 0 60 0 60 -185 0 -185 0
0 -60 0 -60 -114 0 c-101 0 -115 2 -119 18 -4 16 -5 16 -6 0 -1 -16 -13 -18
-109 -18 -119 0 -132 -5 -132 -56 0 -67 -12 -64 246 -64 l234 0 0 -65 0 -65
183 2 182 3 3 63 3 62 59 0 60 0 0 -45 c0 -44 0 -44 -27 -34 -36 14 -77 -16
-81 -59 -2 -17 -10 -36 -18 -42 -8 -8 -14 -30 -14 -56 0 -54 23 -72 101 -80
30 -3 64 -10 76 -16 26 -13 83 6 83 28 0 8 -16 22 -35 31 -19 9 -35 20 -35 24
0 4 -3 15 -7 25 -5 14 1 12 28 -8 60 -46 85 -51 130 -25 l40 22 -3 60 -3 59
-57 34 -57 34 -41 -23 c-39 -22 -40 -24 -40 -78 0 -50 -1 -53 -15 -35 -10 13
-14 45 -15 101 l0 83 238 2 c235 3 237 3 247 26 12 28 15 27 103 -2 70 -24 72
-24 72 -5 0 17 7 19 66 19 61 0 65 -1 59 -20 -8 -26 3 -25 95 10 l75 28 -30
11 c-16 7 -36 14 -42 16 -9 3 -13 35 -13 115 l0 110 350 0 350 0 0 -185 0
-185 -349 0 -350 0 -4 38 -4 37 -1 -42 -2 -43 360 0 360 0 0 195 0 195 -360 0
-360 0 0 -110 c0 -62 -4 -110 -9 -110 -5 0 -22 5 -36 10 -23 9 -28 7 -32 -10
-3 -11 -14 -20 -24 -20 -18 0 -19 13 -19 325 l0 325 1775 0 1775 0 3 -542 2
-543 3 548 2 547 -1785 0 -1785 0 0 -330 0 -330 -35 0 c-25 0 -35 4 -35 16 0
12 -7 14 -30 9 l-30 -7 0 466 0 466 1890 0 1890 0 0 -1805 0 -1805 -992 -2
-993 -3 995 -5 c547 -3 1002 -3 1009 -1 10 3 11 6 3 9 -9 3 -12 415 -12 1813
l0 1809 -1900 0 -1900 0 0 -474z m-914 -416 c10 0 14 12 14 40 0 22 4 40 8 40
5 0 7 -13 4 -28 -2 -17 2 -33 12 -41 18 -15 48 -11 54 8 3 9 -2 11 -17 6 -25
-8 -41 19 -22 38 9 9 14 8 21 -3 8 -12 10 -12 16 3 9 23 24 22 24 -3 0 -11 6
-20 14 -20 8 0 18 -5 22 -11 4 -8 0 -9 -15 -4 -13 4 -21 2 -21 -5 0 -17 31
-24 51 -11 18 11 19 6 19 -89 0 -93 -1 -100 -20 -100 -11 0 -20 5 -20 10 0 6
7 10 15 10 8 0 15 5 15 10 0 6 -40 10 -100 10 -60 0 -100 4 -100 10 0 6 7 10
15 10 11 0 15 12 15 45 0 45 0 45 -34 45 -19 0 -38 -4 -41 -10 -4 -6 8 -10 29
-10 34 0 36 -2 36 -31 0 -31 -1 -31 -35 -26 -21 3 -33 2 -30 -4 4 -5 13 -9 21
-9 8 0 14 -4 14 -10 0 -6 -28 -10 -65 -10 -37 0 -65 4 -65 10 0 6 16 10 35 10
35 0 35 0 35 45 0 45 0 45 -35 45 -24 0 -35 5 -35 15 0 11 12 15 50 15 36 0
50 4 50 14 0 7 9 16 20 19 12 3 21 14 22 29 1 12 3 4 5 -19 3 -29 9 -43 19
-43z m184 61 c0 -14 -5 -18 -20 -14 -11 3 -22 9 -25 13 -3 5 4 6 15 3 11 -3
20 0 20 6 0 6 2 11 5 11 3 0 5 -9 5 -19z m-280 -16 c0 -20 -5 -25 -26 -25 -27
0 -24 20 4 20 15 1 15 2 -2 15 -19 15 -19 15 2 15 17 0 22 -6 22 -25z m45 15
c3 -5 1 -10 -4 -10 -6 0 -11 5 -11 10 0 6 2 10 4 10 3 0 8 -4 11 -10z m-125
-155 l0 -45 -232 2 -233 3 -3 28 c-7 58 -13 57 238 57 l230 0 0 -45z m954 39
c10 -4 16 -18 16 -35 0 -34 -17 -39 -23 -6 -2 12 -3 7 -1 -10 l3 -33 -290 0
-289 0 0 45 0 45 284 0 c156 0 291 -3 300 -6z m-744 -114 c0 -5 -7 -10 -15
-10 -11 0 -15 -11 -15 -40 l0 -40 40 0 40 0 0 40 c0 33 -3 40 -20 40 -11 0
-20 5 -20 10 0 6 20 10 45 10 25 0 45 -4 45 -10 0 -5 -7 -10 -15 -10 -11 0
-15 -11 -15 -39 0 -40 0 -40 43 -44 23 -2 -38 -4 -135 -5 l-178 -2 0 55 0 55
100 0 c60 0 100 -4 100 -10z m40 -50 c0 -27 -3 -30 -30 -30 -27 0 -30 3 -30
30 0 27 3 30 30 30 27 0 30 -3 30 -30z m418 -24 l52 -29 0 -51 c0 -47 -3 -53
-30 -69 l-30 -18 -2 53 -1 53 -7 -55 -7 -55 -3 50 c-1 28 -2 52 -2 55 0 3 -17
15 -39 27 -22 12 -36 16 -33 10 4 -7 3 -8 -2 -4 -16 15 -10 31 16 49 29 19 21
21 88 -16z m-200 -22 c13 -23 4 -51 -18 -57 -21 -5 -35 2 -42 23 -14 39 40 69
60 34z m125 -38 c-4 -5 1 -7 11 -3 10 4 15 3 11 -3 -3 -6 -1 -10 4 -10 18 0
13 -67 -5 -74 -8 -3 -12 -2 -9 4 6 9 -8 14 -28 11 -5 -1 -6 3 -2 9 3 5 1 10
-4 10 -6 0 -11 15 -11 34 0 28 4 34 19 33 11 0 17 -5 14 -11z m-98 -46 c11 -9
14 -22 10 -44 -9 -41 -32 -58 -70 -50 -57 12 -80 51 -53 93 13 22 87 23 113 1z
m81 -86 c24 -16 24 -17 5 -31 -28 -19 -64 2 -50 29 12 22 13 22 45 2z"/>
<path d="M1237 4749 c4 -13 8 -18 11 -10 2 7 -1 18 -6 23 -8 8 -9 4 -5 -13z"/>
<path d="M792 5653 l-2 -73 40 0 c22 0 40 5 40 10 0 6 -16 10 -35 10 l-34 0
-4 63 -3 62 -2 -72z"/>
<path d="M1213 5650 c0 -41 2 -58 4 -37 2 20 2 54 0 75 -2 20 -4 3 -4 -38z"/>
<path d="M1310 5700 c-7 -14 -7 -20 0 -20 5 0 10 5 10 10 0 6 9 10 20 10 11 0
20 -7 20 -15 0 -8 -7 -15 -15 -15 -22 0 -18 -17 6 -23 13 -4 20 -12 17 -24 -4
-22 -37 -30 -49 -12 -4 7 -11 10 -15 6 -10 -10 16 -37 37 -37 10 0 26 11 35
25 15 24 15 27 0 43 -12 14 -13 21 -4 30 8 8 8 15 -2 27 -17 21 -47 19 -60 -5z"/>
<path d="M908 5669 c-25 -14 -23 -65 2 -79 12 -6 30 -8 40 -5 30 10 24 22 -9
17 -16 -2 -32 1 -35 7 -5 7 7 11 33 11 45 0 48 5 25 38 -17 24 -30 27 -56 11z
m47 -19 c4 -6 -7 -10 -25 -10 -18 0 -29 4 -25 10 3 6 15 10 25 10 10 0 22 -4
25 -10z"/>
<path d="M1001 5673 c-1 -17 30 -93 38 -93 8 0 42 93 36 99 -3 2 -12 -13 -21
-35 l-17 -39 -18 40 c-9 22 -18 34 -18 28z"/>
<path d="M1104 5655 c-15 -23 -15 -27 0 -50 18 -28 47 -32 66 -10 11 13 8 14
-18 9 -17 -4 -32 -1 -36 5 -5 7 5 11 28 11 28 0 36 4 36 18 0 45 -50 56 -76
17z m61 -5 c4 -6 -7 -10 -25 -10 -18 0 -29 4 -25 10 3 6 15 10 25 10 10 0 22
-4 25 -10z"/>
<path d="M2850 5250 l0 -410 45 0 c25 0 45 -2 45 -4 0 -2 -7 -23 -15 -46 -8
-23 -15 -46 -15 -51 0 -5 7 -9 15 -9 12 0 15 -13 15 -60 0 -48 -3 -60 -16 -60
-11 0 -14 -6 -8 -22 4 -13 7 -32 8 -43 1 -12 9 -21 22 -23 16 -2 23 3 27 25 3
15 9 36 12 46 6 13 2 17 -14 17 -19 0 -21 6 -21 60 0 54 2 60 21 60 22 0 21 9
-7 78 l-13 32 349 0 349 0 -13 -32 c-28 -69 -29 -78 -7 -78 19 0 21 -6 21 -60
0 -54 -2 -60 -21 -60 -14 0 -19 -5 -16 -13 4 -10 -2 -13 -18 -9 -26 5 -43 -14
-26 -31 9 -9 17 -8 32 1 25 16 25 16 34 -25 l6 -33 -198 -3 c-109 -1 12 -3
270 -5 l467 -2 0 -200 0 -200 -467 -3 -468 -2 472 -3 c306 -1 474 -6 478 -12
4 -6 10 -8 15 -5 5 3 11 1 15 -5 9 -15 25 -2 25 21 0 13 -10 24 -30 30 -38 14
-39 31 -2 27 23 -3 27 1 27 22 0 14 -4 25 -10 25 -5 0 -19 6 -30 13 -18 11
-18 12 10 10 24 -3 31 1 33 19 3 17 -5 26 -30 37 l-33 15 30 -2 c24 -2 31 2
33 21 3 18 -3 25 -27 33 -40 14 -41 33 -1 24 27 -6 30 -4 30 18 0 19 -6 26
-30 31 -38 7 -40 28 -2 24 21 -2 28 2 30 19 3 17 -5 26 -34 38 -30 12 -85 15
-296 15 -255 0 -259 0 -253 20 4 13 2 20 -7 21 -7 0 -3 4 10 9 26 11 32 60 7
60 -12 0 -15 13 -15 60 0 47 3 60 15 60 8 0 15 4 15 9 0 5 -7 25 -15 44 -8 20
-15 41 -15 47 0 7 110 10 329 10 l330 0 -19 -55 c-19 -55 -19 -55 1 -55 19 0
21 -5 17 -57 -2 -34 -9 -63 -17 -69 -12 -9 -12 -18 2 -57 l16 -47 -30 0 -29 0
0 -210 0 -210 85 0 c47 0 85 -4 85 -9 0 -5 -7 -28 -15 -51 -19 -53 -19 -64 0
-56 13 5 15 -20 15 -184 l0 -190 -46 0 c-34 0 -54 7 -81 27 -30 23 -46 28 -97
28 -50 0 -62 3 -66 18 -7 27 -25 22 -28 -8 -3 -19 -8 -25 -19 -21 -9 4 -21 2
-27 -3 -6 -4 -35 -16 -63 -25 -29 -10 -53 -21 -53 -25 0 -5 15 -12 33 -18 24
-7 31 -14 29 -29 -14 -85 -5 -132 38 -201 13 -20 12 -24 -5 -37 -20 -14 -19
-15 5 -25 26 -10 23 -12 -20 -14 -35 -3 -33 -32 2 -32 15 -1 30 -4 34 -8 4 -4
-2 -7 -14 -7 -13 0 -22 -6 -22 -15 0 -9 9 -15 25 -15 18 0 25 5 25 19 0 12 8
21 22 23 31 4 34 26 4 38 -17 6 -24 14 -20 25 8 19 24 20 24 0 0 -17 18 -19
38 -6 10 6 7 10 -11 15 -33 8 -84 51 -102 87 -19 36 -19 122 -1 157 57 109
192 135 280 54 82 -77 71 -216 -23 -279 -19 -13 -29 -23 -23 -23 19 0 79 59
96 94 20 43 21 106 1 153 -8 19 -15 37 -15 39 0 2 20 4 45 4 l45 0 0 195 c0
187 1 195 20 195 18 0 18 2 5 41 -8 23 -15 48 -15 55 0 12 86 14 520 14 l520
0 0 210 0 210 -580 0 c-319 0 -580 2 -580 4 0 2 7 23 15 46 18 52 19 50 -2 51
-14 0 -13 2 5 9 27 12 29 30 2 37 -16 4 -20 14 -20 44 0 28 4 39 15 39 8 0 15
4 15 9 0 5 -7 28 -15 51 -19 54 -20 50 15 50 l30 0 0 410 0 410 -770 0 -770 0
0 -410z m1530 0 l0 -400 -760 0 -760 0 0 400 0 400 760 0 760 0 0 -400z m1100
-960 l0 -200 -605 0 -605 0 0 200 0 200 605 0 605 0 0 -200z"/>
<path d="M3180 5260 l0 -60 48 2 c43 1 44 2 10 5 -32 4 -38 8 -38 28 0 20 6
24 38 28 l37 4 -37 1 c-30 2 -38 6 -38 21 0 15 8 21 38 24 34 3 33 4 -10 5
l-48 2 0 -60z"/>
<path d="M3300 5260 c0 -33 4 -60 10 -60 6 0 10 11 10 25 0 18 5 25 19 25 34
0 51 12 51 35 0 25 -17 35 -61 35 -29 0 -29 0 -29 -60z m75 25 c0 -14 -8 -21
-27 -23 -24 -3 -28 0 -28 23 0 23 4 26 28 23 19 -2 27 -9 27 -23z"/>
<path d="M3423 5260 c0 -36 2 -50 4 -32 2 17 2 47 0 65 -2 17 -4 3 -4 -33z"/>
<path d="M3476 5304 c-33 -33 -10 -104 33 -104 9 0 26 7 37 15 23 18 11 20
-16 3 -30 -19 -55 1 -55 42 0 41 25 61 55 42 27 -17 39 -15 16 3 -26 19 -51
19 -70 -1z"/>
<path d="M3602 5311 c-24 -15 -9 -44 26 -53 24 -6 32 -14 30 -26 -5 -24 -39
-28 -55 -6 -7 10 -15 15 -18 12 -10 -9 25 -38 45 -38 25 0 51 27 44 45 -4 8
-20 19 -37 23 -17 4 -32 13 -35 20 -6 18 28 27 49 13 11 -6 19 -7 19 -2 0 19
-46 27 -68 12z"/>
<path d="M3762 5281 c-18 -11 -11 -61 10 -75 14 -8 22 -7 35 7 9 9 12 17 6 17
-6 0 -13 -5 -15 -12 -7 -21 -38 0 -38 27 0 29 27 45 42 24 8 -12 9 -11 5 1 -4
18 -27 23 -45 11z"/>
<path d="M3842 5278 c-24 -24 -8 -78 24 -78 17 0 44 28 44 45 0 17 -27 45 -44
45 -6 0 -17 -5 -24 -12z m43 -33 c0 -23 -4 -30 -20 -30 -21 0 -31 25 -21 51
11 28 41 12 41 -21z"/>
<path d="M3932 5240 c1 -40 2 -41 5 -10 2 19 11 40 20 47 13 10 13 12 -6 10
-18 -1 -21 -7 -19 -47z"/>
<path d="M3992 5278 c-7 -7 -12 -21 -12 -33 0 -43 46 -60 71 -27 11 14 11 15
-1 5 -19 -18 -47 -16 -54 2 -4 12 3 15 29 15 22 0 35 5 35 13 0 18 -21 37 -40
37 -9 0 -21 -5 -28 -12z m52 -13 c4 -11 -1 -15 -19 -15 -16 0 -25 6 -25 15 0
8 9 15 19 15 10 0 21 -7 25 -15z"/>
<path d="M4510 4454 c0 -3 7 -30 16 -61 17 -58 32 -64 47 -17 17 58 19 59 31
15 6 -25 16 -46 22 -48 10 -3 47 107 39 115 -9 9 -25 -11 -25 -31 0 -12 -5
-29 -10 -37 -7 -11 -11 -4 -16 28 -9 58 -35 54 -50 -8 l-11 -44 -11 47 c-7 26
-17 47 -22 47 -6 0 -10 -3 -10 -6z"/>
<path d="M4680 4400 c0 -65 17 -83 22 -23 4 52 28 56 28 4 0 -30 4 -41 15 -41
16 0 19 28 9 68 -4 15 -14 22 -30 22 -15 0 -24 6 -24 15 0 8 -4 15 -10 15 -6
0 -10 -27 -10 -60z"/>
<path d="M4872 4443 c-4 -10 -5 -36 -2 -58 4 -30 10 -40 25 -42 11 -2 14 0 8
3 -7 3 -13 21 -13 40 0 20 5 34 13 34 9 0 8 3 -2 9 -7 5 -10 14 -7 20 4 6 3
11 -3 11 -6 0 -14 -8 -19 -17z"/>
<path d="M4780 4416 c-8 -10 -8 -16 -2 -16 6 0 14 5 17 10 7 12 35 14 35 2 0
-4 -14 -13 -31 -19 -44 -17 -36 -47 14 -51 l38 -3 -3 43 c-3 38 -6 43 -29 46
-14 2 -31 -4 -39 -12z m48 -48 c-3 -7 -11 -13 -18 -13 -7 0 -15 6 -17 13 -3 7
4 12 17 12 13 0 20 -5 18 -12z"/>
<path d="M4964 4418 c24 -61 29 -90 15 -99 -11 -8 -10 -9 5 -7 11 2 25 21 37
53 22 57 23 65 10 65 -5 0 -13 -15 -17 -32 l-7 -33 -15 33 c-14 30 -40 48 -28
20z"/>
<path d="M5054 4406 c-11 -45 -2 -61 36 -61 34 0 35 1 35 40 0 38 -2 40 -32
43 -27 3 -33 -1 -39 -22z m51 -22 c0 -19 -5 -29 -15 -29 -16 0 -25 28 -16 51
10 25 31 10 31 -22z"/>
<path d="M5152 4388 c3 -42 4 -43 41 -46 l37 -3 0 45 c0 33 -4 46 -14 46 -10
0 -16 -13 -18 -37 -4 -52 -28 -56 -28 -4 0 23 -5 41 -11 41 -6 0 -9 -17 -7
-42z"/>
<path d="M4980 4235 c0 -8 -9 -15 -20 -15 -27 0 -42 -32 -30 -64 7 -20 17 -26
39 -26 29 0 29 1 33 60 2 43 -1 60 -9 60 -7 0 -13 -7 -13 -15z m-2 -57 c-2
-17 -8 -33 -15 -35 -17 -6 -27 35 -13 52 20 24 31 17 28 -17z"/>
<path d="M5030 4235 c-7 -9 -10 -19 -6 -23 4 -4 13 1 20 11 31 41 49 6 20 -39
-9 -13 -14 -27 -10 -31 3 -3 7 -4 9 -2 2 2 13 17 25 33 17 22 19 32 11 47 -12
23 -52 25 -69 4z"/>
<path d="M4640 4176 c0 -55 17 -62 22 -9 2 27 8 39 21 41 14 3 17 -4 17 -37 0
-23 5 -41 11 -41 6 0 9 17 7 43 -3 41 -4 42 -40 45 l-38 3 0 -45z"/>
<path d="M4739 4199 c-25 -48 37 -95 71 -54 15 18 7 19 -20 3 -17 -11 -22 -10
-30 2 -8 12 -3 16 25 18 36 3 44 19 23 40 -19 19 -56 14 -69 -9z m59 -7 c2 -7
-6 -12 -17 -12 -21 0 -27 11 -14 24 9 9 26 2 31 -12z"/>
<path d="M4842 4208 c-13 -13 -15 -37 -6 -62 7 -18 59 -22 69 -5 11 16 -3 23
-19 10 -8 -7 -20 -10 -26 -6 -20 12 -10 25 20 25 31 0 35 6 24 34 -7 19 -45
21 -62 4z m46 -16 c2 -7 -6 -12 -17 -12 -21 0 -27 11 -14 24 9 9 26 2 31 -12z"/>
<path d="M4440 5560 c0 -56 3 -70 15 -70 12 0 15 14 15 70 0 56 -3 70 -15 70
-12 0 -15 -14 -15 -70z"/>
<path d="M4510 5610 c-43 -43 -11 -120 48 -120 36 0 65 31 65 70 0 62 -70 93
-113 50z m71 -10 c26 -15 26 -66 -1 -80 -26 -14 -60 -4 -62 18 -5 62 18 85 63
62z"/>
<path d="M4665 5610 c-39 -43 -10 -120 45 -120 15 0 35 9 45 20 23 25 12 39
-13 17 -35 -32 -72 -14 -72 33 0 47 37 65 72 33 15 -13 18 -14 18 -2 0 40 -64
53 -95 19z"/>
<path d="M4847 5583 c-16 -16 -5 -24 26 -18 l32 6 -33 -16 c-26 -11 -33 -20
-30 -37 2 -19 10 -24 46 -26 l42 -3 0 38 c0 22 -5 44 -12 51 -13 13 -60 16
-71 5z m48 -62 c-8 -13 -35 -15 -35 -2 0 5 8 11 18 13 21 5 26 2 17 -11z"/>
<path d="M4950 5518 c0 -39 4 -68 10 -68 6 0 10 8 10 19 0 13 9 20 30 24 34 7
48 43 31 76 -9 15 -20 20 -46 19 l-35 -1 0 -69z m60 36 c11 -12 11 -18 -2 -31
-19 -18 -38 -10 -38 16 0 33 20 40 40 15z"/>
<path d="M5050 5520 c0 -56 3 -70 15 -70 8 0 15 9 15 20 0 13 7 20 20 20 11 0
27 11 36 25 15 23 15 27 0 50 -12 19 -25 25 -51 25 l-35 0 0 -70z m65 20 c0
-27 -22 -39 -31 -16 -8 22 3 49 19 43 6 -2 12 -14 12 -27z"/>
<path d="M523 5398 c-31 -19 -33 -23 -33 -80 l0 -61 -19 25 c-12 15 -18 33
-14 46 8 30 -40 76 -70 66 -34 -10 -47 -24 -47 -51 0 -14 -9 -36 -20 -50 -12
-16 -20 -41 -20 -65 0 -36 3 -40 43 -58 23 -11 59 -20 79 -20 20 0 49 -5 63
-12 19 -8 31 -8 50 0 35 16 31 36 -10 62 -19 12 -35 28 -35 36 0 9 17 4 58
-18 l57 -31 38 23 c36 22 37 23 37 84 l0 62 -56 32 c-31 18 -59 32 -62 31 -4
0 -22 -10 -39 -21z m145 -99 c3 -46 0 -56 -20 -71 -34 -26 -38 -23 -38 31 0
52 -13 72 -33 51 -9 -10 -9 -12 3 -8 12 5 15 -2 12 -33 -2 -21 -10 -40 -19
-43 -7 -3 -12 -2 -9 3 5 8 -42 36 -56 33 -5 -1 -8 16 -8 38 l0 41 29 -15 c16
-9 31 -12 35 -9 8 8 -45 43 -56 37 -4 -3 -5 1 -3 8 3 8 18 21 33 30 26 16 29
16 77 -12 49 -28 50 -30 53 -81z m-139 -116 c23 -15 23 -17 6 -29 -24 -18 -55
-1 -48 26 6 24 12 25 42 3z"/>
<path d="M1458 5397 c-35 -21 -38 -25 -38 -71 0 -41 -2 -47 -14 -37 -8 7 -14
26 -14 43 1 32 -30 68 -59 68 -23 0 -66 -49 -60 -70 3 -11 -3 -26 -14 -36 -13
-12 -19 -31 -19 -59 0 -54 30 -76 106 -81 29 -2 61 -8 72 -15 16 -10 26 -10
51 1 40 16 39 41 -1 60 -17 8 -35 25 -40 38 l-8 23 33 -25 c58 -44 84 -49 128
-24 39 21 39 22 39 83 l0 60 -59 33 c-32 17 -60 32 -62 32 -2 -1 -21 -11 -41
-23z m135 -41 c12 -8 17 -24 17 -61 0 -46 -3 -52 -30 -68 l-30 -18 -2 53 -1
53 -7 -55 -7 -55 -3 50 c-1 28 -1 55 0 60 1 6 -2 6 -6 2 -5 -4 -7 -23 -5 -42
4 -51 -6 -58 -39 -28 -20 17 -30 36 -30 55 0 31 3 33 30 18 13 -7 21 -7 25 0
6 9 -8 14 -20 8 -2 -2 -11 6 -20 17 -9 11 -13 14 -9 6 4 -9 3 -12 -4 -7 -16
10 -3 35 27 50 23 13 30 12 61 -7 19 -11 43 -26 53 -31z m-235 2 c16 -16 15
-33 -4 -52 -12 -12 -20 -13 -35 -6 -18 10 -26 50 -12 63 10 11 38 8 51 -5z
m32 -88 c8 -12 2 -79 -7 -89 -2 -3 -19 -5 -39 -4 -68 2 -106 52 -69 93 18 20
103 20 115 0z m78 -88 c21 -17 21 -18 3 -29 -24 -15 -57 6 -48 31 8 20 16 20
45 -2z"/>
<path d="M1376 5257 c3 -10 9 -15 12 -12 3 3 0 11 -7 18 -10 9 -11 8 -5 -6z"/>
<path d="M2415 5153 c11 -3 27 -10 35 -17 13 -10 13 -9 1 7 -7 9 -23 16 -35
16 -20 -1 -20 -2 -1 -6z"/>
<path d="M2500 5105 c-13 -31 -20 -58 -17 -61 3 -3 8 4 12 15 4 15 15 21 35
21 20 0 31 -6 35 -21 4 -11 9 -19 11 -16 6 6 -37 117 -46 117 -4 0 -18 -25
-30 -55z m40 26 c0 -5 3 -16 6 -25 4 -12 0 -16 -16 -16 -16 0 -20 4 -16 16 3
9 6 20 6 25 0 5 5 9 10 9 6 0 10 -4 10 -9z"/>
<path d="M2372 5138 c-7 -7 -12 -24 -12 -38 0 -51 63 -80 91 -42 11 14 11 15
-1 5 -41 -37 -91 7 -70 62 11 28 9 30 -8 13z"/>
<path d="M1982 4063 l-2 -933 825 0 c727 0 825 -2 825 -15 0 -8 -7 -15 -16
-15 -17 0 -15 -20 7 -77 l11 -28 18 50 c14 41 14 51 3 53 -7 2 -13 10 -13 18
0 12 135 14 955 14 l955 0 -2 63 -2 62 -3 -57 -4 -58 -949 0 c-749 0 -949 3
-953 13 -4 10 -6 10 -6 0 -1 -10 -172 -13 -821 -13 l-820 0 -3 928 -2 927 -3
-932z"/>
<path d="M1842 3688 l-2 -1298 -82 0 c-45 0 -79 -2 -76 -5 3 -3 442 -5 977 -5
l971 0 0 -30 c0 -20 -5 -30 -15 -30 -12 0 -12 -5 0 -40 l14 -40 -304 0 -305 0
0 -235 0 -235 615 0 615 0 0 235 0 235 -302 -2 -303 -3 298 -2 297 -3 0 -225
0 -225 -605 0 -605 0 0 225 0 225 303 0 303 0 11 43 c7 25 8 43 2 45 -12 5
-12 122 1 122 6 0 6 9 0 26 -22 57 -39 54 330 54 l340 0 0 235 0 235 -690 0
-690 0 0 -235 0 -235 346 0 c313 0 346 -2 340 -16 -15 -39 -18 -64 -7 -64 6 0
11 -11 11 -25 l0 -25 -890 0 -890 0 -3 1298 -2 1297 -3 -1297z m2468 -933 l0
-225 -680 0 -680 0 0 225 0 225 680 0 680 0 0 -225z"/>
<path d="M2980 2855 c0 -62 17 -75 22 -17 l3 37 23 -37 c13 -21 28 -38 33 -38
5 0 8 26 7 58 l-1 57 -6 -44 -6 -45 -28 42 c-15 23 -32 42 -37 42 -6 0 -10
-25 -10 -55z"/>
<path d="M3103 2855 c0 -33 2 -45 4 -27 2 18 2 45 0 60 -2 15 -4 0 -4 -33z"/>
<path d="M3181 2853 c1 -32 4 -46 6 -30 5 34 27 35 49 2 9 -14 21 -25 26 -25
6 0 4 10 -4 23 -11 16 -12 27 -5 38 17 28 1 49 -38 49 l-35 0 1 -57z m64 27
c0 -9 -11 -16 -27 -18 -23 -3 -28 1 -28 18 0 17 5 21 28 18 16 -2 27 -9 27
-18z"/>
<path d="M3290 2855 c0 -30 5 -55 10 -55 6 0 10 25 10 55 0 30 -4 55 -10 55
-5 0 -10 -25 -10 -55z"/>
<path d="M3333 2884 c-15 -24 -15 -29 -2 -53 11 -19 23 -26 44 -26 21 0 33 7
44 26 13 24 13 29 -2 53 -11 16 -27 26 -42 26 -15 0 -31 -10 -42 -26z m65 4
c30 -30 -2 -93 -36 -71 -21 13 -27 50 -12 69 15 17 32 18 48 2z"/>
<path d="M3492 2858 l-2 -58 38 2 c36 1 36 1 5 5 -31 4 -32 6 -36 56 l-3 52
-2 -57z"/>
<path d="M3893 2855 c0 -33 2 -45 4 -27 2 18 2 45 0 60 -2 15 -4 0 -4 -33z"/>
<path d="M3961 2857 c-1 -58 -1 -58 27 -55 24 3 27 7 27 38 0 28 -4 36 -22 38
-12 2 -24 11 -26 20 -3 9 -5 -9 -6 -41z m44 -17 c0 -13 -6 -25 -12 -27 -16 -6
-27 21 -19 43 9 23 31 11 31 -16z"/>
<path d="M3573 2840 c0 -25 2 -35 4 -22 2 12 2 32 0 45 -2 12 -4 2 -4 -23z"/>
<path d="M3600 2841 c0 -23 5 -41 10 -41 6 0 10 16 10 35 0 24 5 35 15 35 10
0 15 -11 15 -35 0 -19 5 -35 11 -35 6 0 9 16 7 38 -3 34 -6 37 -35 40 -32 3
-33 2 -33 -37z"/>
<path d="M3693 2845 c2 -36 5 -40 30 -43 26 -3 27 -2 26 40 -1 44 -3 43 -13
-5 -9 -37 -29 -30 -38 14 -6 34 -6 34 -5 -6z"/>
<path d="M3770 2872 c0 -6 5 -14 11 -17 7 -5 5 -15 -6 -31 -16 -25 -8 -32 14
-11 11 10 14 10 18 0 3 -7 9 -13 14 -13 6 0 5 8 -1 20 -8 14 -8 26 0 40 11 21
-3 29 -15 10 -5 -8 -11 -7 -21 1 -9 7 -14 8 -14 1z"/>
<path d="M3920 2840 c0 -22 5 -40 10 -40 6 0 10 18 10 40 0 22 -4 40 -10 40
-5 0 -10 -18 -10 -40z"/>
<path d="M4041 2838 l1 -43 8 34 c4 18 14 37 22 42 9 6 7 9 -9 9 -20 0 -23 -5
-22 -42z"/>
<path d="M4095 2871 c-4 -7 3 -10 17 -8 18 1 22 -3 23 -23 0 -16 -6 -26 -19
-28 -14 -3 -17 0 -13 12 4 9 2 16 -3 16 -6 0 -10 -9 -10 -20 0 -16 6 -19 33
-18 33 1 33 2 28 37 -5 27 -12 37 -28 39 -11 2 -24 -2 -28 -7z"/>
<path d="M4170 2840 c0 -22 5 -40 10 -40 6 0 10 16 10 35 0 50 26 46 41 -6 11
-34 10 -42 -2 -50 -11 -7 -11 -9 4 -9 9 0 17 1 17 3 0 1 9 26 20 55 11 28 16
52 11 52 -5 0 -14 -12 -19 -27 l-9 -28 -13 28 c-10 20 -20 27 -42 27 -26 0
-28 -3 -28 -40z"/>
<path d="M3220 2675 c0 -30 5 -55 10 -55 6 0 10 25 10 55 0 30 -4 55 -10 55
-5 0 -10 -25 -10 -55z"/>
<path d="M3291 2677 c-1 -57 -1 -58 25 -55 53 6 58 68 6 76 -11 2 -23 11 -25
20 -3 9 -5 -9 -6 -41z m44 -17 c0 -27 -20 -38 -28 -15 -8 20 3 47 17 42 6 -2
11 -14 11 -27z"/>
<path d="M3370 2675 c0 -62 17 -75 22 -17 l3 37 23 -37 c13 -21 28 -38 33 -38
5 0 8 26 7 58 -1 42 -2 47 -5 20 -2 -21 -7 -38 -11 -38 -4 0 -17 16 -30 35
-12 19 -27 35 -32 35 -6 0 -10 -25 -10 -55z"/>
<path d="M3521 2673 c1 -32 4 -46 6 -31 3 20 11 28 31 31 l27 4 -27 2 c-21 1
-28 6 -28 20 0 15 8 21 33 24 31 4 31 4 -5 5 l-38 2 1 -57z"/>
<path d="M3263 2660 c0 -25 2 -35 4 -22 2 12 2 32 0 45 -2 12 -4 2 -4 -23z"/>
<path d="M3480 2660 c0 -22 5 -40 10 -40 6 0 10 18 10 40 0 22 -4 40 -10 40
-5 0 -10 -18 -10 -40z"/>
<path d="M3611 2643 c1 -32 3 -50 6 -41 2 9 14 18 26 20 18 2 22 10 22 38 0
31 -3 35 -27 38 -28 3 -28 3 -27 -55z m44 17 c0 -27 -22 -39 -31 -16 -8 22 3
49 19 43 6 -2 12 -14 12 -27z"/>
<path d="M3694 2686 c-11 -29 1 -61 24 -64 12 -2 22 -8 22 -14 0 -6 -10 -8
-26 -4 -17 5 -23 3 -19 -4 8 -14 38 -13 53 2 7 7 12 31 12 55 0 41 -1 43 -30
43 -17 0 -33 -6 -36 -14z m44 -29 c2 -18 -1 -27 -11 -27 -18 0 -29 24 -20 45
8 23 28 12 31 -18z"/>
<path d="M3785 2691 c-3 -7 0 -8 9 -5 22 8 42 -6 25 -17 -10 -6 -10 -9 -2 -9
7 0 10 -7 7 -15 -4 -8 -13 -15 -21 -15 -10 0 -13 6 -9 16 4 10 1 14 -6 12 -27
-9 -13 -33 20 -36 33 -3 33 -3 30 35 -2 30 -7 39 -25 41 -11 2 -24 -2 -28 -7z"/>
<path d="M3907 2693 c-15 -14 -6 -31 18 -37 15 -4 23 -11 19 -17 -3 -6 -15 -8
-27 -5 -14 3 -17 2 -10 -5 15 -15 47 -7 51 12 2 11 -6 19 -22 23 -15 4 -26 11
-26 17 0 7 10 9 26 5 17 -5 23 -3 19 4 -7 11 -38 14 -48 3z"/>
<path d="M3982 2688 c-25 -25 -6 -68 30 -68 9 0 22 9 28 20 22 40 -26 80 -58
48z m43 -28 c0 -13 -6 -25 -12 -27 -16 -6 -27 21 -19 43 9 23 31 11 31 -16z"/>
<path d="M538 4902 c-25 -15 -28 -23 -28 -69 0 -75 -30 -65 -36 11 -3 44 -55
72 -90 48 -17 -11 -36 -51 -29 -62 3 -5 -3 -20 -14 -32 -28 -29 -28 -89 -1
-113 12 -11 44 -20 82 -24 35 -4 73 -13 85 -19 19 -10 27 -10 48 4 34 22 31
36 -10 58 -21 12 -35 27 -35 38 0 17 3 17 33 -6 47 -36 85 -41 125 -17 30 20
32 24 32 81 l0 60 -52 30 c-60 34 -72 35 -110 12z m102 -21 c44 -26 45 -29 48
-82 3 -51 1 -56 -23 -67 -14 -7 -28 -12 -30 -12 -3 0 -5 23 -5 50 0 48 -11 63
-26 38 -4 -7 -3 -8 4 -4 9 5 12 -8 11 -46 0 -39 -3 -48 -9 -33 -5 11 -9 14 -9
7 -1 -10 -5 -10 -17 2 -8 9 -20 13 -26 10 -6 -4 -8 -2 -5 3 4 6 0 13 -8 17
-18 7 -21 71 -3 82 6 4 8 3 5 -3 -4 -6 0 -13 8 -17 8 -3 17 -1 20 4 4 6 3 10
-2 10 -4 0 -19 9 -32 19 l-24 19 29 15 c38 21 41 20 94 -12z m-70 -212 c0 -12
-32 -20 -52 -13 -12 3 -17 11 -14 21 3 8 6 19 6 24 0 6 14 2 30 -8 17 -9 30
-20 30 -24z"/>
<path d="M4242 4633 c2 -10 12 -18 23 -18 11 0 21 8 23 18 3 13 -3 17 -23 17
-20 0 -26 -4 -23 -17z"/>
<path d="M4385 4640 c-4 -7 -3 -16 3 -22 14 -14 47 -6 47 12 0 18 -40 26 -50
10z"/>
<path d="M4456 4642 c-9 -14 21 -35 40 -28 8 3 14 12 12 19 -6 15 -44 22 -52
9z"/>
<path d="M4535 4640 c-11 -18 13 -36 31 -25 9 6 16 15 17 20 3 14 -40 18 -48
5z"/>
<path d="M4605 4640 c-4 -7 -3 -16 3 -22 14 -14 47 -6 47 12 0 18 -40 26 -50
10z"/>
<path d="M4675 4640 c-4 -7 -3 -16 3 -22 14 -14 47 -6 47 12 0 18 -40 26 -50
10z"/>
<path d="M4752 4633 c2 -10 12 -18 23 -18 11 0 21 8 23 18 3 13 -3 17 -23 17
-20 0 -26 -4 -23 -17z"/>
<path d="M4825 4640 c-9 -15 3 -30 25 -30 18 0 34 23 23 34 -10 10 -41 7 -48
-4z"/>
<path d="M4895 4640 c-4 -7 -3 -16 3 -22 14 -14 47 -6 47 12 0 18 -40 26 -50
10z"/>
<path d="M4966 4642 c-9 -14 21 -35 40 -28 8 3 14 12 12 19 -6 15 -44 22 -52
9z"/>
<path d="M5042 4633 c2 -10 12 -18 23 -18 11 0 21 8 23 18 3 13 -3 17 -23 17
-20 0 -26 -4 -23 -17z"/>
<path d="M5115 4640 c-4 -7 -3 -16 3 -22 14 -14 47 -6 47 12 0 18 -40 26 -50
10z"/>
<path d="M5185 4640 c-4 -7 -3 -16 3 -22 14 -14 47 -6 47 12 0 18 -40 26 -50
10z"/>
<path d="M5256 4642 c-9 -14 21 -35 40 -28 8 3 14 12 12 19 -6 15 -44 22 -52
9z"/>
<path d="M5335 4640 c-11 -18 13 -36 31 -25 9 6 16 15 17 20 3 14 -40 18 -48
5z"/>
<path d="M5405 4640 c-4 -7 -3 -16 3 -22 14 -14 47 -6 47 12 0 18 -40 26 -50
10z"/>
<path d="M5474 4639 c-4 -7 0 -17 8 -23 9 -6 17 -20 19 -31 6 -31 24 -13 24
25 0 28 -4 36 -22 38 -11 2 -24 -2 -29 -9z"/>
<path d="M4213 4604 c-3 -8 1 -23 10 -32 15 -14 17 -14 23 1 8 21 -1 47 -16
47 -6 0 -13 -7 -17 -16z"/>
<path d="M3217 4583 c-11 -10 -8 -53 3 -53 13 0 32 38 25 50 -7 12 -19 13 -28
3z"/>
<path d="M3275 4580 c-4 -7 -3 -16 3 -22 14 -14 45 -2 40 15 -6 16 -34 21 -43
7z"/>
<path d="M3345 4580 c-4 -7 -3 -16 3 -22 14 -14 47 -6 47 12 0 18 -40 26 -50
10z"/>
<path d="M3415 4580 c-4 -7 -3 -16 3 -22 14 -14 47 -6 47 12 0 18 -40 26 -50
10z"/>
<path d="M3485 4580 c-4 -7 -3 -16 3 -22 14 -14 47 -6 47 12 0 18 -40 26 -50
10z"/>
<path d="M3705 4580 c-4 -7 -3 -16 3 -22 14 -14 47 -6 47 12 0 18 -40 26 -50
10z"/>
<path d="M3776 4582 c-9 -14 21 -35 40 -28 8 3 14 12 12 19 -6 15 -44 22 -52
9z"/>
<path d="M3855 4580 c-4 -7 -3 -16 3 -22 14 -14 47 -6 47 12 0 18 -40 26 -50
10z"/>
<path d="M3925 4580 c-4 -7 -3 -16 3 -22 14 -14 47 -6 47 12 0 18 -40 26 -50
10z"/>
<path d="M3995 4580 c-4 -7 -3 -16 3 -22 14 -14 47 -6 47 12 0 18 -40 26 -50
10z"/>
<path d="M4075 4580 c-4 -7 -3 -16 3 -22 14 -14 45 -2 40 15 -6 16 -34 21 -43
7z"/>
<path d="M4145 4580 c-8 -14 3 -30 21 -30 8 0 14 -9 14 -20 0 -21 43 -45 61
-34 18 11 9 45 -15 53 -13 5 -26 17 -29 25 -7 18 -42 22 -52 6z"/>
<path d="M2050 4540 c0 -16 5 -21 23 -18 12 2 22 10 22 18 0 8 -10 16 -22 18
-18 3 -23 -2 -23 -18z"/>
<path d="M2125 4551 c-9 -16 3 -31 26 -31 14 0 19 6 17 17 -4 20 -33 29 -43
14z"/>
<path d="M2195 4550 c-4 -7 -3 -16 3 -22 14 -14 47 -6 47 12 0 18 -40 26 -50
10z"/>
<path d="M2265 4550 c-4 -7 -3 -16 3 -22 14 -14 47 -6 47 12 0 18 -40 26 -50
10z"/>
<path d="M2335 4550 c-4 -7 -3 -16 3 -22 14 -14 47 -6 47 12 0 18 -40 26 -50
10z"/>
<path d="M2415 4550 c-4 -7 -3 -16 3 -22 14 -14 47 -6 47 12 0 18 -40 26 -50
10z"/>
<path d="M2485 4550 c-4 -7 -3 -16 3 -22 14 -14 47 -6 47 12 0 18 -40 26 -50
10z"/>
<path d="M2555 4550 c-4 -7 -3 -16 3 -22 14 -14 47 -6 47 12 0 18 -40 26 -50
10z"/>
<path d="M2635 4550 c-4 -7 -3 -16 3 -22 14 -14 45 -2 40 15 -6 16 -34 21 -43
7z"/>
<path d="M2705 4550 c-4 -7 -3 -16 3 -22 14 -14 47 -6 47 12 0 18 -40 26 -50
10z"/>
<path d="M2775 4550 c-4 -7 -3 -16 3 -22 14 -14 47 -6 47 12 0 18 -40 26 -50
10z"/>
<path d="M2845 4550 c-4 -7 -3 -16 3 -22 14 -14 47 -6 47 12 0 18 -40 26 -50
10z"/>
<path d="M2995 4550 c-4 -7 -3 -16 3 -22 14 -14 47 -6 47 12 0 18 -40 26 -50
10z"/>
<path d="M3065 4550 c-4 -7 -3 -16 3 -22 14 -14 47 -6 47 12 0 18 -40 26 -50
10z"/>
<path d="M3134 4549 c-4 -7 0 -17 9 -24 10 -7 17 -15 17 -19 0 -4 -48 -7 -107
-6 -60 1 -294 1 -520 1 l-413 -1 0 -210 0 -210 350 0 c193 0 350 -2 350 -4 0
-2 -7 -23 -15 -46 -8 -23 -15 -49 -15 -57 0 -9 6 -13 15 -9 13 5 15 -21 15
-194 l0 -200 149 0 c91 0 152 -4 156 -10 9 -15 25 -2 25 20 0 26 -21 36 -35
17 -10 -14 -33 -17 -149 -17 l-136 0 0 195 c0 167 2 195 15 195 8 0 15 4 15 9
0 5 -7 28 -15 51 -8 23 -15 44 -15 46 0 2 74 4 165 4 103 0 165 -4 165 -10 0
-5 7 -10 15 -10 18 0 20 41 3 58 -9 9 -9 12 0 12 15 0 16 42 1 57 -8 8 -8 13
0 17 15 10 14 53 -1 60 -10 5 -10 7 0 12 6 3 12 16 12 29 0 13 -6 26 -12 29
-10 5 -10 7 0 12 15 7 16 46 1 61 -8 8 -8 13 0 17 14 9 14 56 0 56 -8 0 -8 4
1 14 18 23 8 61 -17 64 -11 2 -24 -2 -29 -9z m26 -259 l0 -200 -515 0 -515 0
0 200 0 200 515 0 515 0 0 -200z"/>
<path d="M2170 4385 c0 -30 5 -55 10 -55 6 0 10 17 10 37 l0 38 25 -38 c14
-20 30 -37 35 -37 6 0 10 25 10 55 0 59 -17 76 -22 23 l-3 -33 -20 33 c-30 49
-45 41 -45 -23z"/>
<path d="M2280 4385 c0 -42 3 -55 15 -55 8 0 15 6 15 14 0 8 12 17 28 19 l27
4 -27 2 c-25 1 -28 5 -28 36 0 24 -5 35 -15 35 -12 0 -15 -13 -15 -55z"/>
<path d="M2370 4385 c0 -30 5 -55 10 -55 6 0 10 11 10 25 0 16 6 25 15 25 9 0
21 -11 27 -25 6 -14 18 -25 26 -25 12 0 12 3 0 23 -11 16 -12 27 -5 38 18 29
1 49 -43 49 l-40 0 0 -55z m70 25 c0 -15 -7 -20 -25 -20 -18 0 -25 5 -25 20 0
15 7 20 25 20 18 0 25 -5 25 -20z"/>
<path d="M2480 4385 c0 -42 3 -55 15 -55 12 0 15 13 15 55 0 42 -3 55 -15 55
-12 0 -15 -13 -15 -55z"/>
<path d="M2532 4428 c-17 -17 -15 -73 2 -87 24 -20 69 -9 85 20 13 24 13 29
-2 53 -19 28 -63 36 -85 14z m62 -14 c9 -8 16 -22 16 -29 0 -14 -26 -45 -39
-45 -14 0 -31 24 -31 45 0 21 17 45 31 45 4 0 15 -7 23 -16z"/>
<path d="M2680 4385 l0 -55 48 2 c43 1 44 2 10 5 -29 3 -38 9 -38 23 0 14 9
20 33 23 l32 4 -32 1 c-25 2 -33 7 -33 21 0 15 8 21 38 24 34 3 33 4 -10 5
l-48 2 0 -55z"/>
<path d="M2780 4386 c0 -31 5 -56 10 -56 6 0 10 11 10 24 0 21 6 25 33 28 27
2 32 7 32 28 0 22 -5 25 -42 28 l-43 3 0 -55z m65 24 c0 -8 -10 -16 -22 -18
-18 -3 -23 2 -23 18 0 16 5 21 23 18 12 -2 22 -10 22 -18z"/>
<path d="M2890 4385 c0 -30 5 -55 10 -55 6 0 10 25 10 55 0 30 -4 55 -10 55
-5 0 -10 -25 -10 -55z"/>
<path d="M2936 4424 c-34 -33 -9 -94 38 -94 25 0 54 26 42 37 -3 4 -13 -2 -21
-13 -19 -26 -50 -7 -50 31 0 37 31 57 49 33 7 -10 16 -15 19 -11 12 11 -14 33
-39 33 -12 0 -30 -7 -38 -16z"/>
<path d="M3040 4425 c-16 -19 0 -40 35 -49 14 -4 25 -11 25 -17 0 -16 -29 -22
-45 -9 -9 7 -19 10 -22 6 -12 -12 20 -26 52 -24 23 2 31 9 33 26 3 18 -3 26
-27 35 -17 6 -31 17 -31 24 0 16 22 17 38 1 6 -6 15 -8 19 -4 10 10 -17 26
-43 26 -12 0 -27 -7 -34 -15z"/>
<path d="M2200 4205 l0 -55 40 0 c25 0 42 6 48 16 8 14 10 14 21 0 16 -19 57
-21 67 -5 5 8 -1 10 -18 6 -18 -5 -28 -2 -32 8 -4 11 2 15 25 15 24 0 30 4 27
18 -4 20 -43 28 -62 13 -10 -8 -16 -5 -24 14 -10 21 -19 25 -52 25 l-40 0 0
-55z m69 23 c11 -31 -2 -62 -28 -66 -19 -3 -21 1 -21 42 0 40 3 46 20 46 12 0
24 -9 29 -22z m86 -18 c3 -5 -1 -10 -9 -10 -9 0 -16 5 -16 10 0 6 4 10 9 10 6
0 13 -4 16 -10z"/>
<path d="M2700 4205 l0 -55 38 0 c46 0 62 14 62 55 0 41 -16 55 -62 55 l-38 0
0 -55z m68 33 c25 -25 8 -78 -25 -78 -9 0 -13 15 -13 45 0 46 13 58 38 33z"/>
<path d="M2390 4221 c0 -22 23 -71 34 -71 10 0 36 52 36 73 0 19 -21 3 -27
-20 l-6 -28 -10 28 c-8 25 -27 38 -27 18z"/>
<path d="M2470 4190 c0 -22 5 -40 10 -40 6 0 10 18 10 40 0 22 -4 40 -10 40
-5 0 -10 -18 -10 -40z"/>
<path d="M2504 4216 c-3 -8 -4 -25 -2 -38 3 -26 40 -37 63 -18 9 7 15 8 20 0
8 -14 52 -13 61 1 5 8 -1 10 -18 6 -18 -5 -28 -2 -32 8 -4 11 2 15 25 15 24 0
30 4 27 18 -4 20 -43 28 -63 12 -9 -7 -15 -8 -20 0 -9 15 -55 12 -61 -4z m66
-26 c0 -22 -39 -34 -47 -14 -3 8 -3 20 0 28 8 20 47 8 47 -14z m55 20 c3 -5
-1 -10 -9 -10 -9 0 -16 5 -16 10 0 6 4 10 9 10 6 0 13 -4 16 -10z"/>
<path d="M2810 4190 c0 -47 17 -54 22 -8 4 46 28 49 28 4 0 -20 5 -36 10 -36
6 0 10 18 10 40 0 39 -1 40 -35 40 -34 0 -35 -1 -35 -40z"/>
<path d="M2890 4221 c0 -22 23 -71 34 -71 10 0 36 52 36 73 0 19 -21 3 -27
-20 l-6 -28 -10 28 c-8 25 -27 38 -27 18z"/>
<path d="M2970 4211 c-15 -29 3 -61 35 -61 13 0 27 4 30 10 4 6 -3 9 -16 7
-12 -1 -24 4 -26 11 -3 7 5 12 22 12 20 0 26 4 23 18 -5 26 -54 28 -68 3z m45
-1 c3 -5 -1 -10 -10 -10 -9 0 -13 5 -10 10 3 6 8 10 10 10 2 0 7 -4 10 -10z"/>
<path d="M3050 4190 c0 -22 5 -40 10 -40 6 0 10 9 10 19 0 28 11 52 21 45 5
-3 9 0 9 5 0 6 -11 11 -25 11 -22 0 -25 -4 -25 -40z"/>
<path d="M5542 4540 c0 -14 2 -19 5 -12 2 6 2 18 0 25 -3 6 -5 1 -5 -13z"/>
<path d="M5506 4543 c-12 -13 -6 -53 9 -53 9 0 15 9 15 24 0 26 -12 40 -24 29z"/>
<path d="M2057 4504 c-4 -4 -7 -18 -7 -31 0 -28 23 -27 28 1 4 20 -11 40 -21
30z"/>
<path d="M3210 4485 c0 -16 6 -25 15 -25 9 0 15 9 15 25 0 16 -6 25 -15 25 -9
0 -15 -9 -15 -25z"/>
<path d="M5541 4464 c0 -11 3 -14 6 -6 3 7 2 16 -1 19 -3 4 -6 -2 -5 -13z"/>
<path d="M5500 4445 c0 -16 6 -25 15 -25 9 0 15 9 15 25 0 16 -6 25 -15 25 -9
0 -15 -9 -15 -25z"/>
<path d="M3212 4415 c2 -14 8 -26 13 -26 6 0 11 12 13 26 2 18 -1 25 -13 25
-12 0 -15 -7 -13 -25z"/>
<path d="M2050 4405 c0 -16 6 -25 15 -25 9 0 15 9 15 25 0 16 -6 25 -15 25 -9
0 -15 -9 -15 -25z"/>
<path d="M530 3835 l0 -585 495 0 495 0 0 585 0 585 -495 0 -495 0 0 -585z
m980 0 l0 -575 -485 0 -485 0 0 575 0 575 485 0 485 0 0 -575z"/>
<path d="M702 4253 l-2 -73 40 0 c22 0 40 5 40 10 0 6 -16 10 -35 10 l-34 0
-4 63 -3 62 -2 -72z"/>
<path d="M1110 4250 c0 -40 4 -70 10 -70 6 0 10 30 10 70 0 40 -4 70 -10 70
-6 0 -10 -30 -10 -70z"/>
<path d="M1222 4308 c-19 -19 -14 -30 7 -17 21 14 51 6 51 -14 0 -8 -16 -28
-35 -46 -19 -17 -35 -36 -35 -41 0 -6 20 -10 45 -10 25 0 45 5 45 10 0 6 -16
10 -36 10 l-36 0 31 26 c48 40 40 94 -13 94 -7 0 -17 -5 -24 -12z"/>
<path d="M1370 4250 l0 -69 35 3 c43 3 48 8 48 47 0 34 -18 52 -45 45 -13 -3
-18 2 -18 20 0 13 -4 24 -10 24 -6 0 -10 -30 -10 -70z m65 -20 c0 -16 -6 -26
-18 -28 -19 -4 -32 20 -23 44 9 25 41 13 41 -16z"/>
<path d="M818 4269 c-25 -14 -23 -65 2 -79 12 -6 30 -8 40 -5 30 10 24 22 -9
17 -16 -2 -32 1 -35 7 -5 7 7 11 33 11 45 0 48 5 25 38 -17 24 -30 27 -56 11z
m47 -19 c4 -6 -7 -10 -25 -10 -18 0 -29 4 -25 10 3 6 15 10 25 10 10 0 22 -4
25 -10z"/>
<path d="M918 4233 c10 -27 22 -46 27 -44 13 5 46 91 35 91 -5 0 -14 -16 -20
-35 -13 -40 -25 -38 -35 5 -4 17 -11 30 -16 30 -5 0 -1 -21 9 -47z"/>
<path d="M1016 4264 c-9 -8 -16 -24 -16 -34 0 -41 55 -65 80 -35 11 13 8 14
-18 9 -17 -4 -32 -1 -36 5 -5 7 5 11 28 11 25 0 36 5 36 14 0 18 -27 46 -45
46 -7 0 -21 -7 -29 -16z m54 -14 c0 -5 -12 -10 -26 -10 -14 0 -23 4 -19 10 3
6 15 10 26 10 10 0 19 -4 19 -10z"/>
<path d="M1320 4190 c0 -5 5 -10 10 -10 6 0 10 5 10 10 0 6 -4 10 -10 10 -5 0
-10 -4 -10 -10z"/>
<path d="M702 3423 l-2 -73 40 0 c22 0 40 5 40 10 0 6 -16 10 -35 10 l-34 0
-4 63 -3 62 -2 -72z"/>
<path d="M1110 3420 c0 -40 4 -70 10 -70 6 0 10 30 10 70 0 40 -4 70 -10 70
-6 0 -10 -30 -10 -70z"/>
<path d="M1222 3478 c-19 -19 -14 -30 7 -17 21 14 51 6 51 -14 0 -8 -16 -28
-35 -46 -19 -17 -35 -36 -35 -41 0 -6 20 -10 45 -10 25 0 45 5 45 10 0 6 -16
10 -36 10 l-36 0 31 26 c48 40 40 94 -13 94 -7 0 -17 -5 -24 -12z"/>
<path d="M818 3439 c-25 -14 -23 -65 2 -79 12 -6 30 -8 40 -5 30 10 24 22 -9
17 -16 -2 -32 1 -35 7 -5 7 7 11 33 11 45 0 48 5 25 38 -17 24 -30 27 -56 11z
m47 -19 c4 -6 -7 -10 -25 -10 -18 0 -29 4 -25 10 3 6 15 10 25 10 10 0 22 -4
25 -10z"/>
<path d="M918 3403 c10 -27 22 -46 27 -44 13 5 46 91 35 91 -5 0 -14 -16 -20
-35 -13 -40 -25 -38 -35 5 -4 17 -11 30 -16 30 -5 0 -1 -21 9 -47z"/>
<path d="M1016 3434 c-9 -8 -16 -24 -16 -34 0 -41 55 -65 80 -35 11 13 8 14
-18 9 -17 -4 -32 -1 -36 5 -5 7 5 11 28 11 25 0 36 5 36 14 0 18 -27 46 -45
46 -7 0 -21 -7 -29 -16z m54 -14 c0 -5 -12 -10 -26 -10 -14 0 -23 4 -19 10 3
6 15 10 26 10 10 0 19 -4 19 -10z"/>
<path d="M1380 3436 c-11 -14 -9 -15 19 -10 21 4 31 3 31 -5 0 -7 -3 -10 -7
-8 -5 3 -18 1 -31 -4 -17 -6 -22 -15 -20 -31 2 -19 9 -23 43 -24 l41 -1 -6 46
c-4 40 -8 46 -31 49 -14 2 -31 -4 -39 -12z m54 -51 c-7 -16 -39 -20 -49 -6 -3
5 3 12 12 14 34 9 42 7 37 -8z"/>
<path d="M1320 3360 c0 -5 5 -10 10 -10 6 0 10 5 10 10 0 6 -4 10 -10 10 -5 0
-10 -4 -10 -10z"/>
<path d="M3540 4360 c0 -33 4 -60 10 -60 6 0 10 21 10 48 l0 47 31 -47 c17
-27 35 -48 40 -48 5 0 9 27 9 60 0 68 -17 82 -22 18 l-3 -42 -28 42 c-15 23
-32 42 -37 42 -6 0 -10 -27 -10 -60z"/>
<path d="M3670 4360 c0 -59 0 -60 28 -60 41 0 65 22 65 58 0 42 -19 62 -59 62
l-34 0 0 -60z m74 34 c18 -46 -1 -84 -41 -84 -21 0 -23 4 -23 50 0 48 1 50 29
50 17 0 31 -6 35 -16z"/>
<path d="M3800 4405 c-16 -19 -6 -32 37 -50 19 -8 33 -20 31 -27 -7 -20 -38
-21 -59 -2 -10 9 -19 12 -19 6 0 -18 39 -34 66 -28 37 10 31 44 -11 62 -19 8
-35 19 -35 24 0 18 32 24 54 10 19 -12 20 -12 7 3 -17 21 -54 22 -71 2z"/>
<path d="M5541 4394 c0 -11 3 -14 6 -6 3 7 2 16 -1 19 -3 4 -6 -2 -5 -13z"/>
<path d="M5502 4375 c2 -14 8 -26 13 -26 6 0 11 12 13 26 2 18 -1 25 -13 25
-12 0 -15 -7 -13 -25z"/>
<path d="M3210 4339 c0 -38 24 -35 28 4 2 19 -1 27 -12 27 -11 0 -16 -10 -16
-31z"/>
<path d="M2052 4336 c2 -15 8 -26 13 -26 15 0 12 43 -3 48 -10 3 -13 -4 -10
-22z"/>
<path d="M5542 4320 c0 -14 2 -19 5 -12 2 6 2 18 0 25 -3 6 -5 1 -5 -13z"/>
<path d="M5507 4324 c-4 -4 -7 -18 -7 -31 0 -28 23 -27 28 1 4 20 -11 40 -21
30z"/>
<path d="M3217 4293 c-13 -13 -7 -53 8 -53 10 0 15 10 15 30 0 29 -9 38 -23
23z"/>
<path d="M2050 4260 c0 -21 4 -30 13 -27 6 2 12 14 12 27 0 13 -6 25 -12 28
-9 2 -13 -7 -13 -28z"/>
<path d="M5542 4250 c0 -14 2 -19 5 -12 2 6 2 18 0 25 -3 6 -5 1 -5 -13z"/>
<path d="M5506 4253 c-12 -13 -6 -53 9 -53 9 0 15 9 15 24 0 26 -12 40 -24 29z"/>
<path d="M3603 4190 c0 -25 2 -35 4 -22 2 12 2 32 0 45 -2 12 -4 2 -4 -23z"/>
<path d="M3632 4223 c11 -3 18 -17 21 -41 l4 -37 1 38 c3 50 32 53 32 2 0 -35
0 -35 45 -35 38 0 45 3 45 20 0 26 14 25 33 -2 9 -13 16 -18 16 -11 1 6 -4 15
-9 18 -8 5 -7 11 0 20 17 20 3 35 -31 35 -27 0 -29 -3 -29 -35 0 -31 -3 -35
-25 -35 -32 0 -34 27 -2 33 l22 4 -22 2 c-13 0 -23 5 -23 10 0 5 10 12 23 14
12 2 -9 4 -48 4 -38 1 -62 -1 -53 -4z m188 -13 c0 -5 -9 -10 -20 -10 -11 0
-20 5 -20 10 0 6 9 10 20 10 11 0 20 -4 20 -10z"/>
<path d="M3849 4208 c7 -20 7 -36 0 -55 -8 -22 -8 -25 2 -16 7 7 12 26 12 43
0 17 -5 36 -12 43 -10 9 -10 6 -2 -15z"/>
<path d="M2056 4213 c-12 -13 -6 -53 9 -53 9 0 15 9 15 24 0 26 -12 40 -24 29z"/>
<path d="M3210 4195 c0 -16 6 -25 15 -25 9 0 15 9 15 25 0 16 -6 25 -15 25 -9
0 -15 -9 -15 -25z"/>
<path d="M3567 4213 c-9 -9 -9 -55 1 -70 4 -7 7 8 7 33 0 24 0 44 -1 44 0 0
-4 -3 -7 -7z"/>
<path d="M5541 4174 c0 -11 3 -14 6 -6 3 7 2 16 -1 19 -3 4 -6 -2 -5 -13z"/>
<path d="M5502 4155 c2 -14 8 -26 13 -26 6 0 11 12 13 26 2 18 -1 25 -13 25
-12 0 -15 -7 -13 -25z"/>
<path d="M3212 4125 c2 -14 8 -26 13 -26 6 0 11 12 13 26 2 18 -1 25 -13 25
-12 0 -15 -7 -13 -25z"/>
<path d="M2052 4115 c2 -14 8 -26 13 -26 6 0 11 12 13 26 2 18 -1 25 -13 25
-12 0 -15 -7 -13 -25z"/>
<path d="M5542 4100 c0 -14 2 -19 5 -12 2 6 2 18 0 25 -3 6 -5 1 -5 -13z"/>
<path d="M5502 4086 c2 -15 8 -26 13 -26 15 0 12 43 -3 48 -10 3 -13 -4 -10
-22z"/>
<path d="M3217 4074 c-4 -4 -7 -18 -7 -31 0 -28 23 -27 28 1 4 20 -11 40 -21
30z"/>
<path d="M2050 4040 c0 -21 4 -30 13 -27 6 2 12 14 12 27 0 13 -6 25 -12 28
-9 2 -13 -7 -13 -28z"/>
<path d="M3763 4008 c-18 -52 -19 -60 -5 -65 8 -4 22 -2 31 4 11 7 23 7 38 0
12 -5 29 -7 38 -3 14 5 15 9 4 22 -7 8 -20 13 -30 11 -13 -4 -20 6 -29 39 -7
25 -16 46 -19 48 -4 3 -16 -23 -28 -56z"/>
<path d="M4187 4043 c-15 -14 -6 -44 15 -52 l22 -8 -22 -5 c-14 -4 -22 -14
-22 -27 0 -16 -6 -21 -27 -20 -28 0 -28 0 -5 10 26 10 25 32 -2 37 -28 6 -38
-11 -27 -41 10 -27 44 -37 56 -17 3 5 13 6 22 3 10 -4 14 -2 10 4 -4 6 3 13
14 16 14 4 20 11 16 21 -3 8 -2 18 3 21 20 12 10 46 -16 55 -30 12 -29 12 -37
3z"/>
<path d="M5542 4030 c0 -14 2 -19 5 -12 2 6 2 18 0 25 -3 6 -5 1 -5 -13z"/>
<path d="M3162 3983 c0 -32 2 -62 5 -66 3 -4 16 3 30 17 20 20 28 23 43 14 21
-13 53 -3 47 15 -2 6 -12 12 -23 12 -10 0 -23 9 -27 20 -8 19 -9 19 -21 3 -20
-27 -33 -21 -28 12 3 22 0 30 -11 30 -12 0 -15 -12 -15 -57z"/>
<path d="M5507 4034 c-4 -4 -7 -18 -7 -31 0 -28 23 -27 28 1 4 20 -11 40 -21
30z"/>
<path d="M2057 3994 c-4 -4 -7 -18 -7 -31 0 -28 23 -27 28 1 4 20 -11 40 -21
30z"/>
<path d="M3120 3966 c-14 -18 -6 -50 13 -44 15 6 22 37 10 49 -6 6 -15 4 -23
-5z"/>
<path d="M3315 3970 c-4 -7 -3 -16 3 -22 14 -14 47 -6 47 12 0 18 -40 26 -50
10z"/>
<path d="M3385 3970 c-4 -7 -3 -16 3 -22 14 -14 47 -6 47 12 0 18 -40 26 -50
10z"/>
<path d="M3455 3970 c-4 -7 -3 -16 3 -22 14 -14 47 -6 47 12 0 18 -40 26 -50
10z"/>
<path d="M3535 3971 c-9 -16 3 -31 26 -31 14 0 19 6 17 17 -4 20 -33 29 -43
14z"/>
<path d="M3605 3970 c-4 -7 -3 -16 3 -22 14 -14 47 -6 47 12 0 18 -40 26 -50
10z"/>
<path d="M3675 3970 c-4 -7 -3 -16 3 -22 14 -14 47 -6 47 12 0 18 -40 26 -50
10z"/>
<path d="M3895 3970 c-4 -7 -3 -16 3 -22 14 -14 47 -6 47 12 0 18 -40 26 -50
10z"/>
<path d="M3965 3970 c-4 -7 -3 -16 3 -22 14 -14 47 -6 47 12 0 18 -40 26 -50
10z"/>
<path d="M4047 3974 c-16 -16 -6 -35 16 -32 12 2 22 10 22 18 0 16 -26 25 -38
14z"/>
<path d="M5541 3954 c0 -11 3 -14 6 -6 3 7 2 16 -1 19 -3 4 -6 -2 -5 -13z"/>
<path d="M5500 3935 c0 -16 6 -25 15 -25 9 0 15 9 15 25 0 16 -6 25 -15 25 -9
0 -15 -9 -15 -25z"/>
<path d="M3211 3902 c2 -15 0 -32 -3 -37 -8 -13 2 -65 12 -65 4 0 16 12 25 27
15 22 15 28 4 37 -8 6 -13 23 -11 39 2 20 -1 27 -13 27 -12 0 -16 -7 -14 -28z"/>
<path d="M3781 3923 c-1 -7 -8 -13 -17 -13 -11 0 -15 -6 -11 -19 3 -15 -1 -21
-16 -23 -11 -2 -22 -9 -25 -15 -5 -18 27 -28 48 -15 21 13 31 6 23 -14 -4 -11
-47 -14 -234 -14 l-229 0 0 -111 0 -111 -29 7 c-21 4 -30 2 -34 -9 -11 -27
-25 -17 -23 15 0 18 -5 34 -11 36 -9 3 -13 -6 -13 -26 0 -25 -4 -30 -27 -34
l-28 -4 28 -2 c23 -1 27 -5 27 -31 0 -34 19 -41 27 -10 4 14 19 24 49 32 l44
12 0 113 0 113 300 0 300 0 0 -220 0 -220 -300 0 -299 0 -4 103 -3 102 -2
-107 -2 -108 310 0 310 0 0 230 0 230 -70 0 c-67 0 -93 12 -50 23 21 5 29 37
9 37 -6 0 -8 9 -4 20 5 15 2 20 -13 20 -11 0 -23 6 -25 13 -4 10 -6 10 -6 0z"/>
<path d="M2050 3895 c0 -16 6 -25 15 -25 9 0 15 9 15 25 0 16 -6 25 -15 25 -9
0 -15 -9 -15 -25z"/>
<path d="M4116 3903 c-12 -13 -6 -53 9 -53 9 0 15 9 15 24 0 26 -12 40 -24 29z"/>
<path d="M3113 3884 c-3 -8 1 -23 10 -32 15 -14 17 -14 23 1 8 21 -1 47 -16
47 -6 0 -13 -7 -17 -16z"/>
<path d="M3164 3886 c-7 -20 2 -46 16 -46 13 0 13 47 0 55 -6 3 -13 -1 -16 -9z"/>
<path d="M5541 3884 c0 -11 3 -14 6 -6 3 7 2 16 -1 19 -3 4 -6 -2 -5 -13z"/>
<path d="M5502 3865 c2 -14 8 -26 13 -26 6 0 11 12 13 26 2 18 -1 25 -13 25
-12 0 -15 -7 -13 -25z"/>
<path d="M3282 3853 c2 -10 12 -18 23 -18 11 0 21 8 23 18 3 13 -3 17 -23 17
-20 0 -26 -4 -23 -17z"/>
<path d="M3355 3860 c-11 -18 13 -36 31 -25 9 6 16 15 17 20 3 14 -40 18 -48
5z"/>
<path d="M3425 3860 c-4 -7 -3 -16 3 -22 14 -14 47 -6 47 12 0 18 -40 26 -50
10z"/>
<path d="M3496 3862 c-9 -14 21 -35 40 -28 8 3 14 12 12 19 -6 15 -44 22 -52
9z"/>
<path d="M3570 3855 c0 -21 27 -30 45 -15 19 16 10 30 -21 30 -15 0 -24 -6
-24 -15z"/>
<path d="M3645 3860 c-4 -7 -3 -16 3 -22 14 -14 47 -6 47 12 0 18 -40 26 -50
10z"/>
<path d="M3865 3860 c-11 -18 13 -36 31 -25 9 6 16 15 17 20 3 14 -40 18 -48
5z"/>
<path d="M3935 3860 c-4 -7 -3 -16 3 -22 14 -14 47 -6 47 12 0 18 -40 26 -50
10z"/>
<path d="M4005 3860 c-11 -17 6 -32 31 -27 19 3 24 0 24 -15 0 -13 6 -18 17
-16 31 6 26 35 -8 52 -37 18 -55 20 -64 6z"/>
<path d="M2052 3826 c2 -15 8 -26 13 -26 15 0 12 43 -3 48 -10 3 -13 -4 -10
-22z"/>
<path d="M3114 3816 c-8 -22 3 -49 19 -43 6 2 12 14 12 27 0 27 -22 39 -31 16z"/>
<path d="M4112 3805 c2 -14 8 -26 13 -26 6 0 11 12 13 26 2 18 -1 25 -13 25
-12 0 -15 -7 -13 -25z"/>
<path d="M5542 3810 c0 -14 2 -19 5 -12 2 6 2 18 0 25 -3 6 -5 1 -5 -13z"/>
<path d="M5500 3790 c0 -21 4 -30 13 -27 6 2 12 14 12 27 0 13 -6 25 -12 28
-9 2 -13 -7 -13 -28z"/>
<path d="M3216 3783 c-12 -13 -6 -53 9 -53 9 0 15 9 15 24 0 26 -12 40 -24 29z"/>
<path d="M2050 3750 c0 -21 4 -30 13 -27 6 2 12 14 12 27 0 13 -6 25 -12 28
-9 2 -13 -7 -13 -28z"/>
<path d="M4064 3765 c-4 -8 -3 -23 0 -32 6 -15 8 -15 23 -1 16 17 12 48 -7 48
-6 0 -13 -7 -16 -15z"/>
<path d="M3114 3746 c-8 -22 3 -49 19 -43 6 2 12 14 12 27 0 27 -22 39 -31 16z"/>
<path d="M4114 3745 c-8 -20 3 -48 16 -40 13 8 13 55 0 55 -6 0 -13 -7 -16
-15z"/>
<path d="M5542 3740 c0 -14 2 -19 5 -12 2 6 2 18 0 25 -3 6 -5 1 -5 -13z"/>
<path d="M3470 3690 c0 -33 4 -60 10 -60 6 0 10 27 10 60 0 33 -4 60 -10 60
-6 0 -10 -27 -10 -60z"/>
<path d="M3521 3688 c1 -35 4 -51 6 -35 6 35 36 36 59 2 9 -14 21 -25 26 -25
6 0 3 12 -7 26 -13 20 -14 28 -5 34 6 4 10 18 8 31 -2 20 -9 24 -45 27 l-43 3
1 -63z m74 27 c0 -15 -8 -21 -32 -23 -30 -3 -33 -1 -33 23 0 24 3 26 33 23 24
-2 32 -8 32 -23z"/>
<path d="M3640 3690 c0 -33 4 -60 10 -60 6 0 10 27 10 60 0 33 -4 60 -10 60
-6 0 -10 -27 -10 -60z"/>
<path d="M3700 3730 c-11 -11 -20 -29 -20 -40 0 -11 9 -29 20 -40 11 -11 29
-20 40 -20 11 0 29 9 40 20 11 11 20 29 20 40 0 11 -9 29 -20 40 -11 11 -29
20 -40 20 -11 0 -29 -9 -40 -20z m69 -4 c31 -37 -9 -103 -46 -80 -37 23 -24
94 17 94 10 0 23 -6 29 -14z"/>
<path d="M5506 3743 c-12 -13 -6 -53 9 -53 9 0 15 9 15 24 0 26 -12 40 -24 29z"/>
<path d="M2056 3703 c-12 -13 -6 -53 9 -53 9 0 15 9 15 24 0 26 -12 40 -24 29z"/>
<path d="M3210 3685 c0 -16 6 -25 15 -25 9 0 15 9 15 25 0 16 -6 25 -15 25 -9
0 -15 -9 -15 -25z"/>
<path d="M4064 3696 c-8 -22 3 -49 19 -43 6 2 12 14 12 27 0 27 -22 39 -31 16z"/>
<path d="M3114 3665 c-7 -18 3 -35 22 -35 8 0 14 10 14 25 0 27 -27 35 -36 10z"/>
<path d="M5541 3664 c0 -11 3 -14 6 -6 3 7 2 16 -1 19 -3 4 -6 -2 -5 -13z"/>
<path d="M5500 3645 c0 -16 6 -25 15 -25 9 0 15 9 15 25 0 16 -6 25 -15 25 -9
0 -15 -9 -15 -25z"/>
<path d="M2052 3605 c2 -14 8 -26 13 -26 6 0 11 12 13 26 2 18 -1 25 -13 25
-12 0 -15 -7 -13 -25z"/>
<path d="M5542 3590 c0 -14 2 -19 5 -12 2 6 2 18 0 25 -3 6 -5 1 -5 -13z"/>
<path d="M5502 3576 c2 -15 8 -26 13 -26 15 0 12 43 -3 48 -10 3 -13 -4 -10
-22z"/>
<path d="M2050 3530 c0 -21 4 -30 13 -27 6 2 12 14 12 27 0 13 -6 25 -12 28
-9 2 -13 -7 -13 -28z"/>
<path d="M3114 3526 c-8 -22 3 -49 19 -43 6 2 12 14 12 27 0 27 -22 39 -31 16z"/>
<path d="M3380 3480 l0 -60 43 2 c36 1 38 2 10 5 -33 4 -33 5 -33 59 0 30 -4
54 -10 54 -6 0 -10 -27 -10 -60z"/>
<path d="M3521 3485 c-1 -56 1 -61 21 -62 29 -3 48 14 48 42 0 27 -24 49 -44
42 -10 -4 -16 2 -19 16 -2 12 -5 -5 -6 -38z m54 -4 c8 -26 -5 -53 -24 -49 -29
6 -27 68 3 68 8 0 17 -8 21 -19z"/>
<path d="M5542 3520 c0 -14 2 -19 5 -12 2 6 2 18 0 25 -3 6 -5 1 -5 -13z"/>
<path d="M5507 3524 c-4 -4 -7 -18 -7 -31 0 -28 23 -27 28 1 4 20 -11 40 -21
30z"/>
<path d="M4160 3510 c0 -5 7 -7 15 -4 8 3 19 3 24 0 16 -11 1 -36 -23 -37 -18
-1 -17 -3 7 -12 36 -14 32 -43 -6 -40 -15 1 -25 -2 -22 -8 4 -5 20 -9 36 -9
34 0 48 23 31 50 -5 9 -7 23 -2 30 14 22 0 40 -31 40 -16 0 -29 -4 -29 -10z"/>
<path d="M3483 3465 c0 -27 2 -38 4 -22 2 15 2 37 0 50 -2 12 -4 0 -4 -28z"/>
<path d="M3612 3463 c1 -40 2 -42 5 -13 2 19 11 41 20 48 15 11 14 12 -5 12
-20 0 -22 -5 -20 -47z"/>
<path d="M3677 3504 c-14 -14 -7 -26 8 -14 8 7 23 9 32 6 15 -6 15 -8 3 -16
-11 -7 -11 -10 -2 -10 10 0 10 -5 2 -20 -6 -11 -17 -20 -25 -20 -18 0 -20 26
-2 33 7 4 6 6 -4 6 -21 1 -32 -24 -16 -37 7 -6 25 -10 40 -9 26 2 28 4 25 42
-3 34 -7 40 -28 43 -14 2 -29 0 -33 -4z"/>
<path d="M3760 3465 c0 -25 5 -45 10 -45 6 0 10 18 10 40 0 32 4 40 18 40 13
0 24 -14 36 -42 15 -40 15 -44 -1 -55 -9 -7 -12 -13 -6 -13 16 0 31 22 48 70
18 52 12 66 -8 19 l-15 -34 -12 33 c-10 27 -17 32 -46 32 -34 0 -34 0 -34 -45z"/>
<path d="M3216 3493 c-12 -13 -6 -53 9 -53 9 0 15 9 15 24 0 26 -12 40 -24 29z"/>
<path d="M2057 3484 c-4 -4 -7 -18 -7 -31 0 -28 23 -27 28 1 4 20 -11 40 -21
30z"/>
<path d="M3120 3456 c-14 -18 -6 -50 13 -44 15 6 22 37 10 49 -6 6 -15 4 -23
-5z"/>
<path d="M5506 3453 c-12 -13 -6 -53 9 -53 9 0 15 9 15 24 0 26 -12 40 -24 29z"/>
<path d="M5541 3444 c0 -11 3 -14 6 -6 3 7 2 16 -1 19 -3 4 -6 -2 -5 -13z"/>
<path d="M3212 3395 c2 -14 8 -26 13 -26 6 0 11 12 13 26 2 18 -1 25 -13 25
-12 0 -15 -7 -13 -25z"/>
<path d="M2050 3385 c0 -16 6 -25 15 -25 9 0 15 9 15 25 0 16 -6 25 -15 25 -9
0 -15 -9 -15 -25z"/>
<path d="M3114 3375 c-7 -18 14 -47 27 -39 5 3 9 16 9 30 0 27 -27 34 -36 9z"/>
<path d="M5541 3374 c0 -11 3 -14 6 -6 3 7 2 16 -1 19 -3 4 -6 -2 -5 -13z"/>
<path d="M5502 3355 c2 -14 8 -26 13 -26 6 0 11 12 13 26 2 18 -1 25 -13 25
-12 0 -15 -7 -13 -25z"/>
<path d="M3210 3320 c0 -21 4 -30 13 -27 6 2 12 14 12 27 0 13 -6 25 -12 28
-9 2 -13 -7 -13 -28z"/>
<path d="M2052 3316 c2 -15 8 -26 13 -26 15 0 12 43 -3 48 -10 3 -13 -4 -10
-22z"/>
<path d="M3613 3313 c-7 -15 -13 -32 -13 -39 0 -6 -9 -14 -20 -17 -11 -3 -20
-10 -20 -16 0 -18 31 -25 51 -12 15 9 19 8 19 -4 0 -8 -9 -15 -20 -15 -11 0
-20 -7 -20 -16 0 -11 8 -14 28 -12 19 2 26 8 24 20 -2 11 5 18 20 20 36 5 29
33 -9 33 -17 0 -35 3 -39 8 -4 4 2 7 14 7 23 0 29 21 16 54 -9 23 -17 20 -31
-11z"/>
<path d="M3114 3306 c-3 -9 -3 -24 2 -33 4 -10 8 -21 8 -25 2 -16 26 -30 40
-25 21 8 20 26 -1 35 -10 4 -18 18 -18 31 0 28 -22 40 -31 17z"/>
<path d="M5542 3300 c0 -14 2 -19 5 -12 2 6 2 18 0 25 -3 6 -5 1 -5 -13z"/>
<path d="M5502 3286 c2 -15 8 -26 13 -26 15 0 12 43 -3 48 -10 3 -13 -4 -10
-22z"/>
<path d="M3235 3290 c-8 -13 20 -24 40 -16 8 3 15 10 15 16 0 13 -47 13 -55 0z"/>
<path d="M3310 3285 c0 -9 9 -15 25 -15 16 0 25 6 25 15 0 9 -9 15 -25 15 -16
0 -25 -6 -25 -15z"/>
<path d="M3380 3285 c0 -12 7 -15 25 -13 14 2 26 8 26 13 0 6 -12 11 -26 13
-18 2 -25 -1 -25 -13z"/>
<path d="M3453 3288 c2 -7 14 -13 27 -13 13 0 25 6 28 13 2 8 -7 12 -28 12
-21 0 -30 -4 -27 -12z"/>
<path d="M3527 3294 c-11 -12 3 -24 29 -24 15 0 24 6 24 15 0 15 -40 21 -53 9z"/>
<path d="M3672 3288 c5 -15 48 -18 48 -3 0 6 -11 11 -26 13 -18 3 -25 0 -22
-10z"/>
<path d="M3745 3290 c-8 -13 20 -24 40 -16 8 3 15 10 15 16 0 13 -47 13 -55 0z"/>
<path d="M3817 3294 c-11 -12 3 -24 29 -24 15 0 24 6 24 15 0 15 -40 21 -53 9z"/>
<path d="M3890 3285 c0 -12 7 -15 25 -13 14 2 26 8 26 13 0 6 -12 11 -26 13
-18 2 -25 -1 -25 -13z"/>
<path d="M3962 3288 c5 -15 48 -18 48 -3 0 6 -11 11 -26 13 -18 3 -25 0 -22
-10z"/>
<path d="M4228 3283 c7 -3 16 -2 19 1 4 3 -2 6 -13 5 -11 0 -14 -3 -6 -6z"/>
<path d="M2050 3240 c0 -21 4 -30 13 -27 6 2 12 14 12 27 0 13 -6 25 -12 28
-9 2 -13 -7 -13 -28z"/>
<path d="M3205 3250 c-4 -7 -3 -16 3 -22 14 -14 47 -6 47 12 0 18 -40 26 -50
10z"/>
<path d="M3275 3250 c-4 -7 -3 -16 3 -22 14 -14 47 -6 47 12 0 18 -40 26 -50
10z"/>
<path d="M3345 3250 c-4 -7 -3 -16 3 -22 14 -14 47 -6 47 12 0 18 -40 26 -50
10z"/>
<path d="M3422 3243 c4 -22 43 -25 43 -3 0 8 -11 16 -23 18 -19 3 -23 0 -20
-15z"/>
<path d="M3495 3250 c-4 -7 -3 -16 3 -22 14 -14 47 -6 47 12 0 18 -40 26 -50
10z"/>
<path d="M3714 3249 c-9 -15 12 -33 30 -26 9 4 16 13 16 22 0 17 -35 21 -46 4z"/>
<path d="M3785 3250 c-4 -7 -3 -16 3 -22 14 -14 47 -6 47 12 0 18 -40 26 -50
10z"/>
<path d="M3855 3250 c-4 -7 -3 -16 3 -22 14 -14 47 -6 47 12 0 18 -40 26 -50
10z"/>
<path d="M3926 3252 c-9 -14 21 -35 40 -28 8 3 14 12 12 19 -6 15 -44 22 -52
9z"/>
<path d="M4145 3250 c-4 -7 -3 -16 3 -22 14 -14 47 -6 47 12 0 18 -40 26 -50
10z"/>
<path d="M4222 3243 c4 -22 43 -25 43 -3 0 8 -11 16 -23 18 -19 3 -23 0 -20
-15z"/>
<path d="M4295 3250 c-4 -7 -3 -16 3 -22 14 -14 47 -6 47 12 0 18 -40 26 -50
10z"/>
<path d="M4365 3250 c-4 -7 -3 -16 3 -22 14 -14 47 -6 47 12 0 18 -40 26 -50
10z"/>
<path d="M4435 3250 c-4 -7 -3 -16 3 -22 14 -14 47 -6 47 12 0 18 -40 26 -50
10z"/>
<path d="M4514 3249 c-9 -15 12 -33 30 -26 9 4 16 13 16 22 0 17 -35 21 -46 4z"/>
<path d="M4585 3250 c-4 -7 -3 -16 3 -22 14 -14 47 -6 47 12 0 18 -40 26 -50
10z"/>
<path d="M4655 3250 c-4 -7 -3 -16 3 -22 14 -14 47 -6 47 12 0 18 -40 26 -50
10z"/>
<path d="M4726 3252 c-9 -14 21 -35 40 -28 8 3 14 12 12 19 -6 15 -44 22 -52
9z"/>
<path d="M4805 3250 c-4 -7 -3 -16 3 -22 14 -14 47 -6 47 12 0 18 -40 26 -50
10z"/>
<path d="M4875 3250 c-4 -7 -3 -16 3 -22 14 -14 47 -6 47 12 0 18 -40 26 -50
10z"/>
<path d="M4945 3250 c-4 -7 -3 -16 3 -22 14 -14 47 -6 47 12 0 18 -40 26 -50
10z"/>
<path d="M5022 3243 c4 -22 43 -25 43 -3 0 8 -11 16 -23 18 -19 3 -23 0 -20
-15z"/>
<path d="M5095 3250 c-4 -7 -3 -16 3 -22 14 -14 47 -6 47 12 0 18 -40 26 -50
10z"/>
<path d="M5165 3250 c-4 -7 -3 -16 3 -22 14 -14 47 -6 47 12 0 18 -40 26 -50
10z"/>
<path d="M5235 3250 c-4 -7 -3 -16 3 -22 14 -14 47 -6 47 12 0 18 -40 26 -50
10z"/>
<path d="M5314 3249 c-9 -15 12 -33 30 -26 9 4 16 13 16 22 0 17 -35 21 -46 4z"/>
<path d="M5385 3250 c-4 -7 -3 -16 3 -22 14 -14 47 -6 47 12 0 18 -40 26 -50
10z"/>
<path d="M5455 3250 c-4 -7 -3 -16 3 -22 14 -14 47 -6 47 12 0 18 -40 26 -50
10z"/>
<path d="M2067 3204 c-11 -12 3 -24 29 -24 16 0 24 5 22 13 -5 13 -40 22 -51
11z"/>
<path d="M2137 3204 c-11 -12 3 -24 29 -24 15 0 24 6 24 15 0 15 -40 21 -53 9z"/>
<path d="M2210 3195 c0 -12 7 -15 25 -13 14 2 26 8 26 13 0 6 -12 11 -26 13
-18 2 -25 -1 -25 -13z"/>
<path d="M2280 3195 c0 -12 7 -15 25 -13 14 2 26 8 26 13 0 6 -12 11 -26 13
-18 2 -25 -1 -25 -13z"/>
<path d="M2357 3204 c-11 -12 3 -24 29 -24 15 0 24 6 24 15 0 15 -40 21 -53 9z"/>
<path d="M2427 3204 c-11 -12 3 -24 29 -24 15 0 24 6 24 15 0 15 -40 21 -53 9z"/>
<path d="M2500 3195 c0 -12 7 -15 25 -13 14 2 26 8 26 13 0 6 -12 11 -26 13
-18 2 -25 -1 -25 -13z"/>
<path d="M2575 3200 c-8 -13 20 -24 41 -16 20 8 9 26 -16 26 -10 0 -22 -5 -25
-10z"/>
<path d="M2647 3204 c-11 -12 3 -24 29 -24 15 0 24 6 24 15 0 15 -40 21 -53 9z"/>
<path d="M2720 3195 c0 -9 9 -15 25 -15 16 0 25 6 25 15 0 9 -9 15 -25 15 -16
0 -25 -6 -25 -15z"/>
<path d="M2790 3195 c0 -12 7 -15 25 -13 14 2 26 8 26 13 0 6 -12 11 -26 13
-18 2 -25 -1 -25 -13z"/>
<path d="M2867 3204 c-11 -12 3 -24 29 -24 16 0 24 5 22 13 -5 13 -40 22 -51
11z"/>
<path d="M2937 3204 c-11 -12 3 -24 29 -24 15 0 24 6 24 15 0 15 -40 21 -53 9z"/>
<path d="M3010 3195 c0 -12 7 -15 25 -13 14 2 26 8 26 13 0 6 -12 11 -26 13
-18 2 -25 -1 -25 -13z"/>
<path d="M3080 3195 c0 -12 7 -15 25 -13 14 2 26 8 26 13 0 6 -12 11 -26 13
-18 2 -25 -1 -25 -13z"/>
<path d="M3157 3204 c-11 -12 3 -24 29 -24 15 0 24 6 24 15 0 15 -40 21 -53 9z"/>
<path d="M3227 3204 c-11 -12 3 -24 29 -24 15 0 24 6 24 15 0 15 -40 21 -53 9z"/>
<path d="M3300 3195 c0 -12 7 -15 25 -13 14 2 26 8 26 13 0 6 -12 11 -26 13
-18 2 -25 -1 -25 -13z"/>
<path d="M3375 3200 c-8 -13 20 -24 41 -16 20 8 9 26 -16 26 -10 0 -22 -5 -25
-10z"/>
<path d="M3447 3204 c-11 -12 3 -24 29 -24 15 0 24 6 24 15 0 15 -40 21 -53 9z"/>
<path d="M3520 3195 c0 -9 9 -15 25 -15 16 0 25 6 25 15 0 9 -9 15 -25 15 -16
0 -25 -6 -25 -15z"/>
<path d="M3667 3204 c-11 -12 3 -24 29 -24 16 0 24 5 22 13 -5 13 -40 22 -51
11z"/>
<path d="M3737 3204 c-11 -12 3 -24 29 -24 15 0 24 6 24 15 0 15 -40 21 -53 9z"/>
<path d="M3810 3195 c0 -12 7 -15 25 -13 14 2 26 8 26 13 0 6 -12 11 -26 13
-18 2 -25 -1 -25 -13z"/>
<path d="M3880 3195 c0 -12 7 -15 25 -13 14 2 26 8 26 13 0 6 -12 11 -26 13
-18 2 -25 -1 -25 -13z"/>
<path d="M3957 3204 c-11 -12 3 -24 29 -24 15 0 24 6 24 15 0 15 -40 21 -53 9z"/>
<path d="M4515 2935 c24 -8 116 -12 103 -4 -7 5 -35 8 -63 8 -27 0 -45 -2 -40
-4z"/>
<path d="M2060 2870 l0 -60 43 2 c36 1 38 2 10 5 -33 4 -33 5 -33 59 0 30 -4
54 -10 54 -6 0 -10 -27 -10 -60z"/>
<path d="M2520 2886 c0 -63 37 -94 79 -67 17 11 29 111 13 111 -6 0 -12 -24
-14 -52 -3 -49 -5 -53 -28 -53 -23 0 -25 4 -28 53 -4 63 -22 70 -22 8z"/>
<path d="M4436 2899 c-14 -11 -31 -30 -37 -42 -9 -20 -8 -20 9 2 11 13 30 32
43 42 13 10 21 19 18 19 -4 0 -18 -9 -33 -21z"/>
<path d="M4663 2899 c15 -11 37 -39 47 -60 39 -75 17 -179 -47 -228 -15 -12
-19 -18 -8 -12 48 22 85 91 85 156 0 65 -37 134 -85 156 -11 6 -7 0 8 -12z"/>
<path d="M2163 2855 c0 -27 2 -38 4 -22 2 15 2 37 0 50 -2 12 -4 0 -4 -28z"/>
<path d="M2190 2855 c0 -25 5 -45 10 -45 6 0 10 20 10 45 0 25 -4 45 -10 45
-5 0 -10 -20 -10 -45z"/>
<path d="M2232 2888 c9 -7 19 -29 21 -48 3 -26 4 -24 3 10 -1 36 -5 45 -21 48
-18 4 -19 3 -3 -10z"/>
<path d="M2294 2860 c1 -36 5 -45 21 -48 18 -4 19 -3 3 10 -9 7 -19 29 -21 48
-3 26 -4 24 -3 -10z"/>
<path d="M2340 2861 c0 -22 5 -43 10 -46 6 -4 10 12 10 39 0 25 -4 46 -10 46
-5 0 -10 -18 -10 -39z"/>
<path d="M2394 2879 c13 -19 13 -24 -1 -45 -8 -13 -11 -24 -5 -24 5 0 13 7 16
16 6 15 8 15 26 -1 21 -19 28 -7 8 13 -9 9 -9 18 1 39 13 27 13 28 -8 9 -19
-17 -21 -17 -27 -2 -3 9 -10 16 -16 16 -5 0 -2 -10 6 -21z"/>
<path d="M2647 2893 c-15 -14 -6 -33 18 -39 34 -8 34 -38 0 -32 -13 3 -22 1
-19 -3 8 -13 38 -11 52 3 18 18 15 25 -18 37 -36 12 -41 35 -5 29 13 -3 22 -1
19 3 -6 11 -38 12 -47 2z"/>
<path d="M2736 2884 c-9 -8 -16 -22 -16 -29 0 -15 27 -45 40 -45 17 0 40 13
40 22 0 6 -6 5 -15 -2 -16 -13 -45 -7 -45 10 0 5 14 10 30 10 31 0 39 17 18
38 -16 16 -33 15 -52 -4z m52 -11 c2 -8 -6 -13 -22 -13 -25 0 -33 10 -19 24
10 10 36 3 41 -11z"/>
<path d="M2820 2855 c0 -25 5 -45 10 -45 6 0 10 18 10 39 0 29 5 41 18 44 10
3 6 5 -10 6 -27 1 -28 -1 -28 -44z"/>
<path d="M782 2813 l-2 -73 40 0 c22 0 40 5 40 10 0 6 -16 10 -35 10 l-34 0
-4 63 -3 62 -2 -72z"/>
<path d="M1203 2810 c0 -41 2 -58 4 -37 2 20 2 54 0 75 -2 20 -4 3 -4 -38z"/>
<path d="M1323 2861 c-26 -22 -30 -33 -8 -25 12 5 15 -4 15 -45 0 -28 5 -51
10 -51 6 0 10 30 10 70 0 39 -1 70 -2 70 -2 -1 -13 -9 -25 -19z"/>
<path d="M898 2829 c-25 -14 -23 -65 2 -79 12 -6 30 -8 40 -5 30 10 24 22 -9
17 -16 -2 -32 1 -35 7 -5 7 7 11 33 11 45 0 48 5 25 38 -17 24 -30 27 -56 11z
m47 -19 c4 -6 -7 -10 -25 -10 -18 0 -29 4 -25 10 3 6 15 10 25 10 10 0 22 -4
25 -10z"/>
<path d="M998 2793 c10 -27 22 -46 27 -44 13 5 46 91 35 91 -5 0 -14 -16 -20
-35 -13 -40 -25 -38 -35 5 -4 17 -11 30 -16 30 -5 0 -1 -21 9 -47z"/>
<path d="M1096 2824 c-9 -8 -16 -24 -16 -34 0 -41 55 -65 80 -35 11 13 8 14
-18 9 -17 -4 -32 -1 -36 5 -5 7 5 11 28 11 25 0 36 5 36 14 0 18 -27 46 -45
46 -7 0 -21 -7 -29 -16z m54 -14 c0 -5 -12 -10 -26 -10 -14 0 -23 4 -19 10 3
6 15 10 26 10 10 0 19 -4 19 -10z"/>
<path d="M4520 2810 c0 -7 8 -9 20 -5 32 10 36 -21 6 -59 -14 -19 -26 -37 -26
-40 0 -3 19 -5 43 -5 29 2 34 3 15 6 -33 5 -34 6 -7 42 29 39 22 65 -19 69
-19 2 -32 -1 -32 -8z"/>
<path d="M4373 2755 c0 -27 2 -38 4 -22 2 15 2 37 0 50 -2 12 -4 0 -4 -28z"/>
<path d="M4380 2694 c0 -19 44 -76 70 -92 24 -14 24 -14 -2 9 -15 13 -36 40
-47 59 -12 19 -21 30 -21 24z"/>
<path d="M2247 2683 c-15 -14 -6 -33 18 -39 34 -8 34 -38 0 -32 -13 3 -22 1
-19 -3 8 -13 38 -11 52 3 18 18 15 25 -18 37 -36 12 -41 35 -5 29 13 -3 22 -1
19 3 -6 11 -38 12 -47 2z"/>
<path d="M2331 2626 c1 -34 4 -51 6 -40 3 15 10 20 22 17 23 -6 51 31 44 58
-6 21 -6 21 -45 24 -28 2 -28 2 -27 -59z m54 19 c0 -23 -4 -30 -20 -30 -21 0
-31 25 -21 51 11 28 41 12 41 -21z"/>
<path d="M2429 2673 c-13 -16 -12 -17 3 -4 24 18 43 9 46 -23 2 -30 -22 -46
-41 -27 -9 9 -8 14 3 22 13 9 13 10 0 6 -8 -2 -15 -12 -15 -23 0 -15 7 -19 33
-20 33 -1 33 0 30 40 -2 33 -7 42 -24 44 -11 2 -27 -5 -35 -15z"/>
<path d="M2533 2683 c-7 -2 -13 -20 -13 -38 0 -40 32 -57 58 -31 9 9 11 16 5
16 -6 0 -13 -5 -15 -12 -7 -21 -38 0 -38 27 0 27 31 48 38 27 2 -7 8 -12 14
-12 6 0 6 6 -2 15 -13 15 -25 17 -47 8z"/>
<path d="M2612 2678 c-7 -7 -12 -21 -12 -33 0 -43 46 -60 71 -27 13 15 12 16
-3 3 -19 -14 -48 -9 -48 9 0 5 14 10 30 10 18 0 30 5 30 13 0 18 -21 37 -40
37 -9 0 -21 -5 -28 -12z m52 -13 c4 -11 -1 -15 -19 -15 -24 0 -32 10 -18 23
11 12 31 8 37 -8z"/>
<path d="M4560 2580 l-55 -7 50 -1 c28 -1 57 3 65 8 8 5 11 9 5 8 -5 -1 -35
-4 -65 -8z"/>
<path d="M1842 2038 l-2 -328 -82 -2 -83 -1 95 -7 c149 -12 3862 -11 3880 0
10 6 11 10 3 10 -10 0 -13 76 -16 328 l-2 327 -3 -327 -2 -328 -989 0 -989 0
-10 28 -10 27 -11 -27 -11 -28 -880 0 -880 0 -3 328 -2 327 -3 -327z"/>
<path d="M1980 2210 l0 -60 43 2 c36 1 38 2 10 5 -33 4 -33 5 -33 59 0 30 -4
54 -10 54 -6 0 -10 -27 -10 -60z"/>
<path d="M2440 2210 c0 -33 4 -60 9 -60 12 0 17 43 12 88 -6 55 -21 35 -21
-28z"/>
<path d="M2498 2243 l-26 -28 27 -32 c37 -45 50 -42 16 3 l-27 35 23 25 c12
13 20 24 18 24 -3 0 -17 -12 -31 -27z"/>
<path d="M2900 2210 c0 -33 4 -60 10 -60 6 0 10 27 10 60 0 33 -4 60 -10 60
-6 0 -10 -27 -10 -60z"/>
<path d="M2083 2195 c0 -27 2 -38 4 -22 2 15 2 37 0 50 -2 12 -4 0 -4 -28z"/>
<path d="M2110 2194 c0 -54 18 -59 22 -7 2 27 8 39 21 41 14 3 17 -4 17 -37 0
-23 5 -41 10 -41 14 0 12 66 -2 78 -7 5 -25 10 -40 10 -26 0 -28 -3 -28 -44z"/>
<path d="M2210 2206 c0 -38 16 -56 48 -53 19 1 22 7 21 47 l-2 45 -6 -40 c-4
-27 -12 -41 -23 -43 -15 -3 -18 4 -18 37 0 23 -4 41 -10 41 -5 0 -10 -15 -10
-34z"/>
<path d="M2314 2219 c13 -19 13 -24 -1 -45 -8 -13 -11 -24 -5 -24 5 0 13 7 16
16 6 15 8 15 26 -1 21 -19 28 -7 8 13 -9 9 -9 18 1 39 13 27 13 28 -8 9 -19
-17 -21 -17 -27 -2 -3 9 -10 16 -16 16 -5 0 -2 -10 6 -21z"/>
<path d="M2562 2228 c-7 -7 -12 -21 -12 -33 0 -43 46 -60 71 -27 13 15 12 16
-3 3 -19 -14 -48 -9 -48 9 0 5 14 10 30 10 18 0 30 5 30 13 0 18 -21 37 -40
37 -9 0 -21 -5 -28 -12z m52 -13 c4 -11 -1 -15 -19 -15 -24 0 -32 10 -18 23
11 12 31 8 37 -8z"/>
<path d="M2650 2195 c0 -25 5 -45 10 -45 6 0 10 18 10 39 0 29 5 41 18 44 10
3 6 5 -10 6 -27 1 -28 -1 -28 -44z"/>
<path d="M2711 2191 l2 -46 6 40 c7 46 37 62 45 23 13 -58 14 -60 13 -18 -2
44 -3 45 -34 46 -33 1 -33 1 -32 -45z"/>
<path d="M2812 2228 c-7 -7 -12 -21 -12 -33 0 -43 46 -60 71 -27 13 15 12 16
-3 3 -19 -14 -48 -9 -48 9 0 5 14 10 30 10 18 0 30 5 30 13 0 18 -21 37 -40
37 -9 0 -21 -5 -28 -12z m52 -13 c4 -11 -1 -15 -19 -15 -24 0 -32 10 -18 23
11 12 31 8 37 -8z"/>
<path d="M4588 2218 c18 -6 50 -30 72 -54 45 -49 53 -48 16 1 -25 32 -82 66
-108 64 -7 -1 2 -6 20 -11z"/>
<path d="M4400 2180 c-22 -22 -40 -46 -40 -52 0 -7 9 1 20 17 11 17 34 40 52
53 18 12 27 22 20 22 -7 0 -30 -18 -52 -40z"/>
<path d="M3150 2110 c0 -68 17 -82 22 -18 l3 42 28 -42 c15 -23 32 -42 37 -42
6 0 10 27 10 60 0 33 -4 60 -10 60 -5 0 -10 -21 -10 -47 l0 -48 -31 48 c-17
26 -35 47 -40 47 -5 0 -9 -27 -9 -60z"/>
<path d="M3280 2110 c0 -33 4 -60 10 -60 6 0 10 27 10 60 0 33 -4 60 -10 60
-6 0 -10 -27 -10 -60z"/>
<path d="M3370 2111 c0 -34 4 -61 10 -61 6 0 10 11 10 25 0 34 28 33 56 -2 12
-16 25 -25 28 -22 3 3 -3 15 -13 26 -18 19 -18 22 -3 37 26 25 4 50 -47 54
l-41 3 0 -60z m78 27 c-2 -17 -11 -24 -30 -26 -24 -3 -28 0 -28 22 0 22 4 26
31 26 26 0 30 -3 27 -22z"/>
<path d="M3500 2110 c0 -33 4 -60 10 -60 6 0 10 27 10 60 0 33 -4 60 -10 60
-6 0 -10 -27 -10 -60z"/>
<path d="M3562 2154 c-49 -34 -8 -115 51 -100 32 8 51 50 36 79 -22 40 -50 47
-87 21z m68 -13 c23 -44 -1 -88 -43 -77 -24 6 -27 12 -27 45 0 22 6 42 13 44
26 11 47 6 57 -12z"/>
<path d="M3732 2113 l-2 -63 38 2 c36 1 36 1 5 5 -31 4 -32 5 -36 61 l-3 57
-2 -62z"/>
<path d="M3820 2095 c0 -25 5 -45 10 -45 6 0 10 20 10 45 0 25 -4 45 -10 45
-5 0 -10 -20 -10 -45z"/>
<path d="M3861 2091 l2 -46 6 40 c7 46 37 62 45 23 13 -58 14 -60 13 -18 -2
44 -3 45 -34 46 -33 1 -33 1 -32 -45z"/>
<path d="M3950 2114 c0 -42 17 -63 50 -62 29 1 30 3 30 45 0 53 -18 58 -22 6
-2 -26 -8 -38 -18 -38 -10 0 -16 12 -18 38 -4 41 -22 51 -22 11z"/>
<path d="M4050 2134 c0 -6 6 -16 12 -22 10 -10 10 -17 0 -32 -18 -29 -15 -35
8 -15 18 16 20 16 26 1 3 -9 11 -16 16 -16 6 0 3 11 -5 24 -14 21 -14 26 -1
45 9 13 11 21 4 21 -6 0 -13 -7 -17 -15 -5 -14 -8 -14 -24 1 -11 9 -19 13 -19
8z"/>
<path d="M792 2043 l-2 -73 40 0 c22 0 40 5 40 10 0 6 -16 10 -35 10 l-34 0
-4 63 -3 62 -2 -72z"/>
<path d="M1213 2040 c0 -41 2 -58 4 -37 2 20 2 54 0 75 -2 20 -4 3 -4 -38z"/>
<path d="M1310 2091 c-23 -44 -5 -121 28 -121 29 0 42 21 42 70 0 25 -5 51
-12 58 -18 18 -46 14 -58 -7z m55 -51 c0 -34 -4 -46 -17 -48 -23 -4 -41 33
-33 69 5 24 12 29 28 27 19 -3 22 -10 22 -48z"/>
<path d="M4507 2103 c-11 -10 -8 -25 3 -18 6 4 10 -11 10 -39 0 -26 -5 -46
-12 -49 -7 -3 5 -6 27 -6 32 0 36 2 23 10 -13 7 -18 23 -18 59 0 35 -4 50 -13
50 -8 0 -17 -3 -20 -7z"/>
<path d="M4712 2050 c0 -19 2 -27 5 -17 2 9 2 25 0 35 -3 9 -5 1 -5 -18z"/>
<path d="M908 2059 c-25 -14 -23 -65 2 -79 12 -6 30 -8 40 -5 30 10 24 22 -9
17 -16 -2 -32 1 -35 7 -5 7 7 11 33 11 45 0 48 5 25 38 -17 24 -30 27 -56 11z
m47 -19 c4 -6 -7 -10 -25 -10 -18 0 -29 4 -25 10 3 6 15 10 25 10 10 0 22 -4
25 -10z"/>
<path d="M1001 2063 c-1 -17 30 -93 38 -93 8 0 42 93 36 99 -3 2 -12 -13 -21
-35 l-17 -39 -18 40 c-9 22 -18 34 -18 28z"/>
<path d="M1104 2045 c-15 -23 -15 -27 0 -50 18 -28 47 -32 66 -10 11 13 8 14
-18 9 -17 -4 -32 -1 -36 5 -5 7 5 11 28 11 28 0 36 4 36 18 0 45 -50 56 -76
17z m61 -5 c4 -6 -7 -10 -25 -10 -18 0 -29 4 -25 10 3 6 15 10 25 10 10 0 22
-4 25 -10z"/>
<path d="M4342 2045 c0 -16 2 -22 5 -12 2 9 2 23 0 30 -3 6 -5 -1 -5 -18z"/>
<path d="M2233 2015 c-3 -9 -3 -19 1 -22 3 -4 6 2 6 11 0 15 5 17 26 12 17 -5
23 -3 19 4 -10 15 -45 12 -52 -5z"/>
<path d="M2310 1969 c0 -33 4 -59 10 -59 6 0 10 9 10 20 0 13 5 18 15 14 21
-8 45 14 45 41 0 29 -18 43 -52 43 -27 0 -28 -2 -28 -59z m65 32 c8 -26 -5
-53 -24 -49 -29 6 -27 68 3 68 8 0 17 -8 21 -19z"/>
<path d="M2419 2013 c-13 -16 -12 -17 3 -4 24 18 43 9 46 -23 2 -30 -22 -46
-41 -27 -9 9 -8 14 3 22 13 9 13 10 0 6 -8 -2 -15 -12 -15 -23 0 -15 7 -19 33
-20 33 -1 33 0 30 40 -2 33 -7 42 -24 44 -11 2 -27 -5 -35 -15z"/>
<path d="M2523 2023 c-7 -2 -13 -20 -13 -38 0 -40 32 -57 58 -31 9 9 11 16 5
16 -6 0 -13 -5 -15 -12 -7 -21 -38 0 -38 27 0 27 31 48 38 27 2 -7 8 -12 14
-12 6 0 6 6 -2 15 -13 15 -25 17 -47 8z"/>
<path d="M2602 2018 c-7 -7 -12 -21 -12 -33 0 -43 46 -60 71 -27 13 15 12 16
-3 3 -19 -14 -48 -9 -48 9 0 5 14 10 30 10 18 0 30 5 30 13 0 18 -21 37 -40
37 -9 0 -21 -5 -28 -12z m52 -13 c4 -11 -1 -15 -19 -15 -24 0 -32 10 -18 23
11 12 31 8 37 -8z"/>
<path d="M4350 1999 c0 -37 89 -130 124 -129 6 1 -2 8 -19 17 -46 24 -66 45
-86 88 -10 22 -19 33 -19 24z"/>
<path d="M4696 1986 c-9 -35 -50 -81 -86 -96 -17 -7 -29 -15 -26 -17 8 -9 64
27 89 57 26 30 43 68 34 76 -2 3 -7 -6 -11 -20z"/>
<path d="M2263 1983 c28 -7 21 -36 -8 -31 -13 3 -22 1 -19 -3 8 -14 40 -11 53
4 13 16 -4 38 -28 36 -12 -1 -12 -2 2 -6z"/>
<path d="M3063 1910 c0 -36 2 -55 4 -42 5 27 19 28 33 2 6 -11 15 -20 21 -20
5 0 2 12 -8 26 -14 22 -15 29 -3 47 12 21 12 21 -7 5 -27 -25 -31 -23 -36 15
-2 17 -4 3 -4 -33z"/>
<path d="M3493 1910 c0 -36 2 -50 4 -32 2 17 2 47 0 65 -2 17 -4 3 -4 -33z"/>
<path d="M3870 1950 c0 -13 -5 -18 -15 -14 -21 8 -45 -14 -45 -41 0 -29 18
-43 53 -43 26 0 27 2 27 59 0 33 -4 59 -10 59 -5 0 -10 -9 -10 -20z m-5 -55
c0 -43 -29 -40 -33 3 -3 28 0 33 15 30 13 -2 18 -12 18 -33z"/>
<path d="M4013 1910 c0 -36 2 -50 4 -32 2 17 2 47 0 65 -2 17 -4 3 -4 -33z"/>
<path d="M3152 1928 c-7 -7 -12 -21 -12 -33 0 -41 45 -60 70 -30 8 9 8 15 2
15 -6 0 -12 -5 -14 -12 -5 -14 -38 -4 -38 12 0 5 14 10 30 10 18 0 30 5 30 13
0 18 -21 37 -40 37 -9 0 -21 -5 -28 -12z m52 -13 c4 -11 -1 -15 -19 -15 -24 0
-32 10 -18 23 11 12 31 8 37 -8z"/>
<path d="M3240 1895 c0 -25 5 -45 10 -45 6 0 10 18 10 39 0 29 5 41 18 44 10
3 6 5 -10 6 -27 1 -28 -1 -28 -44z"/>
<path d="M3301 1891 l2 -46 6 40 c7 46 37 62 45 23 13 -58 14 -60 13 -18 -2
44 -3 45 -34 46 -33 1 -33 1 -32 -45z"/>
<path d="M3402 1928 c-7 -7 -12 -21 -12 -33 0 -41 45 -60 70 -30 8 9 8 15 2
15 -6 0 -12 -5 -14 -12 -5 -14 -38 -4 -38 12 0 5 14 10 30 10 18 0 30 5 30 13
0 18 -21 37 -40 37 -9 0 -21 -5 -28 -12z m52 -13 c4 -11 -1 -15 -19 -15 -24 0
-32 10 -18 23 11 12 31 8 37 -8z"/>
<path d="M3570 1894 c0 -54 18 -59 22 -6 4 53 32 51 37 -3 l5 -40 5 40 c4 26
12 41 23 43 13 3 18 -6 21 -37 l4 -41 -1 42 -1 43 -57 1 -58 1 0 -43z"/>
<path d="M3726 1924 c-9 -8 -16 -22 -16 -29 0 -17 27 -45 43 -45 24 0 40 18
40 45 0 42 -38 59 -67 29z m49 -29 c0 -23 -4 -30 -20 -30 -21 0 -31 25 -21 51
11 28 41 12 41 -21z"/>
<path d="M3910 1908 c0 -45 11 -59 43 -56 25 2 27 5 26 48 l-2 45 -6 -40 c-4
-27 -12 -41 -23 -43 -15 -3 -18 4 -18 37 0 23 -4 41 -10 41 -5 0 -10 -15 -10
-32z"/>
<path d="M4052 1928 c-7 -7 -12 -21 -12 -33 0 -41 45 -60 70 -30 8 9 8 15 2
15 -6 0 -12 -5 -14 -12 -5 -14 -38 -4 -38 12 0 5 14 10 30 10 18 0 30 5 30 13
0 18 -21 37 -40 37 -9 0 -21 -5 -28 -12z m52 -13 c4 -11 -1 -15 -19 -15 -24 0
-32 10 -18 23 11 12 31 8 37 -8z"/>
<path d="M4147 1933 c-15 -14 -6 -33 18 -39 34 -8 34 -38 0 -32 -13 3 -22 1
-19 -3 8 -14 41 -10 54 6 15 18 6 31 -24 37 -25 4 -21 23 4 22 10 0 17 3 14 8
-6 10 -38 11 -47 1z"/>
<path d="M4508 1863 c12 -2 32 -2 45 0 12 2 2 4 -23 4 -25 0 -35 -2 -22 -4z"/>
<path d="M3632 1613 l-2 -73 -260 0 -260 0 0 -695 0 -695 525 0 525 0 -2 438
-3 437 -2 -433 -3 -432 -515 0 -515 0 0 685 0 685 255 0 255 0 0 -30 c0 -20
-5 -30 -15 -30 -15 0 -14 -5 11 -70 4 -10 11 -2 20 24 9 25 11 42 4 46 -5 3
-11 53 -13 110 -2 83 -3 90 -5 33z"/>
<path d="M3897 1533 l253 -3 3 -253 2 -252 3 258 2 257 -257 -2 -258 -3 252
-2z"/>
<path d="M2083 1470 c0 -36 2 -50 4 -32 4 29 7 32 38 32 31 0 34 -3 38 -32 2
-18 4 -4 4 32 0 36 -2 53 -4 38 -4 -24 -9 -28 -38 -28 -29 0 -34 4 -38 28 -2
15 -4 -2 -4 -38z"/>
<path d="M2410 1510 c0 -13 -5 -18 -15 -14 -21 8 -45 -14 -45 -41 0 -28 19
-45 48 -42 20 1 22 7 22 59 0 32 -2 58 -5 58 -3 0 -5 -9 -5 -20z m-5 -55 c0
-23 -4 -30 -20 -30 -21 0 -31 25 -21 51 11 28 41 12 41 -21z"/>
<path d="M4580 1291 l0 -220 -27 -4 -28 -4 28 -2 27 -1 0 -190 0 -190 590 0
590 0 0 415 0 415 -590 0 -590 0 0 -219z m1170 -196 l0 -405 -580 0 -580 0 0
405 0 405 580 0 580 0 0 -405z"/>
<path d="M4909 1420 c-7 -5 -12 -25 -11 -51 3 -69 21 -70 24 -1 1 36 4 41 20
36 10 -3 18 -1 18 4 0 13 -35 21 -51 12z"/>
<path d="M4665 1400 c-15 -16 -17 -26 -9 -48 10 -29 48 -42 67 -23 7 7 1 10
-19 8 -26 -2 -29 1 -29 28 0 24 5 31 23 33 12 2 20 8 17 13 -10 15 -31 10 -50
-11z"/>
<path d="M5300 1406 c0 -8 -10 -16 -22 -18 -18 -2 -23 -10 -23 -33 0 -25 4
-30 28 -33 26 -3 27 -2 27 47 0 28 -2 51 -5 51 -3 0 -5 -6 -5 -14z m-5 -51 c0
-10 -6 -20 -12 -22 -8 -3 -13 5 -13 22 0 17 5 25 13 23 6 -3 12 -13 12 -23z"/>
<path d="M4736 1372 c-11 -32 4 -53 33 -50 22 2 26 8 26 33 0 25 -4 31 -27 33
-19 2 -28 -2 -32 -16z m47 -5 c7 -19 -8 -41 -22 -33 -16 10 -14 46 3 46 8 0
16 -6 19 -13z"/>
<path d="M4821 1353 c1 -35 2 -36 8 -9 9 41 31 46 31 7 0 -17 5 -31 11 -31 6
0 9 14 7 33 -2 27 -8 33 -30 35 -26 3 -28 1 -27 -35z"/>
<path d="M4940 1355 c0 -19 5 -35 10 -35 6 0 10 16 10 35 0 19 -4 35 -10 35
-5 0 -10 -16 -10 -35z"/>
<path d="M4977 1383 c-2 -5 -4 -26 -3 -48 1 -43 23 -58 52 -34 13 10 12 14 -2
30 -10 11 -12 19 -7 19 6 0 13 9 16 20 4 17 0 20 -23 20 -16 0 -31 -3 -33 -7z
m33 -13 c0 -5 -4 -10 -10 -10 -5 0 -10 5 -10 10 0 6 5 10 10 10 6 0 10 -4 10
-10z m5 -60 c-3 -5 -10 -10 -16 -10 -5 0 -9 5 -9 10 0 6 7 10 16 10 8 0 12 -4
9 -10z"/>
<path d="M5051 1358 c-1 -36 1 -38 29 -38 28 0 30 3 30 35 0 41 -17 47 -22 8
-4 -37 -21 -36 -29 2 -6 29 -7 29 -8 -7z"/>
<path d="M5131 1353 c1 -27 3 -31 6 -13 2 14 12 31 21 38 14 11 13 12 -6 12
-19 0 -22 -5 -21 -37z"/>
<path d="M5184 1376 c-12 -30 0 -51 31 -53 18 -1 22 1 10 4 -34 9 -41 23 -11
23 21 0 27 4 24 18 -4 22 -46 29 -54 8z m36 -6 c0 -5 -4 -10 -10 -10 -5 0 -10
5 -10 10 0 6 5 10 10 10 6 0 10 -4 10 -10z"/>
<path d="M4930 1230 c0 -5 5 -10 10 -10 6 0 10 5 10 10 0 6 -4 10 -10 10 -5 0
-10 -4 -10 -10z"/>
<path d="M5180 1190 c0 -27 5 -50 10 -50 6 0 10 23 10 50 0 28 -4 50 -10 50
-5 0 -10 -22 -10 -50z"/>
<path d="M5530 1226 c0 -8 -10 -16 -22 -18 -18 -2 -23 -10 -23 -33 0 -25 4
-30 28 -33 26 -3 27 -2 27 47 0 28 -2 51 -5 51 -3 0 -5 -6 -5 -14z m-7 -39 c3
-8 1 -20 -4 -28 -11 -19 -34 3 -26 25 8 20 23 21 30 3z"/>
<path d="M4661 1158 c1 -29 3 -45 6 -36 2 9 14 18 26 20 17 2 22 10 22 33 0
25 -4 30 -27 33 -28 3 -28 2 -27 -50z m42 29 c3 -8 1 -20 -4 -28 -11 -19 -34
3 -26 25 8 20 23 21 30 3z"/>
<path d="M4741 1173 c1 -27 3 -31 6 -13 2 14 12 31 21 38 14 11 13 12 -6 12
-19 0 -22 -5 -21 -37z"/>
<path d="M4794 1196 c-12 -30 0 -51 31 -53 18 -1 22 1 10 4 -34 9 -41 23 -11
23 21 0 27 4 24 18 -4 22 -46 29 -54 8z m36 -6 c0 -5 -4 -10 -10 -10 -5 0 -10
5 -10 10 0 6 5 10 10 10 6 0 10 -4 10 -10z"/>
<path d="M4860 1201 c0 -19 20 -61 29 -61 7 0 31 51 31 66 0 14 -19 0 -24 -18
l-7 -23 -9 23 c-10 22 -20 29 -20 13z"/>
<path d="M4930 1175 c0 -19 5 -35 10 -35 6 0 10 16 10 35 0 19 -4 35 -10 35
-5 0 -10 -16 -10 -35z"/>
<path d="M4966 1192 c-11 -32 4 -53 33 -50 22 2 26 8 26 33 0 25 -4 31 -27 33
-19 2 -28 -2 -32 -16z m47 -5 c7 -19 -8 -41 -22 -33 -16 10 -14 46 3 46 8 0
16 -6 19 -13z"/>
<path d="M5051 1178 c-1 -36 1 -38 29 -38 28 0 30 3 30 35 0 41 -17 47 -22 8
-4 -37 -21 -36 -29 2 -6 29 -7 29 -8 -7z"/>
<path d="M5124 1198 c-4 -6 0 -16 9 -23 22 -16 21 -22 0 -28 -11 -3 -7 -5 10
-6 31 -1 36 19 11 40 -14 12 -14 14 3 20 16 7 16 8 -4 8 -12 1 -25 -4 -29 -11z"/>
<path d="M5224 1173 c7 -21 11 -44 8 -52 -3 -8 0 -11 6 -7 14 8 43 96 32 96
-5 0 -12 -10 -16 -22 l-7 -23 -10 23 c-17 37 -27 25 -13 -15z"/>
<path d="M5322 1178 c2 -28 8 -34 31 -36 25 -3 27 -1 26 35 l-1 38 -9 -32
c-12 -41 -29 -43 -29 -3 0 17 -5 30 -11 30 -6 0 -9 -14 -7 -32z"/>
<path d="M5400 1176 c0 -20 5 -36 10 -36 6 0 10 14 10 31 0 39 22 34 32 -7 6
-27 6 -27 5 6 -2 30 -6 35 -29 38 -26 3 -28 1 -28 -32z"/>
<path d="M5564 1196 c-12 -30 0 -51 31 -53 18 -1 22 1 10 4 -34 9 -41 23 -11
23 21 0 27 4 24 18 -4 22 -46 29 -54 8z m36 -6 c0 -5 -4 -10 -10 -10 -5 0 -10
5 -10 10 0 6 5 10 10 10 6 0 10 -4 10 -10z"/>
<path d="M5630 1175 c0 -19 5 -35 10 -35 6 0 10 11 10 25 0 13 8 29 18 34 14
9 13 10 -10 11 -25 0 -28 -3 -28 -35z"/>
<path d="M4663 1010 c0 -30 2 -43 4 -27 2 15 2 39 0 55 -2 15 -4 2 -4 -28z"/>
<path d="M4701 1008 c1 -29 4 -43 6 -30 5 27 19 28 33 2 6 -11 15 -20 21 -20
6 0 6 7 -1 20 -6 12 -8 30 -4 42 7 22 -9 38 -38 38 -15 0 -18 -9 -17 -52z m39
22 c0 -5 -7 -10 -15 -10 -8 0 -15 5 -15 10 0 6 7 10 15 10 8 0 15 -4 15 -10z"/>
<path d="M4783 1010 c0 -30 2 -43 4 -27 2 15 2 39 0 55 -2 15 -4 2 -4 -28z"/>
<path d="M4826 1044 c-29 -29 -11 -84 27 -84 30 0 47 18 47 50 0 47 -42 66
-74 34z m57 -24 c7 -26 -16 -55 -37 -47 -16 6 -22 47 -9 60 13 14 41 6 46 -13z"/>
<path d="M4950 1010 c0 -49 1 -50 30 -50 29 0 50 22 50 54 0 22 -28 46 -56 46
-22 0 -24 -4 -24 -50z m58 1 c3 -21 -11 -40 -30 -41 -5 0 -8 16 -8 36 0 28 3
35 18 32 9 -2 19 -14 20 -27z"/>
<path d="M5044 1016 c-12 -31 1 -51 31 -53 20 -1 23 0 8 4 -28 6 -30 23 -3 23
13 0 20 7 20 20 0 15 -7 20 -25 20 -14 0 -28 -6 -31 -14z m36 -6 c0 -5 -4 -10
-10 -10 -5 0 -10 5 -10 10 0 6 5 10 10 10 6 0 10 -4 10 -10z"/>
<path d="M5114 1018 c-4 -6 0 -16 9 -23 22 -16 21 -22 0 -28 -11 -3 -7 -5 10
-6 31 -1 36 19 11 40 -14 12 -14 14 3 20 16 7 16 8 -4 8 -12 1 -25 -4 -29 -11z"/>
<path d="M5183 995 c0 -22 2 -30 4 -17 2 12 2 30 0 40 -3 9 -5 -1 -4 -23z"/>
<path d="M5208 988 c-6 -51 2 -63 36 -54 26 6 36 31 15 38 -7 2 -7 12 0 31 10
26 9 27 -18 27 -27 0 -29 -3 -33 -42z m37 22 c3 -5 -1 -10 -9 -10 -9 0 -16 5
-16 10 0 6 4 10 9 10 6 0 13 -4 16 -10z m5 -54 c0 -11 -19 -15 -25 -6 -3 5 1
10 9 10 9 0 16 -2 16 -4z"/>
<path d="M5280 996 c0 -20 5 -36 10 -36 6 0 10 14 10 31 0 39 22 34 32 -7 6
-27 6 -27 5 6 -2 30 -6 35 -29 38 -26 3 -28 1 -28 -32z"/>
<path d="M4823 835 c0 -33 2 -45 4 -27 2 18 2 45 0 60 -2 15 -4 0 -4 -33z"/>
<path d="M4661 828 c1 -29 4 -43 6 -30 5 27 19 28 33 2 6 -11 15 -20 21 -20 6
0 6 6 0 18 -6 10 -7 29 -4 41 6 25 -9 41 -39 41 -15 0 -18 -9 -17 -52z m39 22
c0 -5 -7 -10 -15 -10 -8 0 -15 5 -15 10 0 6 7 10 15 10 8 0 15 -4 15 -10z"/>
<path d="M4742 818 c2 -28 8 -34 31 -36 25 -3 27 -1 27 32 0 20 -4 36 -10 36
-5 0 -10 -13 -10 -30 0 -16 -4 -30 -10 -30 -5 0 -10 14 -10 30 0 17 -5 30 -11
30 -6 0 -9 -14 -7 -32z"/>
<path d="M4854 836 c-12 -31 1 -51 31 -53 20 -1 23 0 8 4 -28 6 -30 23 -3 23
13 0 20 7 20 20 0 15 -7 20 -25 20 -14 0 -28 -6 -31 -14z m36 -6 c0 -5 -4 -10
-10 -10 -5 0 -10 5 -10 10 0 6 5 10 10 10 6 0 10 -4 10 -10z"/>
<path d="M4924 838 c-4 -6 0 -16 9 -23 22 -16 21 -22 0 -28 -11 -3 -7 -5 10
-6 31 -1 36 19 11 40 -14 12 -14 14 3 20 16 7 16 8 -4 8 -12 1 -25 -4 -29 -11z"/>
<path d="M2213 1493 c-7 -2 -13 -9 -13 -15 0 -6 6 -6 15 2 8 7 22 9 31 6 20
-8 15 -15 -16 -21 -13 -3 -27 -10 -31 -17 -10 -16 8 -38 30 -37 13 1 13 2 -1
6 -18 5 -25 33 -9 33 5 0 16 3 24 6 12 4 14 0 10 -14 -2 -11 0 -23 6 -26 7 -5
11 6 11 32 0 46 -19 61 -57 45z"/>
<path d="M2290 1455 c0 -25 5 -45 10 -45 6 0 10 18 10 39 0 29 5 41 18 44 10
3 6 5 -10 6 -27 1 -28 -1 -28 -44z"/>
<path d="M2444 1484 c4 -10 10 -31 13 -46 7 -37 20 -35 28 2 7 32 25 32 25 0
0 -37 18 -29 33 15 9 25 12 45 8 45 -5 0 -13 -15 -18 -32 l-11 -33 -7 33 c-9
40 -21 41 -30 2 -7 -32 -25 -32 -25 0 0 10 -5 22 -12 26 -8 5 -9 2 -4 -12z"/>
<path d="M2579 1483 c-13 -16 -12 -17 3 -4 24 18 43 9 46 -23 2 -30 -22 -46
-41 -27 -8 8 -6 15 9 27 18 14 18 15 -4 4 -34 -17 -24 -45 16 -46 33 -1 33 0
30 40 -2 33 -7 42 -24 44 -11 2 -27 -5 -35 -15z"/>
<path d="M2672 1453 c1 -40 2 -42 5 -13 2 19 11 41 20 48 15 11 14 12 -5 12
-20 0 -22 -5 -20 -47z"/>
<path d="M2732 1488 c-7 -7 -12 -21 -12 -33 0 -42 45 -60 71 -28 13 15 12 15
-8 2 -20 -12 -25 -11 -40 4 -16 16 -15 17 20 17 24 0 37 5 37 13 0 18 -21 37
-40 37 -9 0 -21 -5 -28 -12z m52 -13 c4 -11 -1 -15 -19 -15 -24 0 -32 10 -18
23 11 12 31 8 37 -8z"/>
<path d="M3290 1105 l0 -275 340 0 339 0 3 103 c2 56 2 180 0 275 l-3 172
-162 -2 -162 -2 158 -3 157 -4 0 -264 0 -265 -330 0 -330 0 0 265 0 265 173 3
172 3 -177 2 -178 2 0 -275z"/>
<path d="M3410 1110 c0 -33 4 -60 10 -60 6 0 10 13 10 29 0 25 5 30 28 34 l27
4 -27 2 c-21 1 -28 6 -28 20 0 15 8 21 33 24 28 3 26 4 -10 5 l-43 2 0 -60z"/>
<path d="M3521 1108 c1 -35 4 -51 6 -36 3 22 10 27 35 30 66 6 58 68 -8 68
l-34 0 1 -62z m67 30 c-2 -17 -11 -24 -30 -26 -24 -3 -28 0 -28 22 0 22 4 26
31 26 26 0 30 -3 27 -22z"/>
<path d="M3646 1154 c-34 -33 -8 -104 38 -104 29 0 56 20 56 40 0 15 -6 20
-27 19 -17 -1 -21 -3 -10 -6 9 -2 17 -11 17 -18 0 -37 -66 -29 -76 9 -12 50
40 88 74 54 8 -8 12 -8 12 -1 0 25 -61 31 -84 7z"/>
<path d="M3796 1162 c-16 -26 -44 -112 -37 -112 5 0 11 9 14 20 7 27 53 27 67
-1 21 -38 20 -14 -2 44 -20 54 -31 67 -42 49z m27 -42 c4 -15 0 -20 -14 -20
-20 0 -23 8 -13 34 7 20 20 13 27 -14z"/>
<path d="M4368 1053 c23 -2 59 -2 80 0 20 2 1 4 -43 4 -44 0 -61 -2 -37 -4z"/>
<path d="M4198 1043 c18 -2 45 -2 60 0 15 2 0 4 -33 4 -33 0 -45 -2 -27 -4z"/>
<path d="M4003 1033 c9 -2 25 -2 35 0 9 3 1 5 -18 5 -19 0 -27 -2 -17 -5z"/>
<path d="M3160 620 c0 -33 4 -60 10 -60 6 0 10 11 10 25 0 18 5 25 19 25 10 0
26 -11 35 -25 9 -14 21 -25 26 -25 6 0 3 11 -5 24 -13 20 -14 28 -4 44 19 30
-4 52 -52 52 l-39 0 0 -60z m78 28 c-2 -17 -11 -24 -30 -26 -24 -3 -28 0 -28
22 0 22 4 26 31 26 26 0 30 -3 27 -22z"/>
<path d="M3290 620 c0 -33 4 -60 10 -60 6 0 10 27 10 60 0 33 -4 60 -10 60 -6
0 -10 -27 -10 -60z"/>
<path d="M3350 660 c-11 -11 -20 -29 -20 -40 0 -26 34 -60 60 -60 11 0 29 9
40 20 11 11 20 29 20 40 0 11 -9 29 -20 40 -11 11 -29 20 -40 20 -11 0 -29 -9
-40 -20z m69 -4 c31 -37 -9 -103 -46 -80 -37 23 -24 94 17 94 10 0 23 -6 29
-14z"/>
<path d="M3486 654 c-4 -14 -5 -28 -3 -31 3 -2 8 8 11 23 4 14 5 28 3 31 -3 2
-8 -8 -11 -23z"/>
<path d="M3522 618 c0 -35 3 -49 5 -31 4 27 9 32 36 36 l32 4 -32 1 c-25 2
-33 7 -33 21 0 15 8 21 38 24 l37 4 -42 1 -43 2 2 -62z"/>
<path d="M3620 620 c0 -33 4 -60 10 -60 6 0 10 27 10 60 0 33 -4 60 -10 60 -6
0 -10 -27 -10 -60z"/>
<path d="M3840 620 c0 -33 4 -60 10 -60 6 0 10 11 10 25 0 18 5 25 19 25 10 0
26 -11 35 -25 9 -14 21 -25 26 -25 6 0 3 11 -5 24 -13 20 -14 28 -4 44 19 30
-4 52 -52 52 l-39 0 0 -60z m78 28 c-2 -17 -11 -24 -30 -26 -24 -3 -28 0 -28
22 0 22 4 26 31 26 26 0 30 -3 27 -22z"/>
<path d="M3970 620 c0 -33 4 -60 10 -60 6 0 10 27 10 60 0 33 -4 60 -10 60 -6
0 -10 -27 -10 -60z"/>
<path d="M4030 660 c-11 -11 -20 -29 -20 -40 0 -26 34 -60 60 -60 11 0 29 9
40 20 11 11 20 29 20 40 0 11 -9 29 -20 40 -11 11 -29 20 -40 20 -11 0 -29 -9
-40 -20z m69 -4 c31 -37 -9 -103 -46 -80 -37 23 -24 94 17 94 10 0 23 -6 29
-14z"/>
<path d="M3666 634 c-9 -8 -16 -22 -16 -29 0 -15 27 -45 40 -45 17 0 40 13 40
22 0 6 -6 5 -15 -2 -16 -13 -45 -7 -45 10 0 5 14 10 30 10 31 0 39 17 18 38
-16 16 -33 15 -52 -4z m52 -11 c2 -8 -6 -13 -22 -13 -25 0 -33 10 -19 24 10
10 36 3 41 -11z"/>
<path d="M3762 628 c14 -20 14 -25 1 -45 -9 -13 -11 -23 -5 -23 5 0 13 7 16
16 6 15 8 15 26 -1 21 -19 28 -7 8 13 -9 9 -9 18 0 37 6 14 8 25 3 25 -5 0
-12 -8 -16 -17 -6 -17 -7 -17 -19 0 -19 25 -31 21 -14 -5z"/>
<path d="M3390 410 l0 -60 31 0 c51 0 69 16 69 60 0 44 -18 60 -69 60 l-31 0
0 -60z m84 28 c17 -28 -4 -72 -37 -76 -26 -3 -27 -2 -27 48 0 50 1 51 26 48
15 -2 32 -11 38 -20z"/>
<path d="M3522 428 c-7 -7 -12 -21 -12 -33 0 -41 45 -60 70 -30 8 9 8 15 2 15
-6 0 -12 -5 -14 -12 -5 -14 -38 -4 -38 12 0 5 14 10 30 10 18 0 30 5 30 13 0
18 -21 37 -40 37 -9 0 -21 -5 -28 -12z m52 -13 c4 -11 -1 -15 -19 -15 -24 0
-32 10 -18 23 11 12 31 8 37 -8z"/>
<path d="M3611 432 c-2 -24 29 -86 38 -76 11 12 32 76 27 82 -3 2 -11 -11 -19
-29 l-14 -34 -16 35 c-8 19 -16 29 -16 22z"/>
<path d="M3703 395 c0 -27 2 -38 4 -22 2 15 2 37 0 50 -2 12 -4 0 -4 -28z"/>
<path d="M3740 419 c-25 -46 28 -93 60 -54 14 17 0 21 -17 4 -16 -16 -33 -2
-33 26 0 30 16 41 37 23 14 -11 16 -11 11 2 -8 24 -45 24 -58 -1z"/>
<path d="M3832 428 c-7 -7 -12 -21 -12 -33 0 -41 45 -60 70 -30 14 17 0 21
-17 4 -13 -13 -43 -5 -43 11 0 5 16 10 35 10 38 0 40 2 25 31 -12 21 -40 25
-58 7z m46 -15 c2 -8 -6 -13 -22 -13 -19 0 -24 4 -19 15 6 18 34 16 41 -2z"/>
</g>
</svg>
