<?xml version="1.0" standalone="no"?>
<!DOCTYPE svg PUBLIC "-//W3C//DTD SVG 20010904//EN"
 "http://www.w3.org/TR/2001/REC-SVG-20010904/DTD/svg10.dtd">
<svg version="1.0" xmlns="http://www.w3.org/2000/svg"
 width="700.000000pt" height="626.000000pt" viewBox="0 0 700.000000 626.000000"
 preserveAspectRatio="xMidYMid meet">

<g transform="translate(0.000000,626.000000) scale(0.100000,-0.100000)"
fill="#000000" stroke="none">
<path d="M1510 4545 l0 -1525 -107 0 c-58 0 -104 -2 -101 -5 3 -3 575 -5 1271
-5 l1267 0 0 -35 c0 -24 -5 -35 -15 -35 -8 0 -15 -4 -15 -9 0 -5 7 -28 15 -51
8 -23 15 -44 15 -46 0 -2 -180 -4 -400 -4 l-400 0 0 -305 0 -305 399 0 399 0
-10 -40 -10 -40 -1149 0 -1149 0 -3 428 -2 427 -3 -427 -2 -428 -107 -2 -108
-1 125 -8 c196 -11 5042 -10 5060 1 10 6 11 10 3 10 -10 0 -13 96 -16 428 l-2
427 -3 -427 -2 -428 -1294 0 -1294 0 -11 31 c-6 18 -11 36 -11 40 0 5 180 9
400 9 l400 0 0 305 0 305 -392 -2 -393 -3 388 -2 387 -3 0 -295 0 -295 -795 0
-795 0 0 295 0 295 405 0 c327 0 403 2 399 13 -2 7 2 32 11 56 18 53 18 51 1
51 -12 0 -15 16 -15 75 0 59 3 75 15 75 17 0 17 -2 -1 50 -8 23 -15 46 -15 51
0 5 200 9 450 9 l450 0 0 305 0 305 -450 0 c-247 0 -450 4 -450 8 0 5 9 35 20
67 24 70 24 65 0 65 -15 0 -20 7 -20 25 l0 25 1250 0 1250 0 0 935 0 935
-2330 0 -2330 0 0 -935 0 -935 1075 0 1075 0 0 -25 c0 -18 -5 -25 -20 -25 -25
0 -25 -3 0 -75 11 -32 20 -60 20 -62 0 -1 -202 -3 -450 -3 l-450 0 0 -305 0
-305 450 0 c248 0 450 -2 450 -4 0 -2 -7 -23 -15 -46 -8 -23 -15 -46 -15 -51
0 -5 7 -9 15 -9 10 0 15 -11 15 -35 l0 -35 -1160 0 -1160 0 0 1520 0 1520
2470 0 2470 0 0 -1520 0 -1520 -1297 -2 -1298 -3 1300 -5 c715 -3 1307 -3
1314 -1 10 3 11 6 3 9 -9 3 -12 352 -12 1528 l0 1524 -2480 0 -2480 0 0 -1525z
m4830 390 l0 -925 -1245 0 c-1238 0 -1245 0 -1245 20 0 15 -7 20 -25 20 -22 0
-25 4 -25 40 0 36 3 40 25 40 30 0 30 2 5 75 -11 32 -20 60 -20 62 0 1 353 3
785 3 l785 0 0 305 0 305 -1580 0 -1580 0 0 -305 0 -305 785 0 c432 0 785 -2
785 -3 0 -2 -9 -30 -20 -62 -25 -72 -25 -75 0 -75 17 0 20 -7 20 -45 0 -41 2
-45 25 -45 16 0 25 -6 25 -15 0 -13 -126 -15 -1070 -15 l-1070 0 0 925 0 925
2320 0 2320 0 0 -925z m-970 -360 l0 -295 -1570 0 -1570 0 0 295 0 295 1570 0
1570 0 0 -295z m-630 -1070 l0 -295 -895 0 -895 0 0 295 0 295 895 0 895 0 0
-295z"/>
<path d="M3530 5550 l0 -90 60 0 c33 0 60 4 60 10 0 6 -20 10 -45 10 l-45 0 0
80 c0 64 -3 80 -15 80 -12 0 -15 -17 -15 -90z"/>
<path d="M3670 5630 c0 -5 7 -10 15 -10 8 0 15 5 15 10 0 6 -7 10 -15 10 -8 0
-15 -4 -15 -10z"/>
<path d="M3670 5525 c0 -51 3 -65 15 -65 12 0 15 14 15 65 0 51 -3 65 -15 65
-12 0 -15 -14 -15 -65z"/>
<path d="M3730 5523 c0 -35 4 -63 10 -63 6 0 10 17 10 38 0 46 20 78 44 69 12
-5 16 -19 16 -57 0 -38 4 -50 15 -50 11 0 15 13 15 54 0 64 -12 77 -69 74
l-41 -1 0 -64z"/>
<path d="M3870 5536 c0 -63 11 -75 68 -74 l42 0 0 64 c0 49 -3 64 -14 64 -11
0 -16 -15 -18 -52 -3 -45 -6 -53 -23 -53 -17 0 -20 8 -23 53 -2 37 -7 52 -18
52 -10 0 -14 -14 -14 -54z"/>
<path d="M4020 5560 l22 -30 -22 -35 c-18 -29 -19 -35 -6 -35 8 0 22 10 30 22
l16 22 16 -22 c8 -12 22 -22 30 -22 12 0 11 6 -5 29 -26 36 -26 42 0 75 19 24
19 26 2 26 -10 0 -24 -10 -31 -21 l-14 -21 -14 21 c-8 11 -22 21 -30 21 -12 0
-11 -6 6 -30z"/>
<path d="M3236 5262 c-16 -42 -31 -83 -33 -89 -3 -7 2 -13 10 -13 8 0 20 14
26 30 8 26 15 30 45 30 29 0 36 -4 45 -30 5 -16 17 -30 25 -30 17 0 17 -2 -39
138 -26 64 -45 55 -79 -36z m52 -20 c-27 -5 -30 1 -17 34 l11 29 12 -30 c11
-27 11 -30 -6 -33z"/>
<path d="M3660 5250 c0 -73 3 -90 15 -90 12 0 15 17 15 90 0 73 -3 90 -15 90
-12 0 -15 -17 -15 -90z"/>
<path d="M3720 5330 c0 -5 7 -10 15 -10 8 0 15 5 15 10 0 6 -7 10 -15 10 -8 0
-15 -4 -15 -10z"/>
<path d="M4110 5330 c0 -5 7 -10 15 -10 8 0 15 5 15 10 0 6 -7 10 -15 10 -8 0
-15 -4 -15 -10z"/>
<path d="M4050 5311 c0 -11 -6 -22 -12 -24 -10 -4 -10 -7 -1 -14 6 -5 13 -31
15 -58 3 -43 6 -50 26 -53 12 -2 22 1 22 7 0 6 -4 11 -10 11 -15 0 -12 87 3
94 10 5 10 7 0 12 -7 3 -13 14 -13 25 0 10 -7 19 -15 19 -8 0 -15 -9 -15 -19z"/>
<path d="M3380 5199 c0 -72 3 -89 15 -89 10 0 15 10 15 29 0 25 3 28 25 23 35
-6 65 23 65 63 0 43 -26 64 -78 63 l-42 0 0 -89z m88 30 c2 -27 -1 -38 -14
-43 -35 -13 -60 44 -32 72 22 22 43 9 46 -29z"/>
<path d="M3520 5199 c0 -72 3 -89 15 -89 10 0 15 10 15 29 0 25 3 28 25 23 35
-6 65 23 65 63 0 43 -26 64 -78 63 l-42 0 0 -89z m88 30 c2 -27 -1 -38 -14
-43 -35 -13 -60 44 -32 72 22 22 43 9 46 -29z"/>
<path d="M3720 5225 c0 -51 3 -65 15 -65 12 0 15 14 15 65 0 51 -3 65 -15 65
-12 0 -15 -14 -15 -65z"/>
<path d="M3786 5268 c-32 -46 -7 -108 43 -108 25 0 61 26 61 43 0 14 -23 7
-36 -10 -18 -25 -49 -5 -49 32 0 30 34 61 42 38 3 -7 14 -13 25 -13 20 0 21 1
3 20 -24 27 -70 26 -89 -2z"/>
<path d="M3915 5274 c-22 -22 -11 -30 19 -14 25 13 56 8 56 -8 0 -5 -19 -13
-42 -18 -39 -8 -43 -12 -43 -39 0 -30 1 -30 58 -31 l57 -1 -6 51 c-3 28 -7 57
-9 64 -6 18 -71 15 -90 -4z m65 -79 c-16 -19 -50 -20 -50 -1 0 8 12 16 28 18
35 4 38 2 22 -17z"/>
<path d="M4110 5225 c0 -51 3 -65 15 -65 12 0 15 14 15 65 0 51 -3 65 -15 65
-12 0 -15 -14 -15 -65z"/>
<path d="M4176 5268 c-34 -48 -7 -108 48 -108 58 0 85 58 50 108 -10 15 -25
22 -49 22 -24 0 -39 -7 -49 -22z m72 -10 c30 -30 -2 -93 -36 -71 -21 13 -27
50 -12 69 15 17 32 18 48 2z"/>
<path d="M4310 5224 c0 -50 3 -64 15 -64 11 0 15 12 15 49 0 35 4 51 16 55 26
10 34 -3 34 -55 0 -37 4 -49 15 -49 11 0 15 13 15 54 0 63 -11 75 -68 74 l-42
0 0 -64z"/>
<path d="M5675 4797 c-95 -47 -145 -123 -145 -222 0 -61 19 -117 53 -154 32
-35 108 -81 131 -81 13 1 7 6 -17 14 -58 21 -103 61 -131 118 -88 176 65 368
262 327 46 -9 64 -20 108 -63 32 -33 54 -65 59 -87 5 -19 10 -29 12 -22 6 17
-20 74 -52 111 -64 76 -190 103 -280 59z"/>
<path d="M5737 4653 c-14 -14 -6 -19 24 -15 28 4 30 2 27 -19 -2 -16 -11 -25
-25 -27 -31 -5 -29 -22 2 -22 32 0 45 -28 22 -45 -10 -7 -29 -10 -43 -7 -19 3
-25 1 -20 -7 9 -15 69 -14 84 1 15 15 16 54 2 63 -7 4 -7 13 0 26 16 29 -4 59
-39 59 -15 0 -31 -3 -34 -7z"/>
<path d="M6013 4575 c0 -22 2 -30 4 -17 2 12 2 30 0 40 -3 9 -5 -1 -4 -23z"/>
<path d="M5995 4501 c-8 -37 -64 -104 -110 -133 -16 -10 -25 -18 -18 -18 43 0
153 135 141 172 -3 7 -8 -2 -13 -21z"/>
<path d="M5828 4343 c7 -3 16 -2 19 1 4 3 -2 6 -13 5 -11 0 -14 -3 -6 -6z"/>
<path d="M5758 4333 c12 -2 30 -2 40 0 9 3 -1 5 -23 4 -22 0 -30 -2 -17 -4z"/>
<path d="M3590 4720 c0 -47 4 -80 10 -80 6 0 10 33 10 80 0 47 -4 80 -10 80
-6 0 -10 -33 -10 -80z"/>
<path d="M3650 4720 c0 -47 4 -80 10 -80 6 0 10 16 10 35 0 48 29 47 68 -2 36
-45 54 -38 22 8 -21 28 -22 32 -7 41 20 11 22 49 5 66 -7 7 -34 12 -60 12
l-48 0 0 -80z m95 35 c0 -16 -8 -21 -37 -23 -35 -3 -38 -1 -38 23 0 24 3 26
38 23 29 -2 37 -7 37 -23z"/>
<path d="M3810 4720 c0 -64 3 -80 15 -80 12 0 15 16 15 80 0 64 -3 80 -15 80
-12 0 -15 -16 -15 -80z"/>
<path d="M3895 4775 c-16 -15 -25 -36 -25 -55 0 -38 39 -80 73 -80 43 0 72 32
72 80 0 73 -70 106 -120 55z m87 -12 c35 -32 12 -103 -34 -103 -40 0 -58 19
-58 60 0 56 51 80 92 43z"/>
<path d="M3470 4450 l0 -80 50 0 c28 0 50 5 50 10 0 6 -18 10 -40 10 l-40 0 0
70 c0 40 -4 70 -10 70 -6 0 -10 -33 -10 -80z"/>
<path d="M3640 4451 l0 -79 41 2 c46 3 59 16 59 63 0 36 -28 58 -60 48 -16 -5
-20 -2 -20 19 0 14 -4 26 -10 26 -6 0 -10 -33 -10 -79z m78 -19 c2 -22 -2 -34
-12 -38 -34 -13 -61 37 -34 64 21 21 43 9 46 -26z"/>
<path d="M3603 4430 c0 -36 2 -50 4 -32 2 17 2 47 0 65 -2 17 -4 3 -4 -33z"/>
<path d="M3770 4428 c0 -32 4 -58 10 -58 6 0 10 21 10 46 0 37 4 47 20 51 30
8 24 22 -10 21 -30 -1 -30 -1 -30 -60z"/>
<path d="M3855 4474 c-21 -21 -13 -29 13 -13 21 13 57 5 47 -11 -3 -5 -17 -10
-29 -10 -13 0 -29 -7 -37 -16 -21 -26 1 -49 50 -50 l41 -1 0 47 c0 25 -5 51
-12 58 -17 17 -54 15 -73 -4z m65 -52 c0 -14 -23 -32 -42 -32 -20 0 -25 26 -5
33 20 8 47 8 47 -1z"/>
<path d="M3970 4429 c0 -33 4 -59 10 -59 6 0 10 20 10 45 0 38 4 47 23 54 20
8 24 4 44 -40 23 -50 22 -79 -3 -79 -8 0 -14 -4 -14 -10 0 -14 26 -12 38 3 19
22 62 149 50 145 -6 -2 -18 -24 -26 -48 l-15 -44 -16 45 c-16 42 -18 44 -59
45 l-42 2 0 -59z"/>
<path d="M3000 3635 c0 -43 4 -75 10 -75 6 0 10 26 10 58 l1 57 35 -57 c20
-32 40 -58 45 -58 5 0 9 34 9 75 0 43 -4 75 -10 75 -5 0 -10 -26 -10 -57 l-1
-58 -35 58 c-20 31 -40 57 -45 57 -5 0 -9 -34 -9 -75z"/>
<path d="M3150 3635 c0 -43 4 -75 10 -75 6 0 10 32 10 75 0 43 -4 75 -10 75
-6 0 -10 -32 -10 -75z"/>
<path d="M3250 3635 c0 -43 4 -75 10 -75 6 0 10 16 10 35 0 48 31 48 62 0 22
-33 38 -45 38 -26 0 4 -9 19 -19 33 -20 24 -20 25 0 41 10 9 19 21 19 26 0 23
-34 41 -76 41 l-44 0 0 -75z m95 35 c0 -10 -12 -16 -37 -18 -33 -3 -38 0 -38
18 0 18 5 21 38 18 25 -2 37 -8 37 -18z"/>
<path d="M3400 3635 c0 -43 4 -75 10 -75 6 0 10 32 10 75 0 43 -4 75 -10 75
-6 0 -10 -32 -10 -75z"/>
<path d="M3465 3685 c-14 -13 -25 -36 -25 -50 0 -30 41 -75 68 -75 36 0 66 34
66 75 0 68 -63 97 -109 50z m79 -11 c34 -33 9 -94 -38 -94 -31 0 -46 18 -46
55 0 17 5 36 12 43 17 17 54 15 72 -4z"/>
<path d="M3662 3638 l-2 -78 40 0 c22 0 40 5 40 10 0 6 -16 10 -35 10 l-34 0
-4 68 -3 67 -2 -77z"/>
<path d="M3760 3700 c0 -5 5 -10 10 -10 6 0 10 5 10 10 0 6 -4 10 -10 10 -5 0
-10 -4 -10 -10z"/>
<path d="M4183 3635 c0 -44 2 -61 4 -37 2 23 2 59 0 80 -2 20 -4 1 -4 -43z"/>
<path d="M4220 3700 c0 -5 5 -10 10 -10 6 0 10 5 10 10 0 6 -4 10 -10 10 -5 0
-10 -4 -10 -10z"/>
<path d="M4260 3637 l0 -74 32 -1 c42 -1 58 13 58 53 0 38 -21 60 -50 52 -16
-4 -20 0 -20 19 0 13 -4 24 -10 24 -6 0 -10 -31 -10 -73z m74 -9 c13 -22 -14
-54 -38 -45 -16 6 -22 48 -9 61 11 11 35 3 47 -16z"/>
<path d="M3760 3615 c0 -30 5 -55 10 -55 6 0 10 25 10 55 0 30 -4 55 -10 55
-5 0 -10 -25 -10 -55z"/>
<path d="M3811 3610 c1 -58 4 -58 14 3 4 28 11 37 25 37 17 0 20 -7 20 -45 0
-25 5 -45 10 -45 15 0 13 100 -2 102 -68 8 -68 8 -67 -52z"/>
<path d="M3910 3633 c0 -52 13 -68 55 -69 l35 -1 0 53 c0 64 -17 73 -22 12 -2
-35 -7 -43 -23 -43 -16 0 -21 8 -23 43 -4 52 -22 56 -22 5z"/>
<path d="M4020 3663 c0 -5 7 -17 15 -27 13 -17 13 -22 0 -42 -22 -34 -18 -43
6 -15 20 25 29 22 42 -14 3 -5 7 -7 11 -3 4 3 0 18 -9 31 -15 24 -15 27 0 51
19 29 10 36 -11 9 -13 -17 -15 -17 -28 0 -14 18 -26 22 -26 10z"/>
<path d="M4220 3615 c0 -30 5 -55 10 -55 6 0 10 25 10 55 0 30 -4 55 -10 55
-5 0 -10 -25 -10 -55z"/>
<path d="M4370 3613 c0 -29 5 -53 10 -53 6 0 10 18 10 41 0 32 4 42 20 46 30
8 24 22 -10 21 -29 -1 -30 -2 -30 -55z"/>
<path d="M4453 3663 c-25 -9 -13 -22 16 -17 41 8 49 -13 9 -24 -26 -6 -33 -13
-33 -33 0 -21 4 -24 43 -25 41 -1 42 0 42 33 0 61 -29 86 -77 66z m45 -69
c-10 -10 -23 -14 -34 -10 -16 6 -16 8 -4 16 8 6 24 10 35 10 18 0 18 -1 3 -16z"/>
<path d="M4550 3613 c0 -29 5 -53 10 -53 6 0 10 20 10 44 0 35 4 45 19 49 15
4 23 -4 35 -37 20 -52 20 -76 1 -76 -8 0 -15 -4 -15 -10 0 -18 29 -10 41 11
20 38 48 129 39 129 -4 0 -15 -19 -23 -42 -10 -28 -17 -38 -21 -28 -3 8 -10
28 -16 43 -8 24 -15 27 -45 25 l-35 -2 0 -53z"/>
<path d="M3310 3405 c0 -43 4 -75 10 -75 6 0 10 32 10 75 0 43 -4 75 -10 75
-6 0 -10 -32 -10 -75z"/>
<path d="M3350 3470 c0 -5 5 -10 10 -10 6 0 10 5 10 10 0 6 -4 10 -10 10 -5 0
-10 -4 -10 -10z"/>
<path d="M3401 3410 l-1 -76 32 1 c24 0 36 7 47 26 13 24 13 29 -3 54 -14 21
-23 25 -41 21 -20 -5 -24 -2 -28 21 -2 16 -5 -6 -6 -47z m64 -25 c0 -23 -5
-31 -22 -33 -26 -4 -41 31 -22 54 20 24 44 13 44 -21z"/>
<path d="M3510 3405 c0 -43 4 -75 10 -75 6 0 10 26 10 58 l1 57 35 -57 c20
-32 40 -58 45 -58 5 0 9 34 9 75 0 43 -4 75 -10 75 -5 0 -10 -26 -10 -57 l-1
-58 -35 58 c-20 31 -40 57 -45 57 -5 0 -9 -34 -9 -75z"/>
<path d="M3650 3470 c0 -5 5 -10 10 -10 6 0 10 5 10 10 0 6 -4 10 -10 10 -5 0
-10 -4 -10 -10z"/>
<path d="M3690 3405 c0 -43 4 -75 10 -75 6 0 10 16 10 35 0 33 2 35 35 35 19
0 35 5 35 10 0 6 -16 10 -35 10 -28 0 -35 4 -35 20 0 17 7 20 40 20 22 0 40 5
40 10 0 6 -22 10 -50 10 l-50 0 0 -75z"/>
<path d="M3350 3385 c0 -30 5 -55 10 -55 6 0 10 25 10 55 0 30 -4 55 -10 55
-5 0 -10 -25 -10 -55z"/>
<path d="M3650 3385 c0 -30 5 -55 10 -55 6 0 10 25 10 55 0 30 -4 55 -10 55
-5 0 -10 -25 -10 -55z"/>
<path d="M3810 3363 c0 -42 4 -73 10 -73 6 0 10 11 10 24 0 19 4 23 19 19 22
-6 51 21 51 48 0 40 -18 58 -55 57 l-35 -1 0 -74z m65 22 c0 -23 -4 -30 -20
-30 -21 0 -31 25 -21 51 11 28 41 12 41 -21z"/>
<path d="M3932 3426 c-33 -42 -11 -102 34 -93 16 3 23 0 21 -7 -2 -6 -19 -10
-36 -9 -39 1 -37 -20 1 -25 37 -4 58 30 58 93 l0 51 -35 1 c-19 1 -38 -4 -43
-11z m53 -25 c8 -26 -4 -51 -25 -51 -10 0 -21 7 -24 16 -10 25 3 54 24 54 10
0 21 -8 25 -19z"/>
<path d="M4043 3433 c-25 -9 -13 -22 16 -17 41 8 49 -13 9 -24 -26 -6 -33 -13
-33 -33 0 -21 4 -24 43 -25 41 -1 42 0 42 33 0 61 -29 86 -77 66z m45 -69
c-10 -10 -23 -14 -34 -10 -16 6 -16 8 -4 16 8 6 24 10 35 10 18 0 18 -1 3 -16z"/>
<path d="M4200 3425 c-16 -19 0 -40 36 -49 35 -9 18 -29 -18 -22 -26 5 -29 4
-18 -9 26 -32 88 -8 74 28 -3 9 -19 19 -35 22 -39 9 -38 29 1 22 31 -7 42 6
14 17 -25 10 -41 7 -54 -9z"/>
<path d="M4308 3429 c-12 -6 -18 -22 -18 -45 0 -27 5 -37 26 -46 34 -16 58 0
62 41 5 52 -27 75 -70 50z m56 -31 c13 -22 -14 -54 -38 -45 -16 6 -22 48 -9
61 11 11 35 3 47 -16z"/>
<path d="M4150 3340 c0 -5 5 -10 10 -10 6 0 10 5 10 10 0 6 -4 10 -10 10 -5 0
-10 -4 -10 -10z"/>
<path d="M120 4370 l0 -90 55 0 c30 0 55 5 55 10 0 6 -20 10 -45 10 l-45 0 0
80 c0 47 -4 80 -10 80 -6 0 -10 -37 -10 -90z"/>
<path d="M674 4370 c0 -52 1 -74 3 -47 2 26 2 68 0 95 -2 26 -3 4 -3 -48z"/>
<path d="M808 4449 c-10 -5 -18 -17 -18 -24 0 -20 16 -19 24 0 10 26 66 12 66
-17 0 -4 -22 -33 -50 -63 -27 -30 -50 -57 -50 -60 0 -3 27 -5 60 -5 33 0 60 4
60 10 0 6 -19 10 -42 10 l-42 0 36 38 c47 49 55 75 29 101 -23 23 -46 26 -73
10z"/>
<path d="M272 4394 c-15 -10 -22 -25 -22 -49 0 -54 53 -82 96 -51 25 19 12 31
-15 14 -15 -9 -26 -10 -38 -2 -34 21 -26 34 21 34 39 0 46 3 46 19 0 24 -26
51 -48 51 -10 0 -28 -7 -40 -16z m66 -21 c2 -9 -8 -13 -32 -13 -34 0 -44 8
-29 24 11 11 56 2 61 -11z"/>
<path d="M408 4345 c14 -36 29 -65 32 -65 10 0 53 120 46 127 -3 3 -10 -7 -17
-23 -33 -87 -29 -84 -51 -26 -10 28 -23 52 -28 52 -4 0 3 -29 18 -65z"/>
<path d="M536 4394 c-21 -20 -21 -78 0 -98 21 -22 57 -20 79 4 10 11 13 20 7
20 -6 0 -14 -4 -17 -10 -11 -18 -54 -11 -65 10 -10 19 -8 20 40 20 43 0 50 3
50 19 0 22 -35 51 -62 51 -9 0 -24 -7 -32 -16z m72 -21 c2 -9 -8 -13 -32 -13
-34 0 -44 8 -29 24 11 11 56 2 61 -11z"/>
<path d="M5033 3743 c9 -2 25 -2 35 0 9 3 1 5 -18 5 -19 0 -27 -2 -17 -5z"/>
<path d="M1790 3650 l0 -80 50 0 c28 0 50 5 50 10 0 6 -18 10 -40 10 l-40 0 0
70 c0 40 -4 70 -10 70 -6 0 -10 -33 -10 -80z"/>
<path d="M2390 3670 c0 -67 21 -100 64 -100 43 0 56 24 55 98 l-2 67 -7 -61
c-8 -72 -14 -84 -44 -84 -35 0 -46 20 -46 82 0 32 -4 58 -10 58 -6 0 -10 -27
-10 -60z"/>
<path d="M5165 3707 c21 -12 54 -42 72 -65 18 -24 33 -40 33 -35 0 17 -71 93
-101 108 -44 23 -48 17 -4 -8z"/>
<path d="M4889 3683 c-39 -35 -75 -90 -66 -99 2 -3 10 9 17 26 7 17 33 49 58
70 25 22 42 40 38 40 -3 0 -24 -17 -47 -37z"/>
<path d="M1923 3630 c0 -36 2 -50 4 -32 2 17 2 47 0 65 -2 17 -4 3 -4 -33z"/>
<path d="M1960 3628 c0 -32 4 -58 10 -58 6 0 10 17 10 39 0 41 20 67 45 57 10
-4 15 -19 15 -51 0 -25 5 -45 10 -45 13 0 13 76 0 100 -8 14 -20 19 -50 17
l-40 -1 0 -58z"/>
<path d="M2090 3641 c0 -58 20 -82 51 -63 11 7 19 8 19 2 0 -5 5 -10 10 -10 6
0 10 27 10 60 0 71 -18 81 -22 13 -3 -41 -6 -48 -25 -51 -21 -3 -23 0 -23 47
0 28 -4 51 -10 51 -5 0 -10 -22 -10 -49z"/>
<path d="M2226 3661 c16 -28 16 -31 0 -56 -22 -33 -12 -48 11 -15 l16 23 19
-23 c25 -30 34 -19 12 15 -16 25 -16 28 0 56 9 16 13 29 7 29 -6 0 -16 -10
-22 -22 l-12 -22 -15 22 c-22 33 -36 27 -16 -7z"/>
<path d="M2563 3683 c-26 -10 -14 -44 22 -59 19 -8 35 -19 35 -25 0 -8 -12
-10 -35 -6 -39 6 -48 -9 -11 -19 28 -7 66 11 66 30 0 17 -19 33 -44 37 -11 2
-21 10 -24 18 -4 11 2 13 27 8 32 -7 43 6 15 17 -18 7 -33 7 -51 -1z"/>
<path d="M2677 3672 c-22 -24 -21 -65 1 -85 23 -21 42 -21 68 -3 24 18 13 31
-14 15 -23 -14 -52 -6 -52 16 0 11 11 15 40 15 33 0 40 3 40 20 0 19 -27 40
-53 40 -8 0 -21 -8 -30 -18z m63 -12 c0 -5 -14 -10 -31 -10 -17 0 -28 4 -24
10 3 6 17 10 31 10 13 0 24 -4 24 -10z"/>
<path d="M2790 3628 c0 -32 4 -58 10 -58 6 0 10 20 10 44 0 34 5 47 23 59 22
15 22 15 -10 15 l-33 -1 0 -59z"/>
<path d="M120 3570 l0 -90 55 0 c30 0 55 5 55 10 0 6 -20 10 -45 10 l-45 0 0
80 c0 47 -4 80 -10 80 -6 0 -10 -37 -10 -90z"/>
<path d="M674 3570 c0 -52 1 -74 3 -47 2 26 2 68 0 95 -2 26 -3 4 -3 -48z"/>
<path d="M826 3634 c-31 -28 -30 -42 3 -24 20 10 21 9 21 -60 0 -40 4 -70 10
-70 6 0 10 37 10 90 0 50 -3 90 -7 90 -5 0 -21 -12 -37 -26z"/>
<path d="M272 3594 c-15 -10 -22 -25 -22 -49 0 -54 53 -82 96 -51 25 19 12 31
-15 14 -15 -9 -26 -10 -38 -2 -34 21 -26 34 21 34 39 0 46 3 46 19 0 24 -26
51 -48 51 -10 0 -28 -7 -40 -16z m66 -21 c2 -9 -8 -13 -32 -13 -34 0 -44 8
-29 24 11 11 56 2 61 -11z"/>
<path d="M408 3545 c14 -36 29 -65 32 -65 10 0 53 120 46 127 -3 3 -10 -7 -17
-23 -33 -87 -29 -84 -51 -26 -10 28 -23 52 -28 52 -4 0 3 -29 18 -65z"/>
<path d="M536 3594 c-21 -20 -21 -78 0 -98 21 -22 57 -20 79 4 10 11 13 20 7
20 -6 0 -14 -4 -17 -10 -11 -18 -54 -11 -65 10 -10 19 -8 20 40 20 43 0 50 3
50 19 0 22 -35 51 -62 51 -9 0 -24 -7 -32 -16z m72 -21 c2 -9 -8 -13 -32 -13
-34 0 -44 8 -29 24 11 11 56 2 61 -11z"/>
<path d="M5011 3576 c-10 -12 -6 -14 21 -13 47 3 48 -27 3 -80 -19 -23 -35
-44 -35 -47 0 -3 23 -6 50 -6 28 0 50 5 50 10 0 6 -17 10 -37 10 l-37 0 32 33
c36 37 44 90 16 101 -26 10 -51 7 -63 -8z"/>
<path d="M4812 3550 c0 -14 2 -19 5 -12 2 6 2 18 0 25 -3 6 -5 1 -5 -13z"/>
<path d="M5282 3507 c-3 -101 -49 -173 -137 -213 -27 -13 -44 -24 -37 -24 28
0 92 41 126 82 44 51 59 96 54 163 l-4 50 -2 -58z"/>
<path d="M4812 3460 c0 -14 2 -19 5 -12 2 6 2 18 0 25 -3 6 -5 1 -5 -13z"/>
<path d="M4820 3427 c-1 -27 92 -137 117 -137 4 0 -12 16 -35 36 -24 20 -51
52 -62 73 -10 20 -19 32 -20 28z"/>
<path d="M2036 3405 c-21 -21 -11 -41 25 -51 42 -12 36 -29 -8 -28 -34 2 -35
0 -18 -12 25 -18 50 -18 69 2 24 24 20 34 -24 51 -45 18 -43 38 2 29 26 -5 29
-4 18 9 -16 19 -44 19 -64 0z"/>
<path d="M2140 3338 c0 -45 4 -78 10 -78 6 0 10 11 10 24 0 19 4 23 19 19 23
-6 61 29 61 55 0 35 -29 61 -65 60 l-35 -1 0 -79z m76 36 c8 -30 -16 -60 -40
-51 -16 6 -23 57 -9 70 16 16 43 6 49 -19z"/>
<path d="M2275 3404 c-21 -21 -13 -29 13 -13 21 13 57 5 47 -11 -3 -5 -17 -10
-29 -10 -13 0 -29 -7 -37 -16 -21 -26 1 -49 50 -50 l41 -1 0 47 c0 25 -5 51
-12 58 -17 17 -54 15 -73 -4z m65 -52 c0 -14 -23 -32 -42 -32 -20 0 -25 26 -5
33 20 8 47 8 47 -1z"/>
<path d="M2400 3400 c-11 -11 -20 -29 -20 -40 0 -23 33 -60 53 -60 18 0 53 27
45 35 -3 3 -16 0 -28 -7 -18 -11 -23 -11 -36 6 -8 11 -14 23 -14 26 0 3 6 15
14 26 13 17 18 17 36 6 28 -17 36 -10 15 12 -22 21 -41 20 -65 -4z"/>
<path d="M2515 3404 c-10 -11 -15 -29 -13 -53 2 -29 8 -38 30 -45 22 -8 32 -6
48 9 24 22 20 31 -8 14 -23 -14 -52 -6 -52 16 0 11 11 15 40 15 44 0 52 16 22
43 -23 21 -46 21 -67 1z m60 -14 c4 -6 -7 -10 -25 -10 -18 0 -29 4 -25 10 3 6
15 10 25 10 10 0 22 -4 25 -10z"/>
<path d="M4960 3280 c8 -5 22 -9 30 -9 10 0 8 3 -5 9 -27 12 -43 12 -25 0z"/>
<path d="M5033 3263 c9 -2 25 -2 35 0 9 3 1 5 -18 5 -19 0 -27 -2 -17 -5z"/>
<path d="M1690 2790 l0 -80 50 0 c28 0 50 5 50 10 0 6 -18 10 -40 10 l-40 0 0
70 c0 40 -4 70 -10 70 -6 0 -10 -33 -10 -80z"/>
<path d="M1810 2860 c0 -5 5 -10 10 -10 6 0 10 5 10 10 0 6 -4 10 -10 10 -5 0
-10 -4 -10 -10z"/>
<path d="M2290 2790 c0 -47 4 -80 10 -80 6 0 10 13 10 29 0 16 6 34 14 40 10
9 19 3 41 -29 15 -22 34 -40 42 -40 9 0 1 17 -22 47 l-36 47 33 33 c45 46 14
43 -34 -4 l-38 -37 0 37 c0 20 -4 37 -10 37 -6 0 -10 -33 -10 -80z"/>
<path d="M2890 2790 c0 -47 4 -80 10 -80 6 0 10 33 10 80 0 47 -4 80 -10 80
-6 0 -10 -33 -10 -80z"/>
<path d="M1810 2770 c0 -33 4 -60 10 -60 6 0 10 27 10 60 0 33 -4 60 -10 60
-6 0 -10 -27 -10 -60z"/>
<path d="M1860 2769 c0 -70 18 -79 22 -11 3 40 6 47 26 50 20 3 22 0 22 -47 0
-28 5 -51 10 -51 11 0 14 109 3 111 -5 1 -25 3 -45 4 l-38 2 0 -58z"/>
<path d="M1990 2781 c0 -55 11 -68 58 -68 l32 0 0 59 c0 69 -18 78 -22 11 -3
-41 -6 -48 -25 -51 -21 -3 -23 0 -23 47 0 28 -4 51 -10 51 -5 0 -10 -22 -10
-49z"/>
<path d="M2110 2825 c0 -3 7 -17 16 -30 15 -23 14 -26 -6 -55 -12 -16 -17 -30
-11 -30 5 0 17 10 26 23 l16 22 16 -22 c24 -36 37 -27 15 9 -21 32 -21 32 -1
60 11 15 16 28 10 28 -5 0 -17 -10 -25 -21 l-14 -21 -14 21 c-12 19 -28 28
-28 16z"/>
<path d="M2450 2810 c-11 -11 -20 -29 -20 -40 0 -43 60 -76 88 -48 19 19 14
29 -8 16 -15 -9 -25 -10 -37 -2 -34 21 -26 34 21 34 25 0 46 5 46 10 0 15 -38
50 -55 50 -8 0 -24 -9 -35 -20z m65 -10 c4 -6 -8 -10 -30 -10 -22 0 -34 4 -30
10 3 6 17 10 30 10 13 0 27 -4 30 -10z"/>
<path d="M2560 2768 c0 -32 4 -58 10 -58 6 0 10 21 10 46 0 37 4 47 20 51 30
8 24 22 -10 21 -30 -1 -30 -1 -30 -60z"/>
<path d="M2640 2768 c0 -69 18 -78 22 -10 3 39 6 47 23 47 17 0 20 -8 23 -47
4 -63 22 -62 22 1 0 56 -12 70 -58 69 l-32 -1 0 -59z"/>
<path d="M2775 2814 c-10 -11 -15 -29 -13 -53 2 -29 8 -38 30 -45 22 -8 32 -6
48 9 24 22 20 31 -8 14 -23 -14 -52 -6 -52 16 0 11 11 15 40 15 44 0 52 16 22
43 -23 21 -46 21 -67 1z m60 -14 c4 -6 -7 -10 -25 -10 -18 0 -29 4 -25 10 3 6
15 10 25 10 10 0 22 -4 25 -10z"/>
<path d="M4998 2823 c12 -2 32 -2 45 0 12 2 2 4 -23 4 -25 0 -35 -2 -22 -4z"/>
<path d="M4873 2781 c-37 -26 -83 -86 -83 -107 0 -4 13 13 29 38 16 25 49 57
73 72 23 14 38 26 32 26 -6 0 -29 -13 -51 -29z"/>
<path d="M5125 2793 c48 -25 76 -55 101 -108 13 -27 24 -44 24 -37 0 51 -102
164 -147 162 -4 -1 6 -8 22 -17z"/>
<path d="M3220 2670 c0 -91 17 -109 22 -23 l3 57 38 -57 c20 -31 42 -57 47
-57 6 0 10 34 10 80 0 47 -4 80 -10 80 -6 0 -10 -28 -10 -62 l0 -63 -41 63
c-23 34 -46 62 -50 62 -5 0 -9 -36 -9 -80z"/>
<path d="M3380 2670 c0 -47 4 -80 10 -80 6 0 10 33 10 80 0 47 -4 80 -10 80
-6 0 -10 -33 -10 -80z"/>
<path d="M3510 2670 c0 -47 4 -80 10 -80 6 0 10 16 10 35 0 48 31 48 62 0 29
-44 57 -49 31 -5 -9 17 -22 30 -27 30 -5 0 0 9 12 20 43 40 16 80 -54 80 l-44
0 0 -80z m95 35 c0 -16 -8 -21 -37 -23 -35 -3 -38 -1 -38 23 0 24 3 26 38 23
29 -2 37 -7 37 -23z"/>
<path d="M3670 2670 c0 -47 4 -80 10 -80 6 0 10 33 10 80 0 47 -4 80 -10 80
-6 0 -10 -33 -10 -80z"/>
<path d="M3749 2731 c-18 -14 -24 -29 -24 -61 0 -48 29 -80 72 -80 34 0 73 42
73 80 0 38 -39 80 -73 80 -14 0 -35 -9 -48 -19z m85 -17 c35 -34 10 -104 -36
-104 -30 0 -58 28 -58 58 0 52 59 81 94 46z"/>
<path d="M3960 2670 l0 -80 50 0 c28 0 50 5 50 10 0 6 -18 10 -40 10 l-40 0 0
70 c0 40 -4 70 -10 70 -6 0 -10 -33 -10 -80z"/>
<path d="M4090 2740 c0 -5 5 -10 10 -10 6 0 10 5 10 10 0 6 -4 10 -10 10 -5 0
-10 -4 -10 -10z"/>
<path d="M4090 2650 c0 -33 4 -60 10 -60 6 0 10 27 10 60 0 33 -4 60 -10 60
-6 0 -10 -27 -10 -60z"/>
<path d="M4140 2648 c0 -69 18 -78 22 -10 3 39 6 47 23 47 17 0 20 -8 23 -47
4 -63 22 -62 22 1 0 56 -12 70 -58 69 l-32 -1 0 -59z"/>
<path d="M4260 2661 c0 -56 13 -71 58 -68 32 2 32 2 32 60 0 69 -18 77 -22 10
-3 -40 -6 -48 -23 -48 -17 0 -20 8 -23 48 -4 62 -22 61 -22 -2z"/>
<path d="M4390 2691 c5 -11 15 -23 20 -26 7 -4 3 -19 -10 -41 -24 -37 -12 -48
13 -11 l16 22 16 -22 c9 -13 21 -23 26 -23 6 0 1 14 -11 30 -21 29 -21 32 -5
56 21 32 10 46 -11 15 l-16 -22 -15 20 c-18 27 -37 28 -23 2z"/>
<path d="M130 2580 l0 -90 55 0 c30 0 55 5 55 10 0 6 -20 10 -45 10 l-45 0 0
80 c0 47 -4 80 -10 80 -6 0 -10 -37 -10 -90z"/>
<path d="M680 2580 c0 -53 4 -90 10 -90 6 0 10 37 10 90 0 53 -4 90 -10 90 -6
0 -10 -37 -10 -90z"/>
<path d="M816 2648 c-9 -12 -16 -43 -16 -68 0 -54 22 -90 55 -90 33 0 55 36
55 90 0 54 -22 90 -55 90 -13 0 -31 -10 -39 -22z m68 -14 c3 -9 6 -33 6 -54 0
-21 -3 -45 -6 -54 -7 -19 -35 -21 -52 -4 -16 16 -16 100 0 116 17 17 45 15 52
-4z"/>
<path d="M4989 2649 l-24 -20 23 6 c21 6 22 4 22 -49 0 -43 -3 -56 -15 -56 -8
0 -15 -4 -15 -10 0 -5 20 -10 45 -10 25 0 45 5 45 10 0 6 -7 10 -15 10 -12 0
-15 14 -15 70 0 77 -9 86 -51 49z"/>
<path d="M4781 2644 c0 -11 3 -14 6 -6 3 7 2 16 -1 19 -3 4 -6 -2 -5 -13z"/>
<path d="M5253 2585 c0 -27 2 -38 4 -22 2 15 2 37 0 50 -2 12 -4 0 -4 -28z"/>
<path d="M280 2600 c-11 -11 -20 -31 -20 -45 0 -29 32 -65 58 -65 25 0 59 26
48 37 -5 4 -11 2 -13 -4 -9 -26 -73 -9 -73 19 0 4 23 8 50 8 38 0 50 4 50 15
0 22 -37 55 -60 55 -11 0 -29 -9 -40 -20z m70 -15 c11 -13 7 -15 -30 -15 -37
0 -41 2 -30 15 7 8 20 15 30 15 10 0 23 -7 30 -15z"/>
<path d="M401 2613 c0 -5 13 -35 29 -68 l28 -60 19 45 c30 67 36 90 24 90 -6
0 -11 -6 -12 -12 0 -7 -8 -31 -18 -53 l-18 -40 -17 53 c-10 28 -22 52 -27 52
-5 0 -9 -3 -8 -7z"/>
<path d="M550 2600 c-11 -11 -20 -31 -20 -45 0 -29 32 -65 58 -65 25 0 59 26
48 37 -5 4 -11 2 -13 -4 -9 -26 -73 -9 -73 19 0 4 23 8 50 8 38 0 50 4 50 15
0 22 -37 55 -60 55 -11 0 -29 -9 -40 -20z m70 -15 c11 -13 7 -15 -30 -15 -37
0 -41 2 -30 15 7 8 20 15 30 15 10 0 23 -7 30 -15z"/>
<path d="M4772 2590 c0 -19 2 -27 5 -17 2 9 2 25 0 35 -3 9 -5 1 -5 -18z"/>
<path d="M2023 2553 c-26 -10 -14 -44 22 -59 19 -8 35 -19 35 -25 0 -8 -12
-10 -35 -6 -39 6 -48 -9 -11 -19 28 -7 66 11 66 30 0 17 -19 33 -44 37 -11 2
-21 10 -24 18 -4 11 2 13 27 8 32 -7 43 6 15 17 -18 7 -33 7 -51 -1z"/>
<path d="M2120 2479 c0 -46 4 -79 10 -79 6 0 10 11 10 25 0 22 3 25 24 19 31
-8 56 19 56 61 0 39 -11 48 -62 51 l-38 2 0 -79z m78 23 c2 -22 -2 -34 -12
-38 -34 -13 -61 37 -34 64 21 21 43 9 46 -26z"/>
<path d="M2264 2546 c-11 -8 -15 -18 -10 -23 5 -4 11 -2 13 5 3 6 16 12 30 12
34 0 25 -24 -12 -30 -69 -12 -53 -70 18 -67 l42 2 -4 45 c-5 68 -32 88 -77 56z
m54 -63 c-4 -21 -36 -29 -51 -14 -9 9 -8 14 3 21 25 16 52 12 48 -7z"/>
<path d="M2387 2542 c-22 -24 -21 -65 1 -85 23 -21 46 -22 67 -1 21 21 13 29
-13 13 -31 -19 -54 -5 -50 33 2 25 8 34 26 36 12 2 22 -1 22 -7 0 -6 7 -11 17
-11 14 0 14 2 -2 20 -23 25 -47 26 -68 2z"/>
<path d="M2500 2540 c-11 -11 -20 -29 -20 -40 0 -43 60 -76 88 -48 19 19 14
29 -8 16 -15 -9 -25 -10 -37 -2 -34 21 -26 34 21 34 25 0 46 5 46 10 0 15 -38
50 -55 50 -8 0 -24 -9 -35 -20z m65 -10 c4 -6 -8 -10 -30 -10 -22 0 -34 4 -30
10 3 6 17 10 30 10 13 0 27 -4 30 -10z"/>
<path d="M4781 2530 c0 -8 4 -22 9 -30 12 -18 12 -2 0 25 -6 13 -9 15 -9 5z"/>
<path d="M5230 2491 c0 -6 -21 -35 -47 -64 -30 -32 -38 -45 -23 -36 30 19 86
96 77 106 -4 3 -7 1 -7 -6z"/>
<path d="M3090 2410 c0 -64 3 -80 15 -80 10 0 15 10 15 33 1 31 1 31 16 12 8
-11 19 -27 24 -35 5 -8 12 -12 15 -8 4 4 -2 22 -14 41 -21 34 -21 34 -1 52 11
10 18 21 15 23 -3 3 -16 -5 -30 -18 l-25 -23 0 41 c0 31 -4 42 -15 42 -12 0
-15 -16 -15 -80z"/>
<path d="M3660 2410 c0 -47 4 -80 10 -80 6 0 10 33 10 80 0 47 -4 80 -10 80
-6 0 -10 -33 -10 -80z"/>
<path d="M4160 2465 c0 -22 -3 -25 -25 -19 -36 9 -55 -11 -55 -57 0 -43 17
-58 63 -56 27 2 27 2 27 80 0 42 -2 77 -5 77 -3 0 -5 -11 -5 -25z m-8 -60 c20
-44 -29 -77 -52 -35 -8 14 -8 26 0 40 15 27 38 25 52 -5z"/>
<path d="M4330 2410 c0 -47 4 -80 10 -80 6 0 10 33 10 80 0 47 -4 80 -10 80
-6 0 -10 -33 -10 -80z"/>
<path d="M4808 2465 c13 -26 61 -74 87 -87 11 -5 6 2 -12 17 -18 14 -44 40
-58 58 -15 18 -22 23 -17 12z"/>
<path d="M3216 2428 c-9 -12 -16 -29 -16 -38 0 -27 30 -60 54 -60 26 0 54 26
41 38 -4 4 -10 1 -12 -5 -6 -16 -35 -17 -51 -1 -21 21 -13 28 33 28 25 0 45 3
45 8 0 20 -34 52 -55 52 -13 0 -31 -10 -39 -22z m69 -8 c4 -6 -8 -10 -30 -10
-22 0 -34 4 -30 10 3 6 17 10 30 10 13 0 27 -4 30 -10z"/>
<path d="M3330 2388 c0 -32 4 -58 10 -58 6 0 10 21 10 46 0 37 4 47 20 51 30
8 24 22 -10 21 -30 -1 -30 -1 -30 -60z"/>
<path d="M3410 2388 c0 -69 18 -78 22 -10 3 39 6 47 23 47 17 0 20 -8 23 -47
4 -63 22 -62 22 1 0 56 -12 70 -58 69 l-32 -1 0 -59z"/>
<path d="M3548 2439 c-26 -15 -25 -85 1 -99 28 -14 47 -13 66 6 21 21 13 29
-13 13 -23 -14 -52 -6 -52 16 0 11 11 15 40 15 44 0 52 16 24 44 -18 18 -41
20 -66 5z m57 -19 c4 -6 -7 -10 -25 -10 -18 0 -29 4 -25 10 3 6 15 10 25 10
10 0 22 -4 25 -10z"/>
<path d="M3770 2388 c0 -69 18 -78 22 -10 3 39 6 47 23 47 17 0 20 -8 23 -47
2 -27 7 -48 12 -48 5 0 10 21 12 48 3 39 6 47 23 47 17 0 20 -8 23 -47 2 -27
7 -48 13 -48 12 0 12 76 -1 101 -11 20 -45 26 -55 9 -4 -7 -11 -7 -18 -2 -7 5
-27 9 -44 9 l-33 0 0 -59z"/>
<path d="M3966 2428 c-9 -12 -16 -29 -16 -38 0 -9 7 -26 16 -38 22 -31 63 -26
84 11 13 24 13 30 0 55 -21 36 -62 41 -84 10z m62 -10 c17 -17 15 -43 -4 -59
-31 -26 -70 25 -44 56 15 18 32 19 48 3z"/>
<path d="M4210 2395 c0 -30 3 -56 8 -56 4 -1 24 -3 45 -4 l37 -2 0 58 c0 70
-18 79 -22 12 -3 -40 -6 -48 -23 -48 -17 0 -20 8 -23 48 -4 65 -22 59 -22 -8z"/>
<path d="M4398 2439 c-26 -15 -25 -85 1 -99 28 -14 47 -13 66 6 21 21 13 29
-13 13 -23 -14 -52 -6 -52 16 0 11 11 15 40 15 44 0 52 16 24 44 -18 18 -41
20 -66 5z m57 -19 c4 -6 -7 -10 -25 -10 -18 0 -29 4 -25 10 3 6 15 10 25 10
10 0 22 -4 25 -10z"/>
<path d="M4516 2435 c-21 -22 -10 -43 28 -53 40 -11 31 -28 -13 -25 -28 2 -31
0 -21 -12 16 -20 54 -19 74 1 24 24 20 34 -24 51 -45 18 -43 38 2 29 26 -5 29
-4 18 9 -16 19 -44 19 -64 0z"/>
<path d="M5070 2360 c-21 -7 -21 -8 -5 -9 11 0 27 4 35 9 18 11 5 11 -30 0z"/>
<path d="M4958 2353 c7 -3 16 -2 19 1 4 3 -2 6 -13 5 -11 0 -14 -3 -6 -6z"/>
<path d="M5008 2343 c7 -3 16 -2 19 1 4 3 -2 6 -13 5 -11 0 -14 -3 -6 -6z"/>
<path d="M3840 2017 l0 -97 -335 0 -335 0 0 -895 0 -895 685 0 685 0 0 614 0
615 48 4 47 3 -47 2 -48 2 0 275 0 275 -337 -2 -338 -3 333 -2 332 -3 0 -885
0 -885 -675 0 -675 0 0 885 0 885 330 0 330 0 0 -40 c0 -29 -4 -40 -15 -40 -8
0 -15 -4 -15 -9 0 -5 7 -28 15 -51 8 -23 15 -44 15 -46 0 -2 -99 -4 -220 -4
l-220 0 0 -360 0 -360 440 0 440 0 0 180 0 179 63 4 62 3 -62 2 -63 2 0 175 0
175 -207 -2 -208 -3 203 -2 202 -3 0 -350 0 -350 -430 0 -430 0 0 350 0 350
225 0 c179 0 223 3 219 13 -2 7 2 32 11 56 18 53 18 51 1 51 -12 0 -15 25 -15
137 -1 75 -3 139 -6 141 -3 3 -5 -38 -5 -91z"/>
<path d="M1823 1830 c0 -47 2 -68 4 -47 4 37 5 37 49 37 44 0 44 0 44 -35 0
-19 5 -35 10 -35 6 0 10 33 10 80 0 47 -4 80 -10 80 -5 0 -10 -16 -10 -35 0
-35 0 -35 -44 -35 -44 0 -45 0 -49 38 -2 20 -4 -1 -4 -48z"/>
<path d="M2250 1884 c0 -21 -4 -24 -20 -19 -35 11 -60 -11 -60 -56 0 -32 4
-41 25 -51 18 -8 28 -8 39 1 11 9 15 9 19 -1 3 -7 6 24 6 70 1 45 -1 82 -4 82
-3 0 -5 -12 -5 -26z m-8 -59 c10 -21 9 -29 -5 -43 -31 -31 -75 19 -47 53 19
22 39 18 52 -10z"/>
<path d="M4810 1380 l0 -500 905 0 905 0 0 500 0 500 -905 0 -905 0 0 -500z
m1800 0 l0 -490 -895 0 -895 0 0 490 0 490 895 0 895 0 0 -490z"/>
<path d="M4930 1670 c-39 -39 -20 -110 30 -110 41 0 47 18 8 22 -28 2 -34 7
-36 31 -4 37 15 60 45 52 26 -6 32 9 7 19 -25 9 -33 7 -54 -14z"/>
<path d="M5231 1668 c-10 -28 -2 -108 10 -108 5 0 9 15 9 33 0 18 5 38 12 45
9 9 9 12 0 12 -19 0 -14 28 6 33 13 4 11 5 -6 6 -15 1 -25 -7 -31 -21z"/>
<path d="M5290 1680 c0 -5 5 -10 11 -10 5 0 7 5 4 10 -3 6 -8 10 -11 10 -2 0
-4 -4 -4 -10z"/>
<path d="M5750 1671 c0 -14 -8 -21 -27 -23 -25 -3 -28 -7 -28 -43 0 -39 1 -40
38 -43 l37 -3 0 65 c0 37 -4 66 -10 66 -5 0 -10 -9 -10 -19z m-2 -61 c4 -23
-15 -43 -30 -34 -10 6 -11 48 -1 58 12 12 28 0 31 -24z"/>
<path d="M5020 1629 c-9 -16 -9 -28 -1 -46 9 -20 17 -24 44 -21 30 3 32 5 32
43 0 38 -2 40 -32 43 -24 2 -34 -2 -43 -19z m58 -18 c5 -34 -16 -51 -33 -27
-10 14 -11 24 -4 38 13 24 33 18 37 -11z"/>
<path d="M5120 1604 c0 -24 5 -44 10 -44 6 0 10 13 10 29 0 29 21 57 33 44 4
-3 7 -21 7 -40 0 -18 5 -33 11 -33 6 0 9 17 7 43 -3 41 -4 42 -40 44 l-38 1 0
-44z"/>
<path d="M5290 1605 c0 -25 5 -45 10 -45 6 0 10 20 10 45 0 25 -4 45 -10 45
-5 0 -10 -20 -10 -45z"/>
<path d="M5335 1638 c-11 -30 -12 -94 -3 -105 14 -18 43 -16 63 3 20 21 4 44
-34 45 -21 1 -22 2 -6 6 27 7 42 20 48 43 4 17 0 20 -29 20 -19 0 -37 -6 -39
-12z m40 -9 c10 -15 -1 -23 -20 -15 -9 3 -13 10 -10 16 8 13 22 13 30 -1z m5
-79 c0 -5 -9 -10 -20 -10 -11 0 -20 5 -20 10 0 6 9 10 20 10 11 0 20 -4 20
-10z"/>
<path d="M5420 1621 c0 -49 9 -61 46 -61 34 0 34 1 34 45 0 25 -4 45 -10 45
-5 0 -10 -15 -10 -34 0 -20 -6 -36 -14 -39 -20 -8 -26 2 -26 40 0 18 -4 33
-10 33 -5 0 -10 -13 -10 -29z"/>
<path d="M5530 1605 c0 -25 5 -45 10 -45 6 0 10 16 10 35 0 24 5 35 15 35 8 0
15 5 15 10 0 6 -11 10 -25 10 -23 0 -25 -4 -25 -45z"/>
<path d="M5602 1638 c-15 -15 -16 -50 0 -66 14 -14 68 -16 68 -3 0 6 -12 9
-26 8 -15 -1 -29 4 -31 11 -3 8 6 12 27 12 27 0 31 3 28 23 -3 25 -45 36 -66
15z m48 -8 c0 -5 -9 -10 -21 -10 -11 0 -17 5 -14 10 3 6 13 10 21 10 8 0 14
-4 14 -10z"/>
<path d="M5275 1440 c-3 -5 -1 -10 4 -10 6 0 11 5 11 10 0 6 -2 10 -4 10 -3 0
-8 -4 -11 -10z"/>
<path d="M5600 1385 c0 -37 4 -65 10 -65 6 0 10 28 10 65 0 37 -4 65 -10 65
-6 0 -10 -28 -10 -65z"/>
<path d="M6050 1431 c0 -14 -8 -21 -26 -23 -34 -4 -49 -27 -40 -61 5 -23 12
-27 41 -27 l35 0 0 65 c0 36 -2 65 -5 65 -3 0 -5 -9 -5 -19z m-6 -53 c10 -16
-6 -48 -24 -48 -12 0 -21 31 -14 52 6 22 23 20 38 -4z"/>
<path d="M4910 1349 c0 -32 5 -61 10 -64 6 -3 10 3 10 14 0 16 6 21 25 21 33
0 52 38 36 68 -9 16 -20 21 -46 20 l-35 -1 0 -58z m60 2 c-9 -18 -14 -20 -26
-10 -17 14 -18 31 -2 47 20 20 43 -10 28 -37z"/>
<path d="M5020 1365 c0 -25 5 -45 10 -45 6 0 10 16 10 35 0 24 5 35 15 35 8 0
15 5 15 10 0 6 -11 10 -25 10 -23 0 -25 -4 -25 -45z"/>
<path d="M5092 1398 c-15 -15 -16 -50 0 -66 15 -15 68 -16 68 -1 0 6 -7 9 -15
5 -18 -6 -45 2 -45 15 0 5 14 9 31 9 26 0 30 3 27 23 -3 25 -45 36 -66 15z
m43 -8 c3 -5 -3 -10 -15 -10 -12 0 -18 5 -15 10 3 6 10 10 15 10 5 0 12 -4 15
-10z"/>
<path d="M5187 1365 c8 -25 21 -45 28 -45 7 0 20 20 28 45 18 51 4 62 -16 13
l-13 -33 -12 33 c-6 17 -15 32 -21 32 -6 0 -3 -19 6 -45z"/>
<path d="M5270 1365 c0 -25 5 -45 10 -45 6 0 10 20 10 45 0 25 -4 45 -10 45
-5 0 -10 -20 -10 -45z"/>
<path d="M5322 1398 c-28 -28 -7 -78 33 -78 27 0 45 18 45 45 0 27 -18 45 -45
45 -12 0 -26 -5 -33 -12z m56 -28 c4 -27 -17 -44 -35 -28 -16 13 -17 30 -1 46
17 17 32 10 36 -18z"/>
<path d="M5422 1368 c3 -42 4 -43 41 -46 l37 -3 0 45 c0 25 -4 46 -10 46 -5 0
-10 -15 -10 -34 0 -20 -6 -36 -14 -39 -20 -8 -26 2 -26 40 0 18 -5 33 -11 33
-6 0 -9 -17 -7 -42z"/>
<path d="M5523 1393 c-4 -11 1 -22 15 -31 28 -18 29 -36 2 -29 -11 3 -20 1
-20 -4 0 -5 11 -9 25 -9 35 0 45 29 17 48 -28 18 -29 36 -2 29 11 -3 20 -1 20
4 0 16 -50 10 -57 -8z"/>
<path d="M5640 1400 c0 -6 6 -26 14 -45 8 -18 12 -44 9 -56 -12 -44 16 -9 36
47 24 63 24 64 11 64 -5 0 -12 -11 -16 -25 -3 -14 -10 -25 -15 -25 -5 0 -11
11 -15 25 -6 24 -24 35 -24 15z"/>
<path d="M5782 1368 c3 -42 4 -43 41 -46 l37 -3 0 45 c0 25 -4 46 -10 46 -5 0
-10 -15 -10 -34 0 -20 -6 -36 -14 -39 -20 -8 -26 2 -26 40 0 18 -5 33 -11 33
-6 0 -9 -17 -7 -42z"/>
<path d="M5880 1364 c0 -24 5 -44 10 -44 6 0 10 13 10 29 0 29 21 57 33 44 4
-3 7 -21 7 -40 0 -18 5 -33 11 -33 6 0 9 17 7 43 -3 41 -4 42 -40 44 l-38 1 0
-44z"/>
<path d="M6089 1389 c-18 -34 3 -69 41 -69 16 0 30 4 30 8 0 5 -10 8 -21 8
-12 -1 -24 5 -26 12 -3 8 6 12 26 12 32 0 41 16 19 38 -19 19 -56 14 -69 -9z
m56 1 c3 -5 -3 -10 -15 -10 -12 0 -18 5 -15 10 3 6 10 10 15 10 5 0 12 -4 15
-10z"/>
<path d="M6190 1365 c0 -25 5 -45 10 -45 6 0 10 16 10 35 0 24 5 35 15 35 8 0
15 5 15 10 0 6 -11 10 -25 10 -23 0 -25 -4 -25 -45z"/>
<path d="M4916 1182 c-10 -63 -7 -92 9 -92 12 0 15 13 15 59 0 68 -14 89 -24
33z"/>
<path d="M4966 1183 c-10 -64 -7 -93 9 -93 9 0 15 9 15 25 0 14 5 25 10 25 6
0 16 -11 22 -25 14 -31 32 -33 22 -2 -5 12 -7 36 -6 54 1 23 -4 35 -17 43 -35
18 -48 12 -55 -27z m52 -6 c2 -10 -3 -17 -12 -17 -10 0 -16 9 -16 21 0 24 23
21 28 -4z"/>
<path d="M5077 1213 c-11 -10 -8 -123 3 -123 6 0 10 28 10 65 0 65 -1 71 -13
58z"/>
<path d="M5139 1202 c-25 -21 -30 -71 -9 -96 16 -21 64 -20 84 0 22 22 20 70
-4 94 -25 25 -41 25 -71 2z m59 -14 c31 -31 -2 -97 -39 -78 -22 12 -27 75 -6
83 21 9 32 8 45 -5z"/>
<path d="M5295 1167 c-8 -64 -3 -77 31 -77 46 0 64 17 64 59 0 43 -13 58 -58
67 l-30 6 -7 -55z m64 19 c20 -24 10 -70 -16 -74 -21 -3 -23 1 -23 42 0 48 16
60 39 32z"/>
<path d="M5590 1210 c0 -5 5 -10 10 -10 6 0 10 5 10 10 0 6 -4 10 -10 10 -5 0
-10 -4 -10 -10z"/>
<path d="M5887 1213 c-11 -10 -8 -123 3 -123 6 0 10 11 10 25 0 15 6 25 14 25
8 0 17 -11 20 -25 4 -14 11 -25 16 -25 13 0 13 16 -1 41 -7 15 -7 24 0 33 15
18 4 43 -22 50 -28 7 -32 7 -40 -1z m48 -33 c0 -8 -8 -16 -17 -18 -13 -2 -18
3 -18 18 0 15 5 20 18 18 9 -2 17 -10 17 -18z"/>
<path d="M6090 1155 c0 -37 4 -65 10 -65 6 0 10 28 10 65 0 37 -4 65 -10 65
-6 0 -10 -28 -10 -65z"/>
<path d="M5422 1168 c-15 -15 -16 -50 0 -66 15 -15 68 -16 68 -1 0 6 -7 9 -15
5 -18 -6 -45 2 -45 15 0 5 14 9 31 9 26 0 30 3 27 23 -3 25 -45 36 -66 15z
m43 -8 c3 -5 -3 -10 -15 -10 -12 0 -18 5 -15 10 3 6 10 10 15 10 5 0 12 -4 15
-10z"/>
<path d="M5513 1163 c-4 -11 1 -22 15 -31 28 -18 29 -36 2 -29 -11 3 -20 1
-20 -4 0 -5 11 -9 25 -9 35 0 45 29 17 48 -28 18 -29 35 -2 27 11 -4 20 -2 20
4 0 18 -50 13 -57 -6z"/>
<path d="M5590 1135 c0 -25 5 -45 10 -45 6 0 10 20 10 45 0 25 -4 45 -10 45
-5 0 -10 -20 -10 -45z"/>
<path d="M5638 1168 c-3 -7 -6 -34 -7 -60 -1 -39 1 -47 18 -53 27 -8 63 12 59
33 -2 10 -15 19 -33 21 -29 4 -29 4 -6 10 16 4 27 17 32 34 7 25 5 27 -26 27
-18 0 -35 -6 -37 -12z m42 -13 c0 -8 -7 -15 -15 -15 -16 0 -20 12 -8 23 11 12
23 8 23 -8z m10 -75 c0 -5 -9 -10 -20 -10 -11 0 -20 5 -20 10 0 6 9 10 20 10
11 0 20 -4 20 -10z"/>
<path d="M5730 1135 c0 -54 17 -60 22 -8 4 52 28 56 28 4 0 -23 5 -41 10 -41
6 0 10 20 10 45 0 45 0 45 -35 45 -35 0 -35 0 -35 -45z"/>
<path d="M5980 1151 c0 -49 9 -61 46 -61 34 0 34 1 34 45 0 25 -4 45 -10 45
-5 0 -10 -15 -10 -34 0 -20 -6 -36 -14 -39 -20 -8 -26 2 -26 40 0 18 -4 33
-10 33 -5 0 -10 -13 -10 -29z"/>
<path d="M6129 1159 c-18 -34 3 -69 41 -69 16 0 30 4 30 8 0 5 -10 8 -21 8
-12 -1 -24 5 -26 12 -3 8 6 12 26 12 32 0 41 16 19 38 -19 19 -56 14 -69 -9z
m56 1 c3 -5 -3 -10 -15 -10 -12 0 -18 5 -15 10 3 6 10 10 15 10 5 0 12 -4 15
-10z"/>
<path d="M6224 1165 c-7 -18 3 -35 22 -35 8 0 14 -7 14 -16 0 -11 -6 -14 -20
-9 -11 4 -20 2 -20 -4 0 -6 14 -11 30 -11 23 0 30 4 30 20 0 11 -9 25 -20 32
-11 7 -20 17 -20 22 0 4 9 6 20 3 11 -3 20 -1 20 4 0 15 -50 10 -56 -6z"/>
<path d="M1984 1856 c-10 -8 -16 -18 -11 -22 4 -4 13 -2 19 4 16 16 51 15 46
0 -3 -7 -19 -16 -36 -20 -25 -7 -32 -14 -32 -33 0 -25 16 -33 70 -33 24 0 25
3 21 52 -4 66 -32 85 -77 52z m54 -63 c-4 -21 -36 -29 -51 -14 -7 7 -3 13 14
20 35 14 41 13 37 -6z"/>
<path d="M2100 1808 c0 -32 4 -58 10 -58 6 0 10 20 10 44 0 34 5 47 23 59 22
16 22 16 -10 14 l-33 -2 0 -57z"/>
<path d="M2303 1815 c12 -30 25 -55 29 -55 3 0 9 13 13 30 10 45 21 44 35 -2
l12 -42 24 59 c13 32 22 61 19 63 -2 3 -13 -15 -23 -39 l-19 -44 -15 45 -15
45 -13 -42 c-7 -24 -16 -43 -20 -43 -4 0 -12 18 -19 40 -6 22 -16 40 -20 40
-5 0 1 -25 12 -55z"/>
<path d="M2474 1856 c-10 -8 -16 -18 -11 -22 4 -4 13 -2 19 4 16 16 51 15 46
0 -3 -7 -19 -16 -36 -20 -25 -7 -32 -14 -32 -33 0 -25 16 -33 70 -33 24 0 25
3 21 52 -4 66 -32 85 -77 52z m54 -63 c-4 -21 -36 -29 -51 -14 -7 7 -3 13 14
20 35 14 41 13 37 -6z"/>
<path d="M2580 1808 c0 -32 4 -58 10 -58 6 0 10 15 10 34 0 44 9 66 26 66 8 0
14 4 14 8 0 5 -13 9 -30 9 -30 0 -30 -1 -30 -59z"/>
<path d="M2675 1854 c-10 -11 -15 -29 -13 -53 2 -29 8 -37 31 -45 23 -8 31 -6
49 12 13 12 17 22 11 22 -7 0 -15 -4 -18 -10 -11 -17 -44 -11 -55 10 -10 19
-8 20 35 20 49 0 59 15 27 43 -23 21 -46 21 -67 1z m60 -14 c4 -6 -7 -10 -25
-10 -18 0 -29 4 -25 10 3 6 15 10 25 10 10 0 22 -4 25 -10z"/>
<path d="M3560 1370 c0 -47 4 -80 10 -80 6 0 10 16 10 35 0 33 2 35 35 35 19
0 35 5 35 10 0 6 -16 10 -35 10 -31 0 -35 3 -35 25 0 23 4 25 40 25 22 0 40 5
40 10 0 6 -22 10 -50 10 l-50 0 0 -80z"/>
<path d="M3690 1370 c0 -47 4 -80 10 -80 6 0 10 14 10 30 0 28 3 30 34 30 38
0 66 21 66 50 0 31 -28 50 -76 50 l-44 0 0 -80z m95 30 c0 -22 -5 -25 -37 -28
-36 -3 -38 -2 -38 28 0 30 2 31 38 28 32 -3 37 -6 37 -28z"/>
<path d="M3866 1429 c-23 -18 -27 -28 -24 -62 4 -56 42 -85 95 -71 33 8 38 13
41 42 3 30 1 32 -27 32 -17 0 -31 -4 -31 -10 0 -5 9 -10 20 -10 11 0 20 -7 20
-15 0 -20 -46 -30 -76 -16 -20 9 -24 18 -24 50 0 30 5 43 19 51 28 14 52 12
73 -7 26 -23 34 -9 9 16 -27 27 -61 27 -95 0z"/>
<path d="M4052 1423 c-5 -15 -19 -52 -31 -80 -11 -29 -16 -53 -11 -53 6 0 15
11 20 25 8 20 16 25 45 25 29 0 36 -4 41 -25 6 -23 24 -36 24 -17 0 20 -57
146 -67 149 -6 2 -15 -9 -21 -24z m26 -61 c-27 -5 -30 1 -17 34 l11 29 12 -30
c11 -27 11 -30 -6 -33z"/>
<path d="M3230 730 c0 -47 4 -80 10 -80 6 0 10 16 10 35 0 30 3 35 24 35 17 0
31 -11 46 -35 12 -19 29 -35 37 -35 12 0 9 8 -10 34 -26 33 -26 34 -7 51 42
38 12 75 -61 75 l-49 0 0 -80z m104 51 c14 -22 -7 -41 -45 -41 -35 0 -39 3
-39 25 0 22 4 25 39 25 22 0 42 -4 45 -9z"/>
<path d="M3400 730 c0 -47 4 -80 10 -80 6 0 10 33 10 80 0 47 -4 80 -10 80 -6
0 -10 -33 -10 -80z"/>
<path d="M3479 791 c-18 -14 -24 -29 -24 -61 0 -48 29 -80 72 -80 34 0 73 42
73 80 0 38 -39 80 -73 80 -14 0 -35 -9 -48 -19z m85 -17 c35 -34 10 -104 -36
-104 -30 0 -58 28 -58 58 0 52 59 81 94 46z"/>
<path d="M3641 742 c-21 -68 -26 -101 -16 -90 10 9 47 149 42 155 -3 3 -15
-26 -26 -65z"/>
<path d="M3700 730 c0 -47 4 -80 10 -80 6 0 10 16 10 35 0 33 2 35 35 35 19 0
35 5 35 10 0 6 -16 10 -35 10 -31 0 -35 3 -35 25 0 23 4 25 40 25 22 0 40 5
40 10 0 6 -22 10 -50 10 l-50 0 0 -80z"/>
<path d="M3830 730 c0 -47 4 -80 10 -80 6 0 10 33 10 80 0 47 -4 80 -10 80 -6
0 -10 -33 -10 -80z"/>
<path d="M4120 730 c0 -47 4 -80 10 -80 6 0 10 16 10 35 0 30 3 35 24 35 17 0
31 -11 46 -35 12 -19 29 -35 37 -35 12 0 9 8 -10 34 -26 33 -26 34 -7 51 42
38 12 75 -61 75 l-49 0 0 -80z m104 51 c14 -22 -7 -41 -45 -41 -35 0 -39 3
-39 25 0 22 4 25 39 25 22 0 42 -4 45 -9z"/>
<path d="M4280 730 c0 -64 3 -80 15 -80 12 0 15 16 15 80 0 64 -3 80 -15 80
-12 0 -15 -16 -15 -80z"/>
<path d="M4365 785 c-16 -15 -25 -36 -25 -55 0 -38 39 -80 73 -80 43 0 72 32
72 80 0 73 -70 106 -120 55z m87 -12 c35 -32 12 -103 -34 -103 -40 0 -58 19
-58 60 0 56 51 80 92 43z"/>
<path d="M3886 748 c-9 -12 -16 -29 -16 -38 0 -27 30 -60 54 -60 26 0 54 26
41 38 -4 4 -10 1 -12 -5 -6 -16 -35 -17 -51 -1 -21 21 -13 28 33 28 25 0 45 3
45 8 0 20 -34 52 -55 52 -13 0 -31 -10 -39 -22z m69 -8 c4 -6 -8 -10 -30 -10
-22 0 -34 4 -30 10 3 6 17 10 30 10 13 0 27 -4 30 -10z"/>
<path d="M4000 763 c0 -3 8 -15 17 -25 17 -19 17 -21 0 -50 -21 -37 -13 -51
10 -18 l16 23 19 -23 c25 -30 34 -19 12 15 -16 25 -16 28 0 56 9 16 13 29 7
29 -6 0 -16 -10 -22 -22 l-12 -22 -15 22 c-14 21 -32 30 -32 15z"/>
<path d="M3530 460 l0 -80 44 0 c49 0 72 16 82 56 16 61 -18 104 -82 104 l-44
0 0 -80z m98 48 c16 -16 16 -80 0 -96 -7 -7 -27 -12 -45 -12 l-33 0 0 60 0 60
33 0 c18 0 38 -5 45 -12z"/>
<path d="M3930 530 c0 -5 5 -10 10 -10 6 0 10 5 10 10 0 6 -4 10 -10 10 -5 0
-10 -4 -10 -10z"/>
<path d="M3708 489 c-26 -15 -25 -85 1 -99 28 -14 47 -13 66 6 21 21 13 29
-13 13 -23 -14 -52 -6 -52 16 0 11 11 15 40 15 44 0 52 16 24 44 -18 18 -41
20 -66 5z m57 -19 c4 -6 -7 -10 -25 -10 -18 0 -29 4 -25 10 3 6 15 10 25 10
10 0 22 -4 25 -10z"/>
<path d="M3814 476 c11 -44 34 -96 43 -96 4 0 17 27 29 60 12 33 17 60 12 60
-5 0 -13 -12 -19 -27 -5 -16 -12 -35 -15 -43 -5 -10 -12 -4 -24 22 -22 49 -35
61 -26 24z"/>
<path d="M3930 440 c0 -33 4 -60 10 -60 6 0 10 27 10 60 0 33 -4 60 -10 60 -6
0 -10 -27 -10 -60z"/>
<path d="M3986 478 c-9 -12 -16 -29 -16 -38 0 -47 62 -78 90 -45 18 21 6 29
-20 13 -18 -11 -23 -11 -36 6 -8 11 -14 23 -14 26 0 3 6 15 14 26 13 17 18 17
36 6 28 -17 36 -10 15 12 -23 22 -51 20 -69 -6z"/>
<path d="M4108 489 c-26 -15 -25 -85 1 -99 28 -14 47 -13 66 6 21 21 13 29
-13 13 -23 -14 -52 -6 -52 16 0 11 11 15 40 15 44 0 52 16 24 44 -18 18 -41
20 -66 5z m57 -19 c4 -6 -7 -10 -25 -10 -18 0 -29 4 -25 10 3 6 15 10 25 10
10 0 22 -4 25 -10z"/>
</g>
</svg>
